<svg xmlns="http://www.w3.org/2000/svg" viewBox="0 0 82 81.99"><defs><style>.cls-1{fill:#5daef8;fill-rule:evenodd;}.cls-2{fill:#364147;}</style></defs><title>4</title><g id="Layer_2" data-name="Layer 2"><g id="Color"><path class="cls-1" d="M41,52.59A11.59,11.59,0,1,0,29.42,41,11.62,11.62,0,0,0,41,52.59Z"/></g><g id="Line"><path class="cls-2" d="M5.37,76.62a18.38,18.38,0,0,1,0-26L15.43,40.6a2,2,0,0,1,2.83,2.83L8.2,53.49A14.36,14.36,0,0,0,28.51,73.79L47.79,54.52a14.38,14.38,0,0,0,0-20.31,2,2,0,0,1,2.83-2.83,18.38,18.38,0,0,1,0,26L31.33,76.62A18.39,18.39,0,0,1,5.37,76.62Zm26-26a18.39,18.39,0,0,1,0-26L50.66,5.36a18.36,18.36,0,0,1,26,26L65.29,42.66a2,2,0,0,1-2.83-2.83L73.8,28.5A14.36,14.36,0,0,0,53.49,8.19L34.21,27.47a14.39,14.39,0,0,0,0,20.31,2,2,0,1,1-2.83,2.83Z"/></g></g></svg>