<svg id="Isolation_Mode" data-name="Isolation Mode" xmlns="http://www.w3.org/2000/svg" viewBox="0 0 92.6 65.72"><defs><style>.cls-1{fill:#5dadf8;}.cls-2{fill:#364146;}</style></defs><title>email</title><polygon class="cls-1" points="19.09 7.44 83.7 7.44 51.11 29.51 19.09 7.44"/><path class="cls-2" d="M882.07,822.77H793.35a2,2,0,0,1-1.95-1.95V759a2,2,0,0,1,1.95-1.95h88.71A2,2,0,0,1,884,759v61.83A2,2,0,0,1,882.07,822.77Zm-86.77-3.89h84.82V760.94H795.3Z" transform="translate(-791.41 -757.05)"/><path class="cls-2" d="M837.71,791.86a1.94,1.94,0,0,1-1.11-.35l-44.36-30.92a1.95,1.95,0,0,1,2.22-3.19l43.25,30.14L881,757.4a1.95,1.95,0,0,1,2.22,3.19l-44.36,30.92A1.94,1.94,0,0,1,837.71,791.86Z" transform="translate(-791.41 -757.05)"/><path class="cls-2" d="M793.35,822.77a1.95,1.95,0,0,1-1.46-3.23L819,788.63a1.95,1.95,0,0,1,2.93,2.56l-27.07,30.92A1.94,1.94,0,0,1,793.35,822.77Z" transform="translate(-791.41 -757.05)"/><path class="cls-2" d="M882.07,822.77a1.94,1.94,0,0,1-1.46-.66l-27.07-30.92a1.95,1.95,0,0,1,2.93-2.56l27.07,30.92a1.95,1.95,0,0,1-1.46,3.23Z" transform="translate(-791.41 -757.05)"/></svg>