<svg id="Isolation_Mode" data-name="Isolation Mode" xmlns="http://www.w3.org/2000/svg" viewBox="0 0 53.9 72.56"><defs><style>.cls-1{fill:#5dacf8;}.cls-2{fill:#364146;}</style></defs><title>location</title><path class="cls-1" d="M795.94,612.43c2.13-3.81,4-7.57,6.6-11.07s5.14-6.72,6.26-11c2.2-8.42,1.32-15.85-4.08-22.5-2.44-3-4.47-6.58-8.08-8.3-3.35-1.59-7.88-1.74-11.49-2.63l-.24-.07c-1.91.8-2.57,1.35-.86,1.35,6.59,0,15.25,7.8,15.25,23S777,618.35,777,618.35s4.14,4.79,8.45,9.7C787.86,621.81,792.58,618.45,795.94,612.43Z" transform="translate(-757.1 -556.25)"/><path class="cls-2" d="M784,628.81a1.94,1.94,0,0,1-1.45-.65c-1-1.17-25.5-28.76-25.5-45,0-15.61,11.33-26.95,26.95-26.95S811,567.58,811,583.19c0,16.18-24.45,43.8-25.49,45A2,2,0,0,1,784,628.81Zm0-68.67c-13.36,0-23.06,9.7-23.06,23.06,0,12.62,17.79,34.49,23.06,40.7,5.27-6.21,23.06-28.11,23.06-40.7C807.1,569.83,797.4,560.14,784,560.14Zm0,34.67a11.28,11.28,0,1,1,11.28-11.28A11.29,11.29,0,0,1,784,594.81Zm0-18.67a7.39,7.39,0,1,0,7.39,7.39A7.4,7.4,0,0,0,784,576.14Z" transform="translate(-757.1 -556.25)"/></svg>