<svg id="Isolation_Mode" data-name="Isolation Mode" xmlns="http://www.w3.org/2000/svg" viewBox="0 0 89.02 84.89"><defs><style>.cls-1{fill:#5dadf8;}.cls-2{fill:#364146;}</style></defs><title>phone</title><path class="cls-1" d="M759.12,166.66c5.93,9.54,7.11,25.43,7.11,25.43s9.12-2.73,10.06-5.66-1.85-15.09-3-17.89-2.59-7-5.52-5.88S759.12,166.66,759.12,166.66Z" transform="translate(-747.86 -160.75)"/><path class="cls-1" d="M814.34,237.42c-8.21-7.66-23.57-11.91-23.57-11.91s4.44-8.42,7.51-8.77,14.45,4.74,17,6.38,6.37,3.9,4.7,6.56S814.34,237.42,814.34,237.42Z" transform="translate(-747.86 -160.75)"/><path class="cls-2" d="M802.43,245.64c-4.77,0-10.16-1.79-15.74-5.29-10.87-6.82-21.51-20.86-22-21.45s-11.28-14.43-15.08-26.69c-3-9.56-2.23-17.67,2.08-22.83,1.17-1.4,15.05-10.81,19.53-8.16,4.09,2.42,8.6,21.84,6.84,26-1.24,2.9-5,4.27-8.07,5.38-.65.23-1.45.53-2,.77,1.45,3.16,7.7,12.45,10,15.39s9.64,11.36,12.32,13.57c.38-.48.87-1.19,1.26-1.75,1.85-2.66,4.15-6,7.27-6.42h0c4.48-.61,22.07,8.7,23.36,13.27,1.41,5-11.25,16-12.9,16.79A16,16,0,0,1,802.43,245.64Zm-33.51-81.1c-2.62,0-12.56,5.63-14.18,7.38-3.41,4.08-3.89,10.88-1.33,19.12,3.59,11.57,14.34,25.32,14.44,25.45s10.67,14.09,20.93,20.52c7.31,4.59,14,5.87,18.85,3.61,2.18-1.16,10.78-10,10.76-12.25-1.15-2.53-16.11-10.78-19-10.34h0c-1.42.21-3.33,3-4.6,4.77-1.56,2.25-2.64,3.89-4.45,3.81-3.29-.13-15.36-15.32-15.48-15.47s-11.71-15.71-11-18.93c.39-1.72,2.25-2.4,4.83-3.33,2.08-.76,5.23-1.9,5.79-3.22,1.15-2.71-3-19.26-5.26-21.08A1.19,1.19,0,0,0,768.92,164.55Z" transform="translate(-747.86 -160.75)"/><path class="cls-2" d="M790.15,202.24v-6.63c0-6.88,7.4-7.62,10.58-7.62,5.7,0,6.55-2.62,6.55-4.18,0-3.12-2.65-5.05-6.9-5.05-2.75,0-5.68,1.35-6.14,3.87H790.3c.41-4.9,5.23-7.11,10-7.11,2.56,0,10.89.59,10.89,8.17,0,5.42-3.13,7.74-10.46,7.74-4.15,0-6.63,1.58-6.63,4.22v3h17.17v3.6Z" transform="translate(-747.86 -160.75)"/><path class="cls-2" d="M829.77,202.24V197H815l-.4-4.48,12.1-16.6h7V193.2h3.24V197h-3.24v5.25Zm-11.23-9h11.23V177.86Z" transform="translate(-747.86 -160.75)"/></svg>