<svg id="Icons" xmlns="http://www.w3.org/2000/svg" viewBox="0 0 86.64 95.01"><defs><style>.cls-1{fill:#5daef8;}.cls-2{fill:#364147;}</style></defs><title>call-recording</title><path class="cls-1" d="M445.81,390.34l-21.32,21.32a14,14,0,0,1-19.67,0h0a14,14,0,0,1,0-19.67l21.32-21.32a14,14,0,0,1,19.67,0h0A14,14,0,0,1,445.81,390.34Z" transform="translate(-369.7 -353.15)"/><path class="cls-2" d="M413.69,417.17q-.69,0-1.4-.05a21.48,21.48,0,0,1-13.54-6.38c-7.82-7.82-8.6-19.77-1.74-26.64l26.26-26.26c6.87-6.86,18.82-6.08,26.64,1.74h0c7.83,7.82,8.6,19.78,1.74,26.64l-26.26,26.26A16.28,16.28,0,0,1,413.69,417.17ZM435,357.07a12.46,12.46,0,0,0-8.95,3.54l-26.26,26.26c-5.33,5.33-4.54,14.79,1.74,21.08a17.55,17.55,0,0,0,11,5.24,12.61,12.61,0,0,0,10-3.5l26.26-26.26c5.33-5.33,4.55-14.79-1.74-21.08A17.42,17.42,0,0,0,435,357.07Z" transform="translate(-369.7 -353.15)"/><path class="cls-2" d="M429.1,371.15a2,2,0,0,1-1.39-.58l-6.4-6.4a2,2,0,0,1,2.78-2.78l6.4,6.4a2,2,0,0,1-1.39,3.36Z" transform="translate(-369.7 -353.15)"/><path class="cls-2" d="M419.43,380.83a2,2,0,0,1-1.39-.58l-6.4-6.4a2,2,0,0,1,2.78-2.78l6.4,6.4a2,2,0,0,1-1.39,3.36Z" transform="translate(-369.7 -353.15)"/><path class="cls-2" d="M409.75,390.5a2,2,0,0,1-1.39-.58l-6.39-6.4a2,2,0,1,1,2.78-2.78l6.39,6.4a2,2,0,0,1-1.39,3.36Z" transform="translate(-369.7 -353.15)"/><path class="cls-2" d="M446.7,388.75a2,2,0,0,1-1.39-.58l-6.4-6.4a2,2,0,0,1,2.78-2.78l6.4,6.4a2,2,0,0,1-1.39,3.36Z" transform="translate(-369.7 -353.15)"/><path class="cls-2" d="M437,398.43a2,2,0,0,1-1.39-.58l-6.4-6.4a2,2,0,1,1,2.78-2.78l6.4,6.4a2,2,0,0,1-1.39,3.36Z" transform="translate(-369.7 -353.15)"/><path class="cls-2" d="M427.35,408.1a2,2,0,0,1-1.39-.58l-6.4-6.4a2,2,0,1,1,2.78-2.78l6.4,6.4a2,2,0,0,1-1.39,3.36Z" transform="translate(-369.7 -353.15)"/><path class="cls-2" d="M391.3,420.43a2,2,0,0,1-1.39-3.36l8.29-8.3a2,2,0,1,1,2.78,2.78l-8.29,8.3A2,2,0,0,1,391.3,420.43Z" transform="translate(-369.7 -353.15)"/><path class="cls-2" d="M391.3,445.07a2,2,0,0,1-2-2V418.46a2,2,0,0,1,3.93,0V443.1A2,2,0,0,1,391.3,445.07Z" transform="translate(-369.7 -353.15)"/><path class="cls-2" d="M410.93,448.17H371.67a2,2,0,0,1,0-3.93h39.26a2,2,0,0,1,0,3.93Z" transform="translate(-369.7 -353.15)"/></svg>