<svg id="Icons" xmlns="http://www.w3.org/2000/svg" viewBox="0 0 92.46 84.55"><defs><style>.cls-1{fill:#5daef8;}.cls-2{fill:#364147;}</style></defs><title>cms</title><rect class="cls-1" x="21.87" y="29.65" width="21.99" height="31.61"/><path class="cls-2" d="M824.55,444.19H736a1.94,1.94,0,0,1-1.95-1.95V371.07a2,2,0,0,1,1.95-1.95h88.57a2,2,0,0,1,1.95,1.95v71.17A1.94,1.94,0,0,1,824.55,444.19Zm-86.62-3.89H822.6V373H737.92Z" transform="translate(-734.03 -359.63)"/><path class="cls-2" d="M811.34,399.11H789.8a1.95,1.95,0,1,1,0-3.89h21.54a1.95,1.95,0,1,1,0,3.89Z" transform="translate(-734.03 -359.63)"/><path class="cls-2" d="M804.11,411H789.8a1.95,1.95,0,0,1,0-3.89h14.32a1.95,1.95,0,0,1,0,3.89Z" transform="translate(-734.03 -359.63)"/><path class="cls-2" d="M808.41,387.25H789.8a1.95,1.95,0,1,1,0-3.89h18.61a1.95,1.95,0,1,1,0,3.89Z" transform="translate(-734.03 -359.63)"/><path class="cls-2" d="M807.15,434.7H748.63a1.95,1.95,0,0,1,0-3.89h58.52a1.95,1.95,0,0,1,0,3.89Z" transform="translate(-734.03 -359.63)"/><path class="cls-2" d="M799.82,422.83h-10a1.95,1.95,0,1,1,0-3.89h10a1.95,1.95,0,0,1,0,3.89Z" transform="translate(-734.03 -359.63)"/><path class="cls-2" d="M809.84,422.83h-2.15a1.95,1.95,0,1,1,0-3.89h2.15a1.95,1.95,0,1,1,0,3.89Z" transform="translate(-734.03 -359.63)"/><path class="cls-2" d="M824.55,373H736a2,2,0,0,1-1.95-1.95v-5.71a5.73,5.73,0,0,1,5.73-5.73h81a5.73,5.73,0,0,1,5.73,5.73v5.71A2,2,0,0,1,824.55,373Zm-86.62-3.89H822.6v-3.76a1.84,1.84,0,0,0-1.84-1.84h-81a1.84,1.84,0,0,0-1.84,1.84Z" transform="translate(-734.03 -359.63)"/><path class="cls-2" d="M776.42,422.83H750.1a3.42,3.42,0,0,1-3.42-3.42v-35.8a3.42,3.42,0,0,1,3.42-3.42h26.31a3.42,3.42,0,0,1,3.42,3.42v35.8A3.42,3.42,0,0,1,776.42,422.83Zm-25.84-3.89h25.37V384.09H750.57Zm25.84-34.86h0Z" transform="translate(-734.03 -359.63)"/></svg>