<svg id="Icons" xmlns="http://www.w3.org/2000/svg" viewBox="0 0 93.31 84.36"><defs><style>.cls-1{fill:#5daef8;}.cls-2{fill:#364147;}</style></defs><title>conversion-optimization</title><polygon class="cls-1" points="76.06 11.57 76.06 58.02 8.93 58.02 8.93 67.01 84.39 67.01 84.39 60.7 84.39 54.39 84.39 11.57 76.06 11.57"/><path class="cls-2" d="M808.63,243H777.16a2,2,0,1,1,0-3.93h31.47a2,2,0,0,1,0,3.93Z" transform="translate(-746.24 -158.64)"/><path class="cls-2" d="M830.62,227.26H755.16a2,2,0,0,1-2-2V170.22a2,2,0,0,1,2-2h75.46a2,2,0,0,1,2,2V225.3A2,2,0,0,1,830.62,227.26Zm-73.5-3.93h71.53V172.18H757.13Z" transform="translate(-746.24 -158.64)"/><path class="cls-2" d="M792.89,241.24a2,2,0,0,1-2-2v-5.19a2,2,0,1,1,3.93,0v5.19A2,2,0,0,1,792.89,241.24Z" transform="translate(-746.24 -158.64)"/><path class="cls-2" d="M792.89,172.18a2,2,0,0,1-2-2v-9.61a2,2,0,1,1,3.93,0v9.61A2,2,0,0,1,792.89,172.18Z" transform="translate(-746.24 -158.64)"/><path class="cls-2" d="M755.16,172.18h-7a2,2,0,0,1,0-3.93h7a2,2,0,1,1,0,3.93Z" transform="translate(-746.24 -158.64)"/><path class="cls-2" d="M837.58,172.18h-7a2,2,0,0,1,0-3.93h7a2,2,0,1,1,0,3.93Z" transform="translate(-746.24 -158.64)"/><path class="cls-2" d="M769.35,213.89a2,2,0,0,1-.93-3.7L811.83,187l-4.54-1.86a2,2,0,1,1,1.49-3.64l8.41,3.44a2,2,0,0,1,.18,3.55l-47.1,25.19A2,2,0,0,1,769.35,213.89Z" transform="translate(-746.24 -158.64)"/><path class="cls-2" d="M815.14,197.74l-.28,0a2,2,0,0,1-1.67-2.23l1.3-9a2,2,0,1,1,3.89.56l-1.3,9A2,2,0,0,1,815.14,197.74Z" transform="translate(-746.24 -158.64)"/></svg>