<svg xmlns="http://www.w3.org/2000/svg" viewBox="0 0 91.23 86.89"><defs><style>.cls-1{fill:#5daef8;fill-rule:evenodd;}.cls-2{fill:#364147;}</style></defs><title>ecommerce-development</title><g id="Color"><path class="cls-1" d="M830.61,413.35l-1.34,6.5H772.19l-2-10.58c3.84.37,4,4.19,8.27,4.19,4.45,0,4.45-4.22,8.89-4.22s4.44,4.22,8.89,4.22,4.45-4.22,8.9-4.22,4.45,4.22,8.89,4.22,4.45-4.22,8.9-4.22C826.92,409.24,827.32,412.67,830.61,413.35Z" transform="translate(-746.69 -356.06)"/></g><g id="Line"><path class="cls-2" d="M820.13,443a8.6,8.6,0,0,1-8.46-7.11h-22.4c-1.64,9.42-15.26,9.43-16.92,0h-4.18a9,9,0,0,1,0-18h1.6l-10.59-55.07-11-2.77a2,2,0,0,1,1-3.88c12.81,3.23,13.37,3,13.7,4.64l3,15.45,70.34,9.33a2,2,0,0,1,1.7,2.38l-4.21,20.48,0,.11-2.41,11.71a2,2,0,0,1-.08.29h0a2,2,0,0,1-1.79,1.3h-61.2a5,5,0,0,0,0,10h4.42a8.6,8.6,0,0,1,16.43,0h22.9A8.59,8.59,0,1,1,820.13,443Zm0-13.17a4.59,4.59,0,1,0,4.59,4.59A4.59,4.59,0,0,0,820.13,429.78Zm-39.32,0a4.59,4.59,0,1,0,4.59,4.59A4.59,4.59,0,0,0,780.81,429.78Zm-7-11.93h53.8l1.68-8.17c-3.29-1.15-3.68-3.82-6.41-3.82-3.21,0-3.66,4.22-8.9,4.22s-5.69-4.22-8.89-4.22-3.66,4.22-8.9,4.22-5.7-4.22-8.89-4.22-3.65,4.22-8.89,4.22a7.85,7.85,0,0,1-5.82-2.66c-.35-.33-.65-.61-.93-.83Zm31.27-16a7.85,7.85,0,0,1,5.82,2.66c1,1,1.64,1.56,3.07,1.56s2-.59,3.07-1.56a7.71,7.71,0,0,1,11.66,0,7.87,7.87,0,0,0,1.4,1.16l3.38-16.43-66.89-8.88,4.15,21.58c4.22.66,4.66,4.13,7.65,4.13,3.2,0,3.65-4.22,8.89-4.22s5.68,4.22,8.89,4.22c1.42,0,2-.59,3.07-1.56A7.85,7.85,0,0,1,805.12,401.85Z" transform="translate(-746.69 -356.06)"/></g></svg>