<svg xmlns="http://www.w3.org/2000/svg" viewBox="0 0 91.23 86.89"><defs><style>.cls-1{fill:#5daef8;fill-rule:evenodd;}.cls-2{fill:#364147;}</style></defs><title>ecommerce-seo</title><g id="Layer_2" data-name="Layer 2"><g id="Color"><path class="cls-1" d="M83.92,57.29l-1.34,6.5H25.5l-2-10.58c3.84.37,4,4.19,8.27,4.19,4.45,0,4.45-4.22,8.89-4.22s4.44,4.22,8.89,4.22,4.45-4.22,8.9-4.22,4.45,4.22,8.89,4.22,4.45-4.22,8.9-4.22C80.23,53.18,80.63,56.61,83.92,57.29Z"/></g><g id="Line"><path class="cls-2" d="M73.44,86.89A8.6,8.6,0,0,1,65,79.79H42.58c-1.64,9.42-15.26,9.43-16.92,0H21.49a9,9,0,0,1,0-18h1.6L12.49,6.72,1.5,4a2,2,0,0,1,1-3.88C15.29,3.3,15.85,3,16.18,4.72l3,15.45L89.49,29.5a2,2,0,0,1,1.7,2.38L87,52.37l0,.11L84.54,64.19a2,2,0,0,1-.08.29h0a2,2,0,0,1-1.79,1.3H21.48a5,5,0,0,0,0,10h4.42a8.6,8.6,0,0,1,16.43,0h22.9a8.59,8.59,0,1,1,8.21,11.11Zm0-13.17A4.59,4.59,0,1,0,78,78.31,4.59,4.59,0,0,0,73.44,73.72Zm-39.32,0a4.59,4.59,0,1,0,4.59,4.59A4.59,4.59,0,0,0,34.12,73.72Zm-7-11.93H81l1.68-8.17C79.34,52.46,79,49.8,76.22,49.8,73,49.8,72.57,54,67.32,54s-5.69-4.22-8.89-4.22S54.77,54,49.53,54s-5.7-4.22-8.89-4.22S37,54,31.74,54a7.85,7.85,0,0,1-5.82-2.66c-.35-.33-.65-.61-.93-.83Zm31.27-16a7.85,7.85,0,0,1,5.82,2.66c1,1,1.64,1.56,3.07,1.56s2-.59,3.07-1.56a7.71,7.71,0,0,1,11.66,0,7.87,7.87,0,0,0,1.4,1.16l3.38-16.43L19.95,24.31,24.1,45.89c4.22.66,4.66,4.13,7.65,4.13,3.2,0,3.65-4.22,8.89-4.22S46.32,50,49.53,50c1.42,0,2-.59,3.07-1.56A7.85,7.85,0,0,1,58.43,45.8Z"/></g></g></svg>