<svg xmlns="http://www.w3.org/2000/svg" viewBox="0 0 92.6 65.72"><defs><style>.cls-1{fill:#fff;}</style></defs><title>em-white</title><g id="Layer_2" data-name="Layer 2"><g id="Icons"><polygon class="cls-1" points="19.09 7.44 83.7 7.44 51.11 29.51 19.09 7.44"/><path class="cls-1" d="M90.66,65.72H1.95A2,2,0,0,1,0,63.78V1.95A2,2,0,0,1,1.95,0H90.66A2,2,0,0,1,92.6,1.95V63.78A2,2,0,0,1,90.66,65.72ZM3.89,61.83H88.71V3.89H3.89Z"/><path class="cls-1" d="M46.3,34.81a1.94,1.94,0,0,1-1.11-.35L.83,3.54A1.95,1.95,0,0,1,3.06.35L46.3,30.49,89.55.35a1.95,1.95,0,0,1,2.22,3.19L47.42,34.46A1.94,1.94,0,0,1,46.3,34.81Z"/><path class="cls-1" d="M1.94,65.72A1.95,1.95,0,0,1,.48,62.5L27.56,31.58a1.95,1.95,0,0,1,2.93,2.56L3.41,65.06A1.94,1.94,0,0,1,1.94,65.72Z"/><path class="cls-1" d="M90.66,65.72a1.94,1.94,0,0,1-1.46-.66L62.12,34.14a1.95,1.95,0,0,1,2.93-2.56L92.12,62.5a1.95,1.95,0,0,1-1.46,3.23Z"/></g></g></svg>