<svg id="Isolation_Mode" data-name="Isolation Mode" xmlns="http://www.w3.org/2000/svg" viewBox="0 0 16.48 31.68"><defs><style>.cls-1{fill:#fff;}</style></defs><title>facebook</title><path class="cls-1" d="M857.13,238h-4.56a.48.48,0,0,1-.48-.48v-3a.48.48,0,0,1,0-.1c.34-2.65,3.74-2.79,5.06-2.74v-4c-1.7-.32-8.76-1.3-10.31,4.49a.41.41,0,0,1,0,.13,9,9,0,0,0-.18,1.7c-.07,1.47-.06,3.25-.06,3.58a.48.48,0,0,1-.48.48h-3.48v4.44h3.72a.48.48,0,0,1,.48.48v14.2H852v-14.2a.48.48,0,0,1,.48-.48h4.24l.43-4.44ZM853,237h4.65a.48.48,0,0,1,.43.52l-.52,5.36a.48.48,0,0,1-.48.47h-4.2v14.2a.48.48,0,0,1-.48.48h-6.12a.48.48,0,0,1-.48-.48v-14.2h-3.72a.48.48,0,0,1-.48-.48v-5.4a.48.48,0,0,1,.48-.48h3.48c0-.72,0-2,.06-3.15a9.69,9.69,0,0,1,.22-1.93.49.49,0,0,1,0-.09c1.94-7.25,11.17-5.26,11.79-5.11a.48.48,0,0,1,.41.48c0,1.65,0,3.33,0,5a.48.48,0,0,1-.52.43s-4.24-.48-4.54,1.88V237Z" transform="translate(-841.65 -226.36)"/></svg>