<svg id="Isolation_Mode" data-name="Isolation Mode" xmlns="http://www.w3.org/2000/svg" viewBox="0 0 31.68 20.48"><defs><style>.cls-1{fill:#fff;}</style></defs><title>google-plus</title><path class="cls-1" d="M980.94,315.66v-.22a10.2,10.2,0,0,1,9.5-10h.19a9.29,9.29,0,0,1,3.81.49,11.25,11.25,0,0,1,3.54,2,.48.48,0,0,1,.06.67l0,0c-.4.44-.8.87-1.22,1.31s-.83.85-1.28,1.27a.48.48,0,0,1-.57.06,9.62,9.62,0,0,0-2.64-1.16,4.71,4.71,0,0,0-2.72.08h0l-.39.13a5.6,5.6,0,0,0-3,2.73,5.54,5.54,0,0,0-.44,4c0,.14.08.27.13.39v0a4.93,4.93,0,0,0,.21.57,5.52,5.52,0,0,0,2.79,2.75,5.61,5.61,0,0,0,3.91.31,5,5,0,0,0,.57-.21h0a4.11,4.11,0,0,0,1.73-1.22,5.63,5.63,0,0,0,.93-1.56h-1.83c-1,0-2.08,0-3.11,0a.48.48,0,0,1-.46-.49v-.09c0-1.08,0-2.15,0-3.23a.48.48,0,0,1,.48-.48h1.06c2.76,0,5.52,0,8.27,0a.48.48,0,0,1,.47.45,14.55,14.55,0,0,1-.34,4.57,9.21,9.21,0,0,1-1.73,3.56,9.09,9.09,0,0,1-4.89,3.15,10.82,10.82,0,0,1-6.15-.19,10.1,10.1,0,0,1-5-3.75,9.94,9.94,0,0,1-1.89-5.92Zm1-.23v.23a9,9,0,0,0,1.71,5.36,9.14,9.14,0,0,0,4.54,3.4h0a9.86,9.86,0,0,0,5.61.17,8.14,8.14,0,0,0,4.38-2.82h0a8.24,8.24,0,0,0,1.55-3.2,13.28,13.28,0,0,0,.34-3.83c-2.61,0-5.22,0-7.82,0h-.59v2.38l2.62,0,2.49,0,.14,0a.48.48,0,0,1,.33.59,6.8,6.8,0,0,1-1.33,2.51,5.07,5.07,0,0,1-2.13,1.5,5.94,5.94,0,0,1-.66.24,6.57,6.57,0,0,1-4.58-.36,6.48,6.48,0,0,1-3.27-3.23,5.78,5.78,0,0,1-.25-.67c-.06-.15-.11-.3-.15-.45a6.49,6.49,0,0,1,.51-4.69,6.56,6.56,0,0,1,3.48-3.19l.47-.16a5.65,5.65,0,0,1,3.24-.09,10.13,10.13,0,0,1,2.59,1.09c.33-.32.66-.65,1-1l.86-.91a10.17,10.17,0,0,0-2.85-1.54,8.35,8.35,0,0,0-3.42-.44h-.24a9.25,9.25,0,0,0-8.59,9Zm24.66-4.45h2.77a.48.48,0,0,1,.48.48c0,.74,0,1.56,0,2.31h2.31a.48.48,0,0,1,.48.48V317a.48.48,0,0,1-.48.48h-2.31v2.32a.48.48,0,0,1-.48.48h-2.78a.48.48,0,0,1-.48-.47v-2.32h-2.31a.48.48,0,0,1-.48-.48v-2.78a.48.48,0,0,1,.48-.48c.74,0,1.56,0,2.31,0l0-2.32a.48.48,0,0,1,.48-.48Zm2.3,1H1007l0,2.31a.48.48,0,0,1-.47.48l-2.31,0v1.83l2.31,0a.48.48,0,0,1,.47.47v2.31h1.83l0-2.32a.48.48,0,0,1,.48-.47h2.31v-1.83l-2.31,0a.48.48,0,0,1-.47-.48l0-2.31Z" transform="translate(-980.94 -305.4)"/></svg>