<svg id="Isolation_Mode" data-name="Isolation Mode" xmlns="http://www.w3.org/2000/svg" viewBox="0 0 31.68 31.68"><defs><style>.cls-1{fill:#fff;}</style></defs><title>instagram</title><path class="cls-1" d="M776.07,374.16l-3.81,0c-.79,0-1.33,0-2.13.07a13.38,13.38,0,0,0-2,.23,9.22,9.22,0,0,0-1.54.45,7.42,7.42,0,0,0-1.34.67,7.34,7.34,0,0,0-1.23,1,7.1,7.1,0,0,0-1.67,2.56,9.22,9.22,0,0,0-.45,1.54,13.43,13.43,0,0,0-.23,2c0,.82-.06,1.37-.07,2.21s0,2,0,4.11,0,3.34,0,4.11,0,1.38.07,2.21a13.43,13.43,0,0,0,.23,2,9.23,9.23,0,0,0,.45,1.54,7.42,7.42,0,0,0,.67,1.34,7.34,7.34,0,0,0,1,1.23h0a7.33,7.33,0,0,0,1.23,1,7.43,7.43,0,0,0,1.34.67,9.22,9.22,0,0,0,1.54.45,13.43,13.43,0,0,0,2,.23c.82,0,1.37.06,2.21.07l4.11,0,4.11,0c.84,0,1.38,0,2.21-.07a13.43,13.43,0,0,0,2-.23,9.22,9.22,0,0,0,1.54-.45,7.42,7.42,0,0,0,1.34-.67,7.78,7.78,0,0,0,2.22-2.22,7.42,7.42,0,0,0,.67-1.34,9.22,9.22,0,0,0,.45-1.54,13.39,13.39,0,0,0,.23-2c0-.8.06-1.33.07-2.13s0-1.9,0-3.81v-.76c0-1.91,0-3,0-3.81s0-1.33-.07-2.13a13.39,13.39,0,0,0-.23-2,9.22,9.22,0,0,0-.45-1.54,7.42,7.42,0,0,0-.67-1.34,7.31,7.31,0,0,0-3.56-2.9,9.22,9.22,0,0,0-1.54-.45,13.38,13.38,0,0,0-2-.23c-.8,0-1.33-.06-2.13-.07l-3.81,0Zm-3.83-.9,3.83,0h.76l3.83,0c.83,0,1.36,0,2.15.07a14.3,14.3,0,0,1,2.18.25,10.09,10.09,0,0,1,1.7.49,8.36,8.36,0,0,1,1.5.75,8.62,8.62,0,0,1,2.5,2.5,8.35,8.35,0,0,1,.75,1.5,10.09,10.09,0,0,1,.49,1.7,14.3,14.3,0,0,1,.25,2.18c0,.79.06,1.32.07,2.15s0,1.91,0,3.83v.76c0,1.92,0,3,0,3.83s0,1.36-.07,2.15a14.3,14.3,0,0,1-.25,2.18,10.1,10.1,0,0,1-.49,1.7,8.35,8.35,0,0,1-.75,1.5,8.23,8.23,0,0,1-1.12,1.38,8.14,8.14,0,0,1-1.38,1.12,8.35,8.35,0,0,1-1.5.75,10.08,10.08,0,0,1-1.7.49,14.34,14.34,0,0,1-2.18.25c-.82,0-1.36.06-2.23.07s-2.11,0-4.13,0-3.19,0-4.13,0-1.42,0-2.23-.07a14.34,14.34,0,0,1-2.18-.25,10.1,10.1,0,0,1-1.7-.49,8,8,0,0,1-2.88-1.88h0a8.23,8.23,0,0,1-1.12-1.38,8.35,8.35,0,0,1-.75-1.5,10.1,10.1,0,0,1-.49-1.7,14.34,14.34,0,0,1-.25-2.18c0-.82-.06-1.36-.07-2.23s0-2.11,0-4.13,0-3.19,0-4.13,0-1.42.07-2.23a14.34,14.34,0,0,1,.25-2.18,10.09,10.09,0,0,1,.49-1.7,8.36,8.36,0,0,1,.75-1.5,8.22,8.22,0,0,1,1.12-1.38,8,8,0,0,1,2.88-1.88,10.11,10.11,0,0,1,1.7-.49,14.3,14.3,0,0,1,2.18-.25c.79,0,1.32-.06,2.15-.07ZM787,380.87a2.3,2.3,0,0,1-.68,1.63h0a2.3,2.3,0,0,1-3.26,0h0a2.3,2.3,0,0,1,0-3.26h0a2.3,2.3,0,0,1,3.26,0h0a2.3,2.3,0,0,1,.68,1.63Zm-1.33,1a1.39,1.39,0,1,0-1,.4,1.38,1.38,0,0,0,1-.4Zm-9.19,12.82a5.59,5.59,0,1,1,4-1.64,5.57,5.57,0,0,1-4,1.64Zm-3.3-2.29a4.66,4.66,0,1,0-1.37-3.3,4.65,4.65,0,0,0,1.37,3.3Zm3.3-10.73a7.44,7.44,0,1,0,5.26,2.18,7.41,7.41,0,0,0-5.26-2.18Zm-5.91,1.53a8.36,8.36,0,1,1-2.45,5.91,8.33,8.33,0,0,1,2.45-5.91Zm5.91-7.16,4,0c.86,0,1.38,0,2.19.07a11.41,11.41,0,0,1,1.86.22,7.14,7.14,0,0,1,1.14.34,5.54,5.54,0,0,1,1,.52,5.46,5.46,0,0,1,.89.73h0a5.46,5.46,0,0,1,.73.89,5.55,5.55,0,0,1,.52,1,7.15,7.15,0,0,1,.34,1.14,11.42,11.42,0,0,1,.22,1.86c0,.81.06,1.33.07,2.19s0,2.07,0,4,0,3.12,0,4,0,1.38-.07,2.19a11.43,11.43,0,0,1-.22,1.86,7.15,7.15,0,0,1-.34,1.14,5.55,5.55,0,0,1-.52,1,5.46,5.46,0,0,1-.73.89,5.35,5.35,0,0,1-.89.73,5.53,5.53,0,0,1-1,.52,7.13,7.13,0,0,1-1.14.34,11.43,11.43,0,0,1-1.86.22c-.81,0-1.33.06-2.19.07s-2.07,0-4,0-3.12,0-4,0-1.38,0-2.19-.07a11.43,11.43,0,0,1-1.86-.22,7.13,7.13,0,0,1-1.14-.34,5.53,5.53,0,0,1-1-.52,5.85,5.85,0,0,1-1.62-1.62,5.54,5.54,0,0,1-.52-1,7.13,7.13,0,0,1-.34-1.14,11.42,11.42,0,0,1-.22-1.86c0-.81-.06-1.33-.07-2.19s0-2.07,0-4,0-3.12,0-4,0-1.38.07-2.19a11.42,11.42,0,0,1,.22-1.86,7.13,7.13,0,0,1,.34-1.14,5.54,5.54,0,0,1,.52-1,5.45,5.45,0,0,1,.73-.89,5.26,5.26,0,0,1,1.93-1.25,7.14,7.14,0,0,1,1.14-.34,11.41,11.41,0,0,1,1.86-.22c.81,0,1.33-.06,2.19-.07l4,0Zm4,.94-4,0-4,0c-.82,0-1.35,0-2.16.07a10.51,10.51,0,0,0-1.71.2,6.24,6.24,0,0,0-1,.3,4.62,4.62,0,0,0-.87.43,4.55,4.55,0,0,0-.74.61,4.3,4.3,0,0,0-1,1.61,6.24,6.24,0,0,0-.3,1,10.54,10.54,0,0,0-.2,1.71c0,.82-.06,1.34-.07,2.16s0,1.9,0,4,0,3.28,0,4,0,1.35.07,2.16a10.54,10.54,0,0,0,.2,1.71,6.23,6.23,0,0,0,.3,1,4.64,4.64,0,0,0,.43.87,5.12,5.12,0,0,0,1.35,1.35,4.65,4.65,0,0,0,.87.43,6.25,6.25,0,0,0,1,.3,10.56,10.56,0,0,0,1.71.2c.82,0,1.34.06,2.16.07l4,0,4,0c.82,0,1.35,0,2.16-.07a10.55,10.55,0,0,0,1.71-.2,6.25,6.25,0,0,0,1-.3,4.65,4.65,0,0,0,.87-.43,4.58,4.58,0,0,0,.74-.61,4.48,4.48,0,0,0,.61-.74A4.63,4.63,0,0,0,788,398a6.24,6.24,0,0,0,.3-1,10.51,10.51,0,0,0,.2-1.71c0-.82.06-1.34.07-2.16s0-1.91,0-4,0-3.28,0-4,0-1.35-.07-2.16a10.51,10.51,0,0,0-.2-1.71,6.24,6.24,0,0,0-.3-1,4.62,4.62,0,0,0-.43-.87,4.54,4.54,0,0,0-.61-.74h0a4.53,4.53,0,0,0-.74-.61,4.62,4.62,0,0,0-.87-.43,6.24,6.24,0,0,0-1-.3,10.51,10.51,0,0,0-1.71-.2c-.82,0-1.34-.06-2.16-.07Z" transform="translate(-760.61 -373.24)"/></svg>