<svg id="Icons" xmlns="http://www.w3.org/2000/svg" viewBox="0 0 87.11 86.76"><defs><style>.cls-1{fill:#5daef8;}.cls-2{fill:#364147;}</style></defs><title>landing-page</title><rect class="cls-1" x="52.9" y="34.05" width="23.91" height="40.14"/><path class="cls-2" d="M825.77,632.35h-66.5a2,2,0,0,1-2-2V558.16a2,2,0,0,1,2-2h66.5a2,2,0,0,1,2,2v72.22A2,2,0,0,1,825.77,632.35Zm-64.53-3.93H823.8V560.13H761.23Z" transform="translate(-748.96 -556.19)"/><path class="cls-2" d="M825.77,583.61H766.54a2,2,0,0,1,0-3.93h59.23a2,2,0,0,1,0,3.93Z" transform="translate(-748.96 -556.19)"/><path class="cls-2" d="M792.52,632.35a2,2,0,0,1-2-2v-48.2a2,2,0,0,1,3.93,0v48.2A2,2,0,0,1,792.52,632.35Z" transform="translate(-748.96 -556.19)"/><path class="cls-2" d="M834.1,643H750.93a2,2,0,1,1,0-3.93H834.1a2,2,0,0,1,0,3.93Z" transform="translate(-748.96 -556.19)"/></svg>