<svg xmlns="http://www.w3.org/2000/svg" viewBox="0 0 42.27 53.81"><defs><style>.cls-1{fill:#5daef8;fill-rule:evenodd;}.cls-2{fill:#364147;}</style></defs><title>lead-tracking</title><g id="Color"><path class="cls-1" d="M804.81,773.59c0,8.62-15.62,25-15.62,25s-15.62-16.42-15.62-25a15.62,15.62,0,0,1,31.23,0Zm-7.19-1.22a8.49,8.49,0,1,0-9.46,7.4A8.48,8.48,0,0,0,797.62,772.38Z" transform="translate(-768.06 -749.68)"/></g><g id="Line"><path class="cls-2" d="M787.74,802.86c-2-2.12-19.69-21-19.69-32.06a21.13,21.13,0,0,1,42.27,0c0,11-17.67,29.94-19.69,32.06A2,2,0,0,1,787.74,802.86Zm1.45-49.19a17.15,17.15,0,0,0-17.13,17.13c0,7.34,11.28,21.28,17.13,27.74,5.86-6.46,17.13-20.4,17.13-27.74A17.15,17.15,0,0,0,789.19,753.68Zm-10.42,16.39a10.5,10.5,0,1,1,16.93,9.52A10.51,10.51,0,0,1,778.78,770.07Zm5.3,5.28a6.5,6.5,0,1,0,5.9-10.45A6.5,6.5,0,0,0,784.08,775.35Z" transform="translate(-768.06 -749.68)"/></g></svg>