<svg id="Isolation_Mode" data-name="Isolation Mode" xmlns="http://www.w3.org/2000/svg" viewBox="0 0 31.68 31.69"><defs><style>.cls-1{fill:#fff;}</style></defs><title>linkedin</title><path class="cls-1" d="M768,478.37H761.7a.48.48,0,0,1-.48-.48V457.4a.48.48,0,0,1,.48-.48H768a.48.48,0,0,1,.48.48v20.49a.48.48,0,0,1-.48.48Zm-5.86-1h5.38V457.88h-5.38v19.53Zm2.66-22.21a4.2,4.2,0,0,1-3-1.25,4.28,4.28,0,0,1,0-6,4.2,4.2,0,0,1,6,0,4.28,4.28,0,0,1,0,6,4.2,4.2,0,0,1-3,1.25Zm-2.31-1.92a3.25,3.25,0,0,0,4.63,0,3.33,3.33,0,0,0,0-4.67,3.25,3.25,0,0,0-4.62,0,3.33,3.33,0,0,0,0,4.67Zm29.28,25.1H785.5a.48.48,0,0,1-.48-.48V467.13a5.25,5.25,0,0,0-.78-3.15,2.58,2.58,0,0,0-2.2-1,3.1,3.1,0,0,0-2.5,1,4.75,4.75,0,0,0-.89,3.1v10.76a.48.48,0,0,1-.48.48H772.1a.48.48,0,0,1-.48-.48V457.4a.48.48,0,0,1,.48-.48h6.08a.48.48,0,0,1,.48.48v1.34a8.18,8.18,0,0,1,11.54-.13,9,9,0,0,1,2.08,6.3v13a.48.48,0,0,1-.48.48Zm-5.83-1h5.35V464.91a8.13,8.13,0,0,0-1.83-5.66,6.74,6.74,0,0,0-5.15-2,6.64,6.64,0,0,0-5.74,3.11.48.48,0,0,1-.92-.2v-2.28h-5.12v19.53h5.12V467.13a5.66,5.66,0,0,1,1.12-3.71,4,4,0,0,1,3.23-1.36,3.48,3.48,0,0,1,3,1.36,6.14,6.14,0,0,1,1,3.72v10.28Z" transform="translate(-760.61 -446.67)"/></svg>