<svg xmlns="http://www.w3.org/2000/svg" viewBox="0 0 42.27 53.81"><defs><style>.cls-1{fill:#5daef8;fill-rule:evenodd;}.cls-2{fill:#364147;}</style></defs><title>local-seo</title><g id="Layer_2" data-name="Layer 2"><g id="Color"><path class="cls-1" d="M36.75,23.92c0,8.62-15.62,25-15.62,25S5.52,32.54,5.52,23.92a15.62,15.62,0,0,1,31.23,0ZM29.56,22.7a8.49,8.49,0,1,0-9.46,7.4A8.48,8.48,0,0,0,29.56,22.7Z"/></g><g id="Line"><path class="cls-2" d="M19.69,53.19C17.67,51.07,0,32.17,0,21.13a21.13,21.13,0,0,1,42.27,0c0,11-17.67,29.94-19.69,32.06A2,2,0,0,1,19.69,53.19ZM21.13,4A17.15,17.15,0,0,0,4,21.13c0,7.34,11.28,21.28,17.13,27.74C27,42.41,38.27,28.47,38.27,21.13A17.15,17.15,0,0,0,21.13,4ZM10.72,20.39a10.5,10.5,0,1,1,16.93,9.52A10.51,10.51,0,0,1,10.72,20.39ZM16,25.67a6.5,6.5,0,1,0,5.9-10.45A6.5,6.5,0,0,0,16,25.67Z"/></g></g></svg>