<svg xmlns="http://www.w3.org/2000/svg" viewBox="0 0 90.15 90.15"><defs><style>.cls-1{fill:#5daef8;}.cls-2{fill:#364147;}</style></defs><title>off-page-seo</title><g id="Layer_2" data-name="Layer 2"><g id="Icons"><rect class="cls-1" x="12.18" y="45.83" width="41.23" height="41.23" rx="4.44" ry="4.44"/><path class="cls-2" d="M47.63,90.15H8.86A8.87,8.87,0,0,1,0,81.3V42.52a8.86,8.86,0,0,1,8.86-8.85H47.63a8.86,8.86,0,0,1,8.85,8.85V81.3A8.86,8.86,0,0,1,47.63,90.15ZM8.86,37.6a4.93,4.93,0,0,0-4.92,4.92V81.3a4.93,4.93,0,0,0,4.92,4.92H47.63a4.93,4.93,0,0,0,4.92-4.92V42.52a4.92,4.92,0,0,0-4.92-4.92Z"/><path class="cls-2" d="M81.3,0a8.86,8.86,0,0,1,8.85,8.85V47.63a8.86,8.86,0,0,1-8.85,8.85H64.11a2,2,0,1,1,0-3.93H81.3a4.93,4.93,0,0,0,4.92-4.92V8.85A4.93,4.93,0,0,0,81.3,3.93"/><path class="cls-2" d="M42.52,3.93A4.93,4.93,0,0,0,37.6,8.85V26a2,2,0,0,1-3.93,0V8.85A8.86,8.86,0,0,1,42.52,0"/><path class="cls-2" d="M19.74,55H16.59a2,2,0,1,1,0-3.93h3.15a2,2,0,0,1,0,3.93Z"/><path class="cls-2" d="M39.89,55H36.74a2,2,0,0,1,0-3.93h3.15a2,2,0,0,1,0,3.93Z"/><path class="cls-2" d="M28.24,75.43a14.57,14.57,0,0,1-8.76-3.19,2,2,0,0,1,2.38-3.14c4.19,3.18,8.58,3.17,12.77,0A2,2,0,1,1,37,72.23,14.59,14.59,0,0,1,28.24,75.43Z"/><path class="cls-2" d="M53.41,21.56H50.27a2,2,0,1,1,0-3.93h3.15a2,2,0,1,1,0,3.93Z"/><path class="cls-2" d="M73.56,21.56H70.41a2,2,0,0,1,0-3.93h3.15a2,2,0,0,1,0,3.93Z"/><path class="cls-2" d="M71.06,42a2,2,0,0,1-1.19-.4,10.56,10.56,0,0,0-6.39-2.39,2,2,0,1,1,0-3.93,14.57,14.57,0,0,1,8.76,3.19A2,2,0,0,1,71.06,42Z"/></g></g></svg>