<svg xmlns="http://www.w3.org/2000/svg" viewBox="0 0 118.94 75.36"><defs><style>.cls-1{fill:#5daef8;}.cls-2{fill:#364147;}</style></defs><title>on-page-seo</title><g id="Layer_2" data-name="Layer 2"><g id="Icons"><path class="cls-1" d="M31.32,61.94V25.76c0-4.88,3.13-4.95,5.4-4.95H95.33V61.94Z"/><path class="cls-2" d="M106.78,63.45H12.15a2,2,0,0,1-1.95-1.95V11.28A11.3,11.3,0,0,1,21.49,0h76a11.3,11.3,0,0,1,11.28,11.28V61.51A2,2,0,0,1,106.78,63.45ZM14.1,59.56h90.74V11.28a7.4,7.4,0,0,0-7.39-7.39h-76a7.4,7.4,0,0,0-7.39,7.39Z"/><path class="cls-2" d="M107.41,75.36H11.53A11.55,11.55,0,0,1,0,63.83V61.51a2,2,0,0,1,1.95-1.95H117a2,2,0,0,1,1.95,1.95v2.32A11.55,11.55,0,0,1,107.41,75.36ZM3.89,63.45v.38a7.65,7.65,0,0,0,7.64,7.64h95.88a7.65,7.65,0,0,0,7.64-7.64v-.38Z"/><path class="cls-2" d="M23.61,63.45a2,2,0,0,1-1.95-1.95V17.12A6.17,6.17,0,0,1,27.83,11H91.11a6.17,6.17,0,0,1,6.16,6.16V51.46a1.95,1.95,0,1,1-3.89,0V17.12a2.27,2.27,0,0,0-2.27-2.27H27.83a2.27,2.27,0,0,0-2.27,2.27V61.51A2,2,0,0,1,23.61,63.45Z"/><path class="cls-2" d="M80.47,32.4H37.88a1.95,1.95,0,1,1,0-3.89H80.47a1.95,1.95,0,0,1,0,3.89Z"/><path class="cls-2" d="M70.63,45.9H37.88a1.95,1.95,0,1,1,0-3.89H70.63a1.95,1.95,0,1,1,0,3.89Z"/></g></g></svg>