<svg id="Isolation_Mode" data-name="Isolation Mode" xmlns="http://www.w3.org/2000/svg" viewBox="0 0 24.74 31.68"><defs><style>.cls-1{fill:#fff;}</style></defs><title>pinterest</title><path class="cls-1" d="M925.7,543.28a6.2,6.2,0,0,1-2.78-.68,5.23,5.23,0,0,1-1.3-.93c-.32,1.26-.85,3.36-1,3.9a19.09,19.09,0,0,1-3.24,5.9l0,0a.71.71,0,0,1-.47.28.75.75,0,0,1-.28,0,.72.72,0,0,1-.26-.12.69.69,0,0,1-.27-.46v-.08a20.05,20.05,0,0,1,.07-6.8l2.23-9.46a7.59,7.59,0,0,1-.54-2.84,5.91,5.91,0,0,1,1.07-3.53,3.5,3.5,0,0,1,2.81-1.52,2.69,2.69,0,0,1,2.08.87,3.35,3.35,0,0,1,.78,2.26,15.09,15.09,0,0,1-.88,4c-.24.79-.5,1.61-.69,2.42a2.54,2.54,0,0,0-.07.59,2.14,2.14,0,0,0,.49,1.38,2.34,2.34,0,0,0,1.27.77,2.73,2.73,0,0,0,.63.07,4.29,4.29,0,0,0,3.57-2.43,12.92,12.92,0,0,0,1.55-6.48,6.07,6.07,0,0,0-1.85-4.59,7.2,7.2,0,0,0-5-1.7,8.2,8.2,0,0,0-5.84,2.24,8,8,0,0,0-2.37,5.73,5.42,5.42,0,0,0,.29,1.83,4.2,4.2,0,0,0,.76,1.32,1.66,1.66,0,0,1,.39.66,1.39,1.39,0,0,1,0,.76L916.4,538a1.35,1.35,0,0,1-.06.18,1.06,1.06,0,0,1-1.29.64l-.17-.06a5.71,5.71,0,0,1-2.9-2.68,9.58,9.58,0,0,1-1-4.5,11.27,11.27,0,0,1,3.93-8.32,13.59,13.59,0,0,1,9.16-3.18,12.06,12.06,0,0,1,8.21,3,10.26,10.26,0,0,1,3.44,7.58,14.52,14.52,0,0,1-2.79,9,9,9,0,0,1-7.21,3.57Zm-2.35-1.53a5.24,5.24,0,0,0,2.35.57,8.05,8.05,0,0,0,6.46-3.2,13.56,13.56,0,0,0,2.58-8.41,9.31,9.31,0,0,0-3.13-6.87,11.11,11.11,0,0,0-7.57-2.76,12.65,12.65,0,0,0-8.53,2.94,10.3,10.3,0,0,0-3.6,7.6,8.63,8.63,0,0,0,.9,4.05,4.78,4.78,0,0,0,2.41,2.24l.06,0a.17.17,0,0,0,.11,0,.16.16,0,0,0,.06-.08l0-.06.36-1.42a.66.66,0,0,0,0-.27,1,1,0,0,0-.2-.28,5.15,5.15,0,0,1-.94-1.62,6.36,6.36,0,0,1-.34-2.15,8.92,8.92,0,0,1,2.66-6.42,9.14,9.14,0,0,1,6.51-2.51,8.13,8.13,0,0,1,5.66,2,7,7,0,0,1,2.16,5.29,13.88,13.88,0,0,1-1.69,7,5.19,5.19,0,0,1-4.39,2.89,3.68,3.68,0,0,1-.84-.1,3.3,3.3,0,0,1-1.79-1.09,3.09,3.09,0,0,1-.71-2,3.49,3.49,0,0,1,.1-.8c.19-.81.45-1.66.71-2.48a14.53,14.53,0,0,0,.84-3.67,2.41,2.41,0,0,0-.53-1.62,1.76,1.76,0,0,0-1.37-.55,2.57,2.57,0,0,0-2,1.13,5,5,0,0,0-.88,3,6.23,6.23,0,0,0,.51,2.58l.08.16-2.31,9.78a18.19,18.19,0,0,0-.13,5.94,17.19,17.19,0,0,0,2.75-5.15c.22-.79,1.24-4.83,1.24-4.84l.3-1.23.59,1.12a3.53,3.53,0,0,0,1.54,1.37Z" transform="translate(-910.96 -520.12)"/></svg>