<svg xmlns="http://www.w3.org/2000/svg" viewBox="0 0 91 84"><defs><style>.cls-1{fill:#5dadf8;fill-rule:evenodd;}.cls-2{fill:#364147;}</style></defs><title>ppc</title><g id="Layer_2" data-name="Layer 2"><g id="Color"><polygon class="cls-1" points="61.57 40.17 19.31 22.77 36.91 64.83 61.57 40.17"/></g><g id="Line"><path class="cls-2" d="M89,84H81a2,2,0,0,1,0-4h6V74a2,2,0,0,1,4,0v8A2,2,0,0,1,89,84ZM10,84H2a2,2,0,0,1-2-2V74a2,2,0,0,1,4,0v6h6a2,2,0,1,1,0,4Zm53.12-9.35L46.73,58.26c-8.57,8.58-8.39,8.81-9.78,8.53S37,69.26,14.82,16.2a2,2,0,0,1,2.61-2.62L67.05,34a2,2,0,0,1,.65,3.26L59.4,45.58l3.53,3.53a2,2,0,1,1-2.83,2.83c-5.28-5.28-5.53-5.25-5.53-6.36s0-.81,8.19-9L20.38,19.12,38,61.3,45.31,54a2.06,2.06,0,0,1,2.83,0L64.53,70.41l7-7L65,56.86A2,2,0,1,1,67.84,54L75.79,62a2,2,0,0,1,0,2.83l-9.84,9.84A2,2,0,0,1,63.12,74.65ZM89,12a2,2,0,0,1-2-2V4H81a2,2,0,1,1,0-4h8a2,2,0,0,1,2,2v8A2,2,0,0,1,89,12ZM0,10V2A2,2,0,0,1,2,0h8a2,2,0,0,1,0,4H4v6A2,2,0,0,1,0,10Z"/></g></g></svg>