<svg xmlns="http://www.w3.org/2000/svg" viewBox="0 0 93.31 84.36"><defs><style>.cls-1{fill:#fff;}</style></defs><title>reporting-white</title><g id="Layer_2" data-name="Layer 2"><g id="Isolation_Mode" data-name="Isolation Mode"><polygon class="cls-1" points="76.06 11.57 76.06 58.02 8.93 58.02 8.93 67.01 84.39 67.01 84.39 60.7 84.39 54.39 84.39 11.57 76.06 11.57"/><path class="cls-1" d="M62.39,84.36H30.92a2,2,0,1,1,0-3.93H62.39a2,2,0,0,1,0,3.93Z"/><path class="cls-1" d="M84.39,68.62H8.92a2,2,0,0,1-2-2V11.57a2,2,0,0,1,2-2H84.39a2,2,0,0,1,2,2V66.65A2,2,0,0,1,84.39,68.62Zm-73.5-3.93H82.42V13.54H10.89Z"/><path class="cls-1" d="M46.66,82.6a2,2,0,0,1-2-2V75.44a2,2,0,1,1,3.93,0v5.19A2,2,0,0,1,46.66,82.6Z"/><path class="cls-1" d="M46.66,13.54a2,2,0,0,1-2-2V2a2,2,0,1,1,3.93,0v9.61A2,2,0,0,1,46.66,13.54Z"/><path class="cls-1" d="M8.92,13.54H2A2,2,0,0,1,2,9.61h7a2,2,0,1,1,0,3.93Z"/><path class="cls-1" d="M91.35,13.54h-7a2,2,0,0,1,0-3.93h7a2,2,0,1,1,0,3.93Z"/><path class="cls-1" d="M23.11,55.25a2,2,0,0,1-.93-3.7L65.59,28.33l-4.54-1.86a2,2,0,1,1,1.49-3.64l8.41,3.44a2,2,0,0,1,.18,3.55L24,55A2,2,0,0,1,23.11,55.25Z"/><path class="cls-1" d="M68.91,39.09l-.28,0A2,2,0,0,1,67,36.85l1.3-9a2,2,0,1,1,3.89.56l-1.3,9A2,2,0,0,1,68.91,39.09Z"/></g></g></svg>