<svg xmlns="http://www.w3.org/2000/svg" viewBox="0 0 91 94.14"><defs><style>.cls-1{fill:#fff;}</style></defs><title>seo-white</title><g id="Layer_2" data-name="Layer 2"><g id="Icons"><path class="cls-1" d="M34.72,63.38A28.66,28.66,0,1,1,63.38,34.72,28.69,28.69,0,0,1,34.72,63.38Zm0-51.09A22.43,22.43,0,1,0,57.15,34.72,22.46,22.46,0,0,0,34.72,12.29Z"/><path class="cls-1" d="M82.83,94.14A8.12,8.12,0,0,1,77,91.75L48.12,62.83a1.94,1.94,0,0,1,.36-3,24.56,24.56,0,0,0,8.17-8.17,2,2,0,0,1,1.43-.92,2,2,0,0,1,1.61.56L88.61,80.18a8.18,8.18,0,0,1-5.79,14ZM52.54,61.75,79.79,89a4.41,4.41,0,0,0,6.07,0,4.31,4.31,0,0,0,0-6.07L58.61,55.68A28.49,28.49,0,0,1,52.54,61.75Z"/><path class="cls-1" d="M33.43,66.86h0A33.44,33.44,0,1,1,50.83,62,33.47,33.47,0,0,1,33.43,66.86Zm0-63A29.53,29.53,0,1,0,63,33.43,29.57,29.57,0,0,0,33.43,3.89Z"/><path class="cls-1" d="M33.22,55.37A22.43,22.43,0,0,1,28,11.13a1.94,1.94,0,1,1,.9,3.78,18.54,18.54,0,1,0,17.48,4.91,1.94,1.94,0,0,1,2.75-2.75,22.44,22.44,0,0,1-15.86,38.3Z"/></g></g></svg>