<svg xmlns="http://www.w3.org/2000/svg" viewBox="0 0 90.27 98.69"><defs><style>.cls-1{fill:#fff;}</style></defs><title>smm-white</title><g id="Layer_2" data-name="Layer 2"><g id="Icons"><path class="cls-1" d="M12.86,45.54s4.17,6.7,10.07,6.7S31,50.74,31,50.74,27.47,34.95,12.86,45.54Z"/><path class="cls-1" d="M61.7,45.54s4.17,6.7,10.07,6.7,8.11-1.5,8.11-1.5S76.31,34.95,61.7,45.54Z"/><path class="cls-1" d="M36,5.67s4.17,6.7,10.07,6.7,8.11-1.5,8.11-1.5S50.64-4.93,36,5.67Z"/><path class="cls-1" d="M2,98.69a2,2,0,0,1-2-2V84.09A20.93,20.93,0,0,1,7.55,68a2,2,0,1,1,2.53,3,17,17,0,0,0-6.14,13V96.73A2,2,0,0,1,2,98.69Z"/><path class="cls-1" d="M39.87,98.69a2,2,0,0,1-2-2V84.09a17,17,0,0,0-6.14-13,2,2,0,1,1,2.53-3,20.93,20.93,0,0,1,7.55,16.06V96.73A2,2,0,0,1,39.87,98.69Z"/><path class="cls-1" d="M50.4,98.69a2,2,0,0,1-2-2V84.09A20.93,20.93,0,0,1,56,68a2,2,0,1,1,2.53,3,17,17,0,0,0-6.14,13V96.73A2,2,0,0,1,50.4,98.69Z"/><path class="cls-1" d="M88.3,98.69a2,2,0,0,1-2-2V84.09a17,17,0,0,0-6.14-13,2,2,0,1,1,2.53-3,20.93,20.93,0,0,1,7.55,16.06V96.73A2,2,0,0,1,88.3,98.69Z"/><path class="cls-1" d="M20.92,71.32c-6.89,0-12.5-7-12.5-15.65C8.42,45.28,12.63,40,20.92,40s12.5,5.27,12.5,15.65C33.41,64.3,27.81,71.32,20.92,71.32Zm0-27.37c-4,0-8.56,1.33-8.56,11.72,0,6.46,3.84,11.72,8.56,11.72s8.56-5.26,8.56-11.72C29.48,45.28,24.9,43.94,20.92,43.94Z"/><path class="cls-1" d="M24.79,54.35a14.51,14.51,0,0,1-2.14-.16,14.9,14.9,0,0,1-7.8-3.75,2,2,0,0,1,2.67-2.89A10.72,10.72,0,0,0,30.08,49,2,2,0,1,1,32,52.46,15,15,0,0,1,24.79,54.35Z"/><path class="cls-1" d="M10.39,98.69a2,2,0,0,1-2-2V84.09a2,2,0,0,1,3.93,0V96.73A2,2,0,0,1,10.39,98.69Z"/><path class="cls-1" d="M31.45,98.69a2,2,0,0,1-2-2V84.09a2,2,0,1,1,3.93,0V96.73A2,2,0,0,1,31.45,98.69Z"/><path class="cls-1" d="M69.35,71.32c-6.89,0-12.5-7-12.5-15.65,0-10.39,4.2-15.65,12.5-15.65s12.5,5.27,12.5,15.65C81.85,64.3,76.24,71.32,69.35,71.32Zm0-27.37c-4,0-8.56,1.33-8.56,11.72,0,6.46,3.84,11.72,8.56,11.72s8.56-5.26,8.56-11.72C77.91,45.28,73.34,43.94,69.35,43.94Z"/><path class="cls-1" d="M73.22,54.35a14.47,14.47,0,0,1-2.14-.16,14.9,14.9,0,0,1-7.8-3.75,2,2,0,0,1,2.67-2.89A10.72,10.72,0,0,0,78.52,49a2,2,0,0,1,1.92,3.43A15,15,0,0,1,73.22,54.35Z"/><path class="cls-1" d="M58.82,98.69a2,2,0,0,1-2-2V84.09a2,2,0,0,1,3.93,0V96.73A2,2,0,0,1,58.82,98.69Z"/><path class="cls-1" d="M79.88,98.69a2,2,0,0,1-2-2V84.09a2,2,0,0,1,3.93,0V96.73A2,2,0,0,1,79.88,98.69Z"/><path class="cls-1" d="M44.08,31.31c-6.89,0-12.5-7-12.5-15.65C31.58,5.27,35.79,0,44.08,0s12.5,5.27,12.5,15.65C56.58,24.29,51,31.31,44.08,31.31Zm0-27.37c-4,0-8.56,1.33-8.56,11.72,0,6.46,3.84,11.72,8.56,11.72s8.56-5.26,8.56-11.72C52.64,5.27,48.07,3.93,44.08,3.93Z"/><path class="cls-1" d="M60.82,37.23a2,2,0,0,1-1.74-1A17.27,17.27,0,0,0,54.92,31a2,2,0,0,1,2.54-3,21.23,21.23,0,0,1,5.1,6.31,2,2,0,0,1-1.74,2.89Z"/><path class="cls-1" d="M27.34,37.23a2,2,0,0,1-1.74-2.89A21.21,21.21,0,0,1,30.7,28a2,2,0,0,1,2.54,3,17.32,17.32,0,0,0-4.16,5.14A2,2,0,0,1,27.34,37.23Z"/><path class="cls-1" d="M48,14.34a14.54,14.54,0,0,1-2.14-.16A14.89,14.89,0,0,1,38,10.43a2,2,0,0,1,2.67-2.89,10.9,10.9,0,0,0,5.71,2.75A10.89,10.89,0,0,0,53.25,9a2,2,0,1,1,1.92,3.43A14.94,14.94,0,0,1,48,14.34Z"/></g></g></svg>