<svg id="Isolation_Mode" data-name="Isolation Mode" xmlns="http://www.w3.org/2000/svg" viewBox="0 0 31.68 25.93"><defs><style>.cls-1{fill:#fff;}</style></defs><title>twitter</title><path class="cls-1" d="M1156.36,823.69c0,.19,0,.36,0,.53a19.08,19.08,0,0,1-4.57,12.27,17.71,17.71,0,0,1-12.9,6.17l-.94,0a18.33,18.33,0,0,1-9.92-2.91.48.48,0,0,1,.31-.88,12.29,12.29,0,0,0,4.75-.36,12.16,12.16,0,0,0,3.23-1.44,6.79,6.79,0,0,1-5-4.56.48.48,0,0,1,.55-.62,6.06,6.06,0,0,0,.67.09,6.83,6.83,0,0,1-1.94-1.65A6.69,6.69,0,0,1,1129,826a.48.48,0,0,1,.71-.41h0a5.85,5.85,0,0,0,1,.45,6.79,6.79,0,0,1-.78-7.9.48.48,0,0,1,.65-.17.47.47,0,0,1,.14.13,17.53,17.53,0,0,0,5.64,4.54,17.33,17.33,0,0,0,6.38,1.81,6.8,6.8,0,0,1,5.17-7.52,6.84,6.84,0,0,1,1.55-.18,6.79,6.79,0,0,1,4.76,1.95,12.21,12.21,0,0,0,3.6-1.42.48.48,0,0,1,.69.58,6.76,6.76,0,0,1-1.14,2.13l-.31.36a12.14,12.14,0,0,0,1.65-.59.48.48,0,0,1,.59.7,13.19,13.19,0,0,1-3.05,3.23Zm-1,.53c0-.27,0-.52,0-.74a.48.48,0,0,1,.2-.41,12.2,12.2,0,0,0,1.65-1.43l.39-.42-.26.07a13.12,13.12,0,0,1-1.92.38.48.48,0,0,1-.3-.89,5.88,5.88,0,0,0,2-2l-.76.32a13.07,13.07,0,0,1-2.14.62.48.48,0,0,1-.44-.14,5.83,5.83,0,0,0-9.92,5.31.52.52,0,0,1,0,.13.48.48,0,0,1-.5.46,18.3,18.3,0,0,1-7.38-2,18.49,18.49,0,0,1-5.49-4.25,5.83,5.83,0,0,0,2.11,7.15.48.48,0,0,1-.27.88,6.73,6.73,0,0,1-2.33-.49,5.85,5.85,0,0,0,4.64,5,.48.48,0,0,1,.37.34.48.48,0,0,1-.34.59,6.74,6.74,0,0,1-1.52.23,6.82,6.82,0,0,1-.71,0,5.83,5.83,0,0,0,5.15,3.32.48.48,0,0,1,.29.86,13.14,13.14,0,0,1-7.66,2.79,17.31,17.31,0,0,0,7.7,1.79l.9,0a16.76,16.76,0,0,0,12.22-5.84,18.11,18.11,0,0,0,4.34-11.65Z" transform="translate(-1127.82 -816.75)"/></svg>