<svg id="Icons" xmlns="http://www.w3.org/2000/svg" viewBox="0 0 118.94 75.36"><defs><style>.cls-1{fill:#5daef8;}.cls-2{fill:#364147;}</style></defs><title>ui-ux-design</title><path class="cls-1" d="M187.81,420.58V384.39c0-4.88,3.13-4.95,5.4-4.95h58.61v41.13Z" transform="translate(-156.49 -358.63)"/><path class="cls-2" d="M263.27,422.08H168.64a2,2,0,0,1-1.95-1.95V369.91A11.3,11.3,0,0,1,178,358.63h76a11.3,11.3,0,0,1,11.28,11.28v50.22A2,2,0,0,1,263.27,422.08Zm-92.69-3.89h90.74V369.91a7.4,7.4,0,0,0-7.39-7.39H178a7.4,7.4,0,0,0-7.39,7.39Z" transform="translate(-156.49 -358.63)"/><path class="cls-2" d="M263.89,434H168a11.55,11.55,0,0,1-11.53-11.53v-2.32a2,2,0,0,1,1.95-1.95H273.48a2,2,0,0,1,1.95,1.95v2.32A11.55,11.55,0,0,1,263.89,434ZM160.38,422.08v.38A7.65,7.65,0,0,0,168,430.1h95.88a7.65,7.65,0,0,0,7.64-7.64v-.38Z" transform="translate(-156.49 -358.63)"/><path class="cls-2" d="M180.1,422.08a2,2,0,0,1-1.95-1.95V375.75a6.17,6.17,0,0,1,6.16-6.16H247.6a6.17,6.17,0,0,1,6.16,6.16v34.34a1.95,1.95,0,1,1-3.89,0V375.75a2.27,2.27,0,0,0-2.27-2.27H184.31a2.27,2.27,0,0,0-2.27,2.27v44.39A2,2,0,0,1,180.1,422.08Z" transform="translate(-156.49 -358.63)"/><path class="cls-2" d="M237,391H194.37a1.95,1.95,0,1,1,0-3.89H237a1.95,1.95,0,0,1,0,3.89Z" transform="translate(-156.49 -358.63)"/><path class="cls-2" d="M227.12,404.53H194.37a1.95,1.95,0,1,1,0-3.89h32.75a1.95,1.95,0,1,1,0,3.89Z" transform="translate(-156.49 -358.63)"/></svg>