<svg xmlns="http://www.w3.org/2000/svg" viewBox="0 0 99.56 67.8"><defs><style>.cls-1{fill:#fff;}</style></defs><title>wd-white</title><g id="Layer_2" data-name="Layer 2"><g id="Icons"><path class="cls-1" d="M34.41,21.47H79.06a0,0,0,0,1,0,0V56.58a0,0,0,0,1,0,0H28.47a0,0,0,0,1,0,0V27.41A5.94,5.94,0,0,1,34.41,21.47Z"/><path class="cls-1" d="M0,54.63H97.61a2,2,0,0,1,1.95,1.95v1.16c0,5.55-3.88,10.06-8.64,10.06H6.7"/><path class="cls-1" d="M6.7,63.91H90.91c2.42,0,4.42-2.35,4.72-5.39H2"/><path class="cls-1" d="M5.78,6.05A6.16,6.16,0,0,1,12,0H85.51a6.16,6.16,0,0,1,6.25,6.05V54.61a1.95,1.95,0,1,1-3.89,0V6.05a2.27,2.27,0,0,0-2.36-2.16H12A2.27,2.27,0,0,0,9.67,6.05V54.61a1.95,1.95,0,1,1-3.89,0"/><path class="cls-1" d="M79.06,56.56a2,2,0,0,1-1.95-1.95V15.51a1.23,1.23,0,0,0-1.23-1.23H21.65a1.23,1.23,0,0,0-1.23,1.23V47.06a1.95,1.95,0,1,1-3.89,0V15.51a5.13,5.13,0,0,1,5.12-5.12H75.89A5.13,5.13,0,0,1,81,15.51V54.61A2,2,0,0,1,79.06,56.56Z"/></g></g></svg>