<svg id="Icons" xmlns="http://www.w3.org/2000/svg" viewBox="0 0 86.59 88.01"><defs><style>.cls-1{fill:#5daef8;}.cls-2{fill:#364147;}</style></defs><title>website-analytics</title><rect class="cls-1" x="41.32" y="44" width="15.05" height="42.04"/><path class="cls-2" d="M194.61,623.18a2,2,0,0,1-1.56-.77l-8.51-11a2,2,0,0,1,3.12-2.4l8.51,11a2,2,0,0,1-1.56,3.17Z" transform="translate(-175.63 -554.69)"/><path class="cls-2" d="M251.74,642.7a2,2,0,0,1-2-2V615.94l-5,6.47a2,2,0,1,1-3.12-2.4l8.51-11a2,2,0,0,1,3.53,1.2v30.57A2,2,0,0,1,251.74,642.7Z" transform="translate(-175.63 -554.69)"/><path class="cls-2" d="M260.25,623.18a2,2,0,0,1-1.56-.77l-8.51-11a2,2,0,1,1,3.12-2.4l8.51,11a2,2,0,0,1-1.56,3.17Z" transform="translate(-175.63 -554.69)"/><path class="cls-2" d="M221.6,642.7H205.85a2,2,0,0,1-2-2V598.89h-16a2,2,0,0,1-1.56-3.17l31-40.26a2,2,0,1,1,3.12,2.4L191.91,595h13.94a2,2,0,0,1,2,2v41.84H221.6a2,2,0,0,1,0,3.93Z" transform="translate(-175.63 -554.69)"/><path class="cls-2" d="M232,642.7a2,2,0,0,1-2-2V596.92a2,2,0,0,1,2-2h13.94l-28.57-37.09a2,2,0,0,1,3.12-2.4l31,40.26a2,2,0,0,1-1.56,3.17H234v41.84A2,2,0,0,1,232,642.7Z" transform="translate(-175.63 -554.69)"/><path class="cls-2" d="M205.85,642.7H186.1a2,2,0,0,1-2-2V615.94l-5,6.47A2,2,0,1,1,176,620l8.51-11a2,2,0,0,1,3.53,1.2v28.6h17.77a2,2,0,0,1,0,3.93Z" transform="translate(-175.63 -554.69)"/></svg>