<svg xmlns="http://www.w3.org/2000/svg" viewBox="0 0 82.12 82.14"><defs><style>.cls-1{fill:#5dadf8;}.cls-2{fill:#364146;}</style></defs><title>2</title><g id="Layer_2" data-name="Layer 2"><g id="Isolation_Mode" data-name="Isolation Mode"><path class="cls-1" d="M69.77,47.67C63.47,57.91,59.39,63.2,59.39,69.59c0,5.39,5,9.15,10.38,9.15S80.16,75,80.16,69.59C80.16,63.2,76.08,57.91,69.77,47.67Z"/><path class="cls-2" d="M41.05,43a2,2,0,0,1-1.15-.37L25,31.86a2,2,0,0,1,2.31-3.18l14.88,10.8A2,2,0,0,1,41.05,43Z"/><path class="cls-2" d="M41.13,82.14A41.06,41.06,0,0,1,12,12a41.07,41.07,0,0,1,70.11,29,2,2,0,1,1-3.93,0,37.14,37.14,0,0,0-63.4-26.26,37.14,37.14,0,0,0,0,52.52A36.82,36.82,0,0,0,46.45,77.82,2,2,0,0,1,47,81.71,40.81,40.81,0,0,1,41.13,82.14Z"/><path class="cls-2" d="M36.92,69.59l-.3,0-.83-.14a2,2,0,0,1,.71-3.87l.72.12a2,2,0,0,1-.3,3.91Z"/><path class="cls-2" d="M26.3,65.5a2,2,0,0,1-1.08-.32q-.68-.45-1.34-.94a2,2,0,1,1,2.36-3.15c.38.28.76.55,1.15.81A2,2,0,0,1,26.3,65.5ZM18,56.77a2,2,0,0,1-1.69-1q-.42-.71-.8-1.43A2,2,0,0,1,19,52.57c.22.41.45.83.69,1.23a2,2,0,0,1-1.69,3Zm-3.68-11.5a2,2,0,0,1-2-1.81q-.07-.81-.09-1.63a2,2,0,0,1,1.91-2,2,2,0,0,1,2,1.91q0,.71.08,1.41a2,2,0,0,1-1.8,2.12Zm1.72-12a2,2,0,0,1-1.83-2.68q.29-.76.63-1.5a2,2,0,0,1,3.58,1.63q-.29.65-.55,1.3A2,2,0,0,1,16,33.31Zm6.8-10a2,2,0,0,1-1.34-3.41q.6-.56,1.23-1.08a2,2,0,1,1,2.5,3q-.54.45-1.06.93A2,2,0,0,1,22.79,23.33ZM57.73,22a2,2,0,0,1-1.22-.42q-.56-.44-1.13-.85a2,2,0,1,1,2.26-3.22q.66.47,1.31,1A2,2,0,0,1,57.73,22ZM33.27,17.32a2,2,0,0,1-.56-3.85q.78-.24,1.58-.43a2,2,0,1,1,.92,3.83q-.69.16-1.37.37A1.94,1.94,0,0,1,33.27,17.32Zm13.55-.52a2,2,0,0,1-.43,0c-.46-.1-.92-.19-1.38-.26a2,2,0,0,1,.62-3.89c.54.09,1.08.19,1.61.31a2,2,0,0,1-.43,3.89Z"/><path class="cls-2" d="M65,30.78a2,2,0,0,1-1.75-1.07l-.35-.65a2,2,0,0,1,3.45-1.89l.39.74A2,2,0,0,1,65,30.78Z"/><path class="cls-2" d="M66.43,82.14c-8.65,0-15.7-6.31-15.7-14.07s4.12-14.23,10.35-24.13c1.15-1.82,2.37-3.77,3.67-5.88a2,2,0,0,1,3.35,0c1.3,2.11,2.53,4.06,3.67,5.88C78,53.84,82.12,60.39,82.12,68.08S75.08,82.14,66.43,82.14Zm0-39.32-2,3.22c-6.08,9.65-9.74,15.48-9.74,22,0,6.26,6.1,10.13,11.76,10.13s11.76-3.87,11.76-10.13c0-6.56-3.67-12.38-9.74-22Z"/></g></g></svg>