<svg xmlns="http://www.w3.org/2000/svg" viewBox="0 0 85.96 87.74"><defs><style>.cls-1{fill:#364146;}</style></defs><title>3</title><g id="Layer_2" data-name="Layer 2"><g id="Isolation_Mode" data-name="Isolation Mode"><path class="cls-1" d="M42.84,87.74a43,43,0,0,1-28.12-75.3,42.69,42.69,0,0,1,53.7-2.3,2,2,0,0,1-.65,3.49L58.1,16.24a2,2,0,1,1-1-3.8L62.52,11A39,39,0,0,0,8.78,63.47,39,39,0,0,0,81.95,42.29,2,2,0,1,1,85.87,42,42.69,42.69,0,0,1,54.95,86,43.55,43.55,0,0,1,42.84,87.74Z"/><path class="cls-1" d="M67.26,13.69a2,2,0,0,1-1.9-1.45L62.73,2.48a2,2,0,1,1,3.8-1l2.63,9.75a2,2,0,0,1-1.9,2.48Z"/></g></g></svg>