<svg xmlns="http://www.w3.org/2000/svg" viewBox="0 0 93.93 93.93"><defs><style>.cls-1{fill:#5dacf8;}.cls-2{fill:#364146;}</style></defs><title>4</title><g id="Layer_2" data-name="Layer 2"><g id="Isolation_Mode" data-name="Isolation Mode"><circle class="cls-1" cx="50.11" cy="50.04" r="24.26"/><path class="cls-2" d="M43.12,65.86a2,2,0,0,1-1.42-.61L26.38,49.19a2,2,0,1,1,2.85-2.72L43,61l24.75-29a2,2,0,1,1,3,2.55L44.61,65.17a2,2,0,0,1-1.44.69Z"/><path class="cls-2" d="M47,93.93a5.87,5.87,0,0,1-4.5-2.05,7.08,7.08,0,0,0-8.53-1.7,5.95,5.95,0,0,1-8.31-3.44,7.07,7.07,0,0,0-7.24-4.83A6,6,0,0,1,12,75.54,7.08,7.08,0,0,0,7.2,68.31a6,6,0,0,1-3.62-3.37A5.87,5.87,0,0,1,3.75,60a7.08,7.08,0,0,0-1.7-8.53,6,6,0,0,1,0-9,7.08,7.08,0,0,0,1.7-8.53,5.95,5.95,0,0,1,3.44-8.31A7.08,7.08,0,0,0,12,18.39,6,6,0,0,1,18.39,12,7.05,7.05,0,0,0,25.62,7.2a6,6,0,0,1,5.65-4.08,5.88,5.88,0,0,1,2.66.63,7.13,7.13,0,0,0,3.17.75,7.09,7.09,0,0,0,5.36-2.45,5.95,5.95,0,0,1,9,0A7.24,7.24,0,0,0,60,3.75a5.89,5.89,0,0,1,2.66-.63,6,6,0,0,1,5.65,4.08A7.06,7.06,0,0,0,75.55,12a6,6,0,0,1,6.36,6.36,7.08,7.08,0,0,0,4.83,7.23,5.95,5.95,0,0,1,3.44,8.31,7.08,7.08,0,0,0,1.7,8.53A5.94,5.94,0,0,1,93.93,47a5.87,5.87,0,0,1-2.05,4.5A7.08,7.08,0,0,0,90.18,60a5.95,5.95,0,0,1-3.44,8.31,7.08,7.08,0,0,0-4.83,7.23,6,6,0,0,1-6.36,6.36,7,7,0,0,0-7.24,4.83A5.95,5.95,0,0,1,60,90.18a7.23,7.23,0,0,0-8.53,1.7A5.87,5.87,0,0,1,47,93.93ZM37.11,85.5a11,11,0,0,1,8.33,3.81,2,2,0,0,0,3,0,11,11,0,0,1,13.27-2.64,2,2,0,0,0,2.82-1.17A11,11,0,0,1,75.82,78a1.93,1.93,0,0,0,1.62-.64A2,2,0,0,0,78,75.83,11,11,0,0,1,85.5,64.58a2,2,0,0,0,1.17-2.82A11,11,0,0,1,89.3,48.49,2,2,0,0,0,90,47a2,2,0,0,0-.7-1.52,11,11,0,0,1-2.64-13.27,2,2,0,0,0-1.17-2.82A11,11,0,0,1,78,18.11a2,2,0,0,0-2-2.16L75,16A11,11,0,0,1,64.58,8.44a2,2,0,0,0-2.82-1.17,11.07,11.07,0,0,1-4.93,1.17,11,11,0,0,1-8.34-3.81,2,2,0,0,0-3,0,11,11,0,0,1-8.34,3.81,11.08,11.08,0,0,1-4.93-1.17,2,2,0,0,0-2.81,1.17A11,11,0,0,1,18.11,16H18a2,2,0,0,0-2,2.16A11,11,0,0,1,8.44,29.36a2,2,0,0,0-1.16,2.82A11,11,0,0,1,4.63,45.44a2,2,0,0,0,0,3A11,11,0,0,1,7.27,61.76a2,2,0,0,0-.06,1.67,2,2,0,0,0,1.23,1.14A11,11,0,0,1,16,75.83,2,2,0,0,0,18,78l.95,0A11,11,0,0,1,29.36,85.5a2,2,0,0,0,2.82,1.17A11.07,11.07,0,0,1,37.11,85.5Z"/></g></g></svg>