<svg id="Layer_1" data-name="Layer 1" xmlns="http://www.w3.org/2000/svg" xmlns:xlink="http://www.w3.org/1999/xlink" viewBox="0 0 25.19 17.71"><defs><style>.cls-1{fill:none;}.cls-2{clip-path:url(#clip-path);}.cls-3{fill:#fff;}</style><clipPath id="clip-path" transform="translate(-293 -387)"><rect class="cls-1" x="293" y="387" width="25.92" height="18"/></clipPath></defs><title>btn-right-arrow</title><g class="cls-2"><path class="cls-3" d="M310,387.27a.89.89,0,0,0-1.27,1.26l6.44,6.44H293.89a.89.89,0,0,0-.89.89.9.9,0,0,0,.89.9h21.24l-6.44,6.42a.91.91,0,0,0,0,1.27.89.89,0,0,0,1.27,0l8-8a.87.87,0,0,0,0-1.25Zm0,0" transform="translate(-293 -387)"/></g></svg>