<svg id="Isolation_Mode" data-name="Isolation Mode" xmlns="http://www.w3.org/2000/svg" viewBox="0 0 95.74 70.88"><defs><style>.cls-1{fill:#5daef8;}.cls-2{fill:#364147;}</style></defs><title>campaign-execution</title><rect class="cls-1" x="40.93" y="18.37" width="14.5" height="14.5"/><path class="cls-2" d="M621.15,824.18H567.72a1.94,1.94,0,0,1-1.95-1.95v-67a1.94,1.94,0,0,1,1.95-1.95H640.6a2,2,0,0,1,1.95,1.95v47.53A21.43,21.43,0,0,1,621.15,824.18Zm-51.48-3.89h51.48a17.53,17.53,0,0,0,17.51-17.51V757.2h-69Z" transform="translate(-546.81 -753.31)"/><path class="cls-2" d="M567.72,824.18c-7.64,0-13.35-2-17-6.08a16.32,16.32,0,0,1-3.91-11.83,1.94,1.94,0,0,1,1.93-1.73h11.14a1.95,1.95,0,1,1,0,3.89h-9.19a12.16,12.16,0,0,0,2.95,7.11c2.84,3.15,7.56,4.75,14,4.75a1.95,1.95,0,0,1,0,3.89Z" transform="translate(-546.81 -753.31)"/><path class="cls-2" d="M602.48,789h-20.7a1.94,1.94,0,0,1-1.95-1.95v-20.7a2,2,0,0,1,1.95-1.95h20.7a2,2,0,0,1,1.95,1.95v20.7A2,2,0,0,1,602.48,789Zm-18.75-3.89h16.81V768.32H583.73Z" transform="translate(-546.81 -753.31)"/><path class="cls-2" d="M626.54,768.32H614.34a1.95,1.95,0,0,1,0-3.89h12.21a1.95,1.95,0,0,1,0,3.89Z" transform="translate(-546.81 -753.31)"/><path class="cls-2" d="M626.54,778.75H614.34a1.95,1.95,0,0,1,0-3.89h12.21a1.95,1.95,0,0,1,0,3.89Z" transform="translate(-546.81 -753.31)"/><path class="cls-2" d="M626.54,789.17H614.34a1.95,1.95,0,0,1,0-3.89h12.21a1.95,1.95,0,0,1,0,3.89Z" transform="translate(-546.81 -753.31)"/><path class="cls-2" d="M626.54,810H581.79a1.95,1.95,0,0,1,0-3.89h44.75a1.95,1.95,0,0,1,0,3.89Z" transform="translate(-546.81 -753.31)"/><path class="cls-2" d="M626.54,799.6H581.79a1.95,1.95,0,0,1,0-3.89h44.75a1.95,1.95,0,0,1,0,3.89Z" transform="translate(-546.81 -753.31)"/></svg>