<svg xmlns="http://www.w3.org/2000/svg" viewBox="0 0 87 81"><defs><style>.cls-1{fill:#5daef8;}.cls-2{fill:#364147;}</style></defs><title>coding-and-development</title><g id="Color"><rect class="cls-1" x="7.64" y="7.76" width="77.36" height="14.25"/></g><g id="Line"><path class="cls-2" d="M643,837H560a2,2,0,0,1-2-2V758a2,2,0,0,1,2-2h83a2,2,0,0,1,2,2v77A2,2,0,0,1,643,837Zm-81-4h79V780H562Zm0-57h79V760H562Zm31.71,44.19,11-29.87a2,2,0,0,1,3.75,1.38l-11,29.87A2,2,0,0,1,593.68,820.15Zm20.7-5.44,9.25-9.25-8.36-8.36a2,2,0,0,1,2.83-2.83c10.62,10.62,10.36,10.05,10.36,11.19s.37.45-11.25,12.08A2,2,0,0,1,614.38,814.71Zm-29.53,2.83-9.77-9.77a2,2,0,0,1,0-2.83l10.66-10.66a2,2,0,0,1,2.83,2.83l-9.25,9.25,8.36,8.36a2,2,0,0,1-2.83,2.83ZM588,769h-3a2,2,0,0,1,0-4h3a2,2,0,1,1,0,4Zm-14,0h-4a2,2,0,0,1,0-4h4a2,2,0,1,1,0,4Z" transform="translate(-557.97 -755.95)"/></g></svg>