<svg xmlns="http://www.w3.org/2000/svg" viewBox="0 0 100.54 84.82"><defs><style>.cls-1{fill:#5daef8;}.cls-2{fill:#364147;}</style></defs><title>content-marketing</title><g id="Layer_2" data-name="Layer 2"><g id="Icons"><path class="cls-1" d="M72.36,72.8V11.87H24.71v62h31.8a5,5,0,0,0-.37,1.87c0,3.58,3.84,6.49,8.58,6.49s8.58-2.91,8.58-6.49A5.23,5.23,0,0,0,72.36,72.8Z"/><path class="cls-2" d="M88.1,62.34A6.34,6.34,0,0,1,87,62.25a7.21,7.21,0,0,1-6.08-7.1V51.41a1.95,1.95,0,0,1,3.89,0v3.75a3.31,3.31,0,0,0,2.81,3.26,2.75,2.75,0,0,0,.5,0,3.3,3.3,0,0,0,3.3-3.3V51.41a1.95,1.95,0,0,1,3.89,0v3.75A7.2,7.2,0,0,1,88.1,62.34Z"/><path class="cls-2" d="M82.85,12.88a2,2,0,0,1-1.95-1.95V7.19A3.31,3.31,0,0,0,78.1,3.93a2.74,2.74,0,0,0-.49,0,3.3,3.3,0,0,0-3.3,3.3v3.75a1.95,1.95,0,1,1-3.89,0V7.19A7.2,7.2,0,0,1,77.61,0a6.34,6.34,0,0,1,1.12.09,7.21,7.21,0,0,1,6.07,7.1v3.75A2,2,0,0,1,82.85,12.88Z"/><path class="cls-2" d="M64.87,84.82H16.07a1.95,1.95,0,0,1,0-3.89h48.8a5.56,5.56,0,0,0,5.55-5.55V7.19a7.14,7.14,0,0,1,.8-3.3H19.91A5.44,5.44,0,0,0,19,4a2,2,0,0,1-.69,0L18,3.91l-.39,0a3.3,3.3,0,0,0-3.3,3.3l0,59.5a1.94,1.94,0,0,1-1.94,1.95h0a2,2,0,0,1-1.95-1.94l0-59.5A7.2,7.2,0,0,1,17.66,0a6.35,6.35,0,0,1,1.09.09A8.42,8.42,0,0,1,19.91,0h57.7a1.95,1.95,0,0,1,0,3.89,3.3,3.3,0,0,0-3.3,3.3V75.39A9.45,9.45,0,0,1,64.87,84.82Z"/><path class="cls-2" d="M93.35,35.37a1.94,1.94,0,0,1-1.95-1.95V29.67a7.2,7.2,0,0,1,7.19-7.19,1.95,1.95,0,1,1,0,3.89,3.3,3.3,0,0,0-3.3,3.3v3.75A1.94,1.94,0,0,1,93.35,35.37Z"/><path class="cls-2" d="M55.31,20.6H23.83a1.95,1.95,0,0,1,0-3.89H55.31a1.95,1.95,0,0,1,0,3.89Z"/><path class="cls-2" d="M55.31,35.37H23.83a1.95,1.95,0,1,1,0-3.89H55.31a1.95,1.95,0,1,1,0,3.89Z"/><path class="cls-2" d="M55.31,50.13H23.83a1.95,1.95,0,0,1,0-3.89H55.31a1.95,1.95,0,0,1,0,3.89Z"/><path class="cls-2" d="M82.85,53.35a2,2,0,0,1-1.95-1.95V10.94a1.95,1.95,0,1,1,3.89,0V51.41A2,2,0,0,1,82.85,53.35Z"/><path class="cls-2" d="M93.35,53.35a1.94,1.94,0,0,1-1.95-1.95V32.68a1.95,1.95,0,1,1,3.89,0V51.41A1.94,1.94,0,0,1,93.35,53.35Z"/><path class="cls-2" d="M64.87,84.82H9.44A9.45,9.45,0,0,1,0,75.39v-1.5a1.94,1.94,0,0,1,1.95-1.95H57.38a2,2,0,0,1,1.95,1.95v1.5a5.55,5.55,0,0,0,5.55,5.55,1.95,1.95,0,0,1,0,3.89Zm-61-9a5.56,5.56,0,0,0,5.53,5.1h47.8a9.39,9.39,0,0,1-1.8-5.1Z"/></g></g></svg>