<svg xmlns="http://www.w3.org/2000/svg" viewBox="0 0 82.04 98.34"><defs><style>.cls-1{fill:#5daff9;}.cls-2{fill:#364149;}</style></defs><title>conversion</title><g id="Layer_2" data-name="Layer 2"><g id="Icons"><rect class="cls-1" x="40.46" y="66.46" width="8.52" height="29.93"/><rect class="cls-1" x="71.09" y="50.2" width="9" height="46.19"/><path class="cls-2" d="M71.81,29.36a2,2,0,0,1-.47-.06,2,2,0,0,1-1.42-2.36L74.51,8.42,56,3.83A1.95,1.95,0,0,1,56.91.06l20.42,5a2,2,0,0,1,1.42,2.36l-5,20.42A2,2,0,0,1,71.81,29.36Z"/><path class="cls-2" d="M1.95,54.15a1.95,1.95,0,0,1-1-3.61l6.65-4a1.95,1.95,0,1,1,2,3.33L3,53.87A1.93,1.93,0,0,1,1.95,54.15Z"/><path class="cls-2" d="M18.42,44.21a1.95,1.95,0,0,1-1-3.61L75.86,5.33a1.95,1.95,0,1,1,2,3.33L19.42,43.93A1.93,1.93,0,0,1,18.42,44.21Z"/><path class="cls-2" d="M19.29,98.34H4.49a2,2,0,0,1-1.95-1.95V75.83a2,2,0,0,1,1.95-1.95h14.8a2,2,0,0,1,1.95,1.95V96.39A2,2,0,0,1,19.29,98.34ZM6.44,94.45H17.34V77.77H6.44Z"/><path class="cls-2" d="M49.69,98.34H34.89a2,2,0,0,1-1.95-1.95V61.65a2,2,0,0,1,1.95-1.95h14.8a2,2,0,0,1,1.95,1.95V96.39A2,2,0,0,1,49.69,98.34ZM36.84,94.45H47.74V63.59H36.84Z"/><path class="cls-2" d="M80.09,98.34H65.29a2,2,0,0,1-1.95-1.95v-53a2,2,0,0,1,1.95-1.95h14.8A2,2,0,0,1,82,43.44v53A2,2,0,0,1,80.09,98.34ZM67.24,94.45H78.15V45.38H67.24Z"/></g></g></svg>