<svg id="Icons" xmlns="http://www.w3.org/2000/svg" viewBox="0 0 70.44 76.16"><defs><style>.cls-1{fill:#5daef8;}.cls-2{fill:#364147;}</style></defs><title>design-mockups</title><rect class="cls-1" x="44.56" y="34.05" width="23.91" height="40.14"/><path class="cls-2" d="M837.11,639.18h-66.5a2,2,0,0,1-2-2V565a2,2,0,0,1,2-2h66.5a2,2,0,0,1,2,2v72.22A2,2,0,0,1,837.11,639.18Zm-64.53-3.93h62.57V567H772.57Z" transform="translate(-768.64 -563.02)"/><path class="cls-2" d="M837.11,590.44H777.88a2,2,0,0,1,0-3.93h59.23a2,2,0,0,1,0,3.93Z" transform="translate(-768.64 -563.02)"/><path class="cls-2" d="M803.86,639.18a2,2,0,0,1-2-2V589a2,2,0,0,1,3.93,0v48.2A2,2,0,0,1,803.86,639.18Z" transform="translate(-768.64 -563.02)"/></svg>