<svg xmlns="http://www.w3.org/2000/svg" viewBox="0 0 88.8 92.03"><defs><style>.cls-1{fill:#fff;}</style></defs><title>discovery-white</title><g id="Layer_2" data-name="Layer 2"><g id="Line"><path class="cls-1" d="M2.46,89.56a8.44,8.44,0,0,1,0-11.92L26,54.08C10.22,31.25,26.66,0,54.35,0A34.49,34.49,0,0,1,88.8,34.45c0,25.69-27.26,42.33-50,30.74L14.39,89.57A8.44,8.44,0,0,1,2.46,89.56ZM28.52,57.25,5.29,80.47a4.43,4.43,0,0,0,6.26,6.26L35.2,63.09A34.46,34.46,0,0,1,28.52,57.25Zm10,3.2c20,12.31,46.31-2.12,46.31-26a30.45,30.45,0,0,0-60.91,0c0,8.94,4.27,16.43,6.21,18.38A29.56,29.56,0,0,0,38.49,60.44ZM54.35,59a24.84,24.84,0,0,1-17.56-42.4,2,2,0,1,1,2.83,2.83C26.48,32.52,35.91,55,54.35,55S82.13,32.44,69.08,19.4c-6.65-6.66-12.16-4.34-11.31-7.92A2,2,0,0,1,60.18,10a24.61,24.61,0,0,1,11.73,6.58C87.55,32.2,76.32,59,54.35,59Zm9.71-19.26v-11a2,2,0,1,1,4,0v11A2,2,0,0,1,64.06,39.71Zm-7.65,0v-11a2,2,0,1,1,4,0v11A2,2,0,0,1,56.41,39.71Zm-7.71,0v-11a2,2,0,1,1,4,0v11A2,2,0,0,1,48.7,39.71Zm-7.64,0v-11a2,2,0,1,1,4,0v11A2,2,0,0,1,41.06,39.71Z"/></g></g></svg>