<svg xmlns="http://www.w3.org/2000/svg" width="16" height="16" viewBox="0 0 16 16">
  <metadata><?xpacket begin="﻿" id="W5M0MpCehiHzreSzNTczkc9d"?>
<x:xmpmeta xmlns:x="adobe:ns:meta/" x:xmptk="Adobe XMP Core 5.6-c138 79.159824, 2016/09/14-01:09:01        ">
   <rdf:RDF xmlns:rdf="http://www.w3.org/1999/02/22-rdf-syntax-ns#">
      <rdf:Description rdf:about=""/>
   </rdf:RDF>
</x:xmpmeta>
                                                                                                    
                                                                                                    
                                                                                                    
                                                                                                    
                                                                                                    
                                                                                                    
                                                                                                    
                                                                                                    
                                                                                                    
                                                                                                    
                                                                                                    
                                                                                                    
                                                                                                    
                                                                                                    
                                                                                                    
                                                                                                    
                                                                                                    
                                                                                                    
                                                                                                    
                                                                                                    
                           
<?xpacket end="w"?></metadata>
<defs>
    <style>
      .cls-1 {
        fill: #fe0da9;
        fill-rule: evenodd;
      }
    </style>
  </defs>
  <path class="cls-1" d="M1509.68,700h-7.36a4.328,4.328,0,0,0-4.32,4.323v7.354a4.328,4.328,0,0,0,4.32,4.323h7.36a4.328,4.328,0,0,0,4.32-4.323v-7.354A4.328,4.328,0,0,0,1509.68,700Zm3.03,11.677a3.035,3.035,0,0,1-3.03,3.031h-7.36a3.035,3.035,0,0,1-3.03-3.031v-7.354a3.034,3.034,0,0,1,3.03-3.03h7.36a3.034,3.034,0,0,1,3.03,3.03v7.354Zm-3.13-4.235a3.583,3.583,0,0,0-4.07-3.023,3.588,3.588,0,0,0,.51,7.138,3.635,3.635,0,0,0,.54-0.04A3.593,3.593,0,0,0,1509.58,707.441Zm-3.21,2.8a2.292,2.292,0,0,1-2.61-1.934,2.3,2.3,0,0,1,1.94-2.607,2.157,2.157,0,0,1,.33-0.025A2.3,2.3,0,0,1,1506.37,710.238Zm4.13-6.74a0.655,0.655,0,0,0-.46-0.19,0.632,0.632,0,0,0-.45.19,0.645,0.645,0,0,0,0,.914,0.635,0.635,0,0,0,.45.189,0.647,0.647,0,0,0,.65-0.646A0.651,0.651,0,0,0,1510.5,703.5Z" transform="translate(-1498 -700)"/>
</svg>
