<svg id="Isolation_Mode" data-name="Isolation Mode" xmlns="http://www.w3.org/2000/svg" viewBox="0 0 98.16 98.98"><defs><style>.cls-1{fill:#5daef8;}.cls-2{fill:#364147;}</style></defs><title>launching-and-optimization</title><path class="cls-1" d="M414.73,372.92a32.39,32.39,0,1,0,32.39,32.39A32.39,32.39,0,0,0,414.73,372.92Zm0,55.93a23.53,23.53,0,1,1,23.53-23.53A23.53,23.53,0,0,1,414.73,428.85Z" transform="translate(-356.24 -346.82)"/><path class="cls-2" d="M414.29,414.94a9.38,9.38,0,0,1-6.61-2.67,9.31,9.31,0,0,1,0-13.21,9.4,9.4,0,0,1,6.6-2.75,9.28,9.28,0,0,1,6.6,2.75,9.31,9.31,0,0,1,0,13.22,9.3,9.3,0,0,1-6.55,2.66Zm0-14.73a5.49,5.49,0,0,0-3.85,1.61,5.39,5.39,0,0,0,3.86,9.24h0a5.36,5.36,0,0,0,5.43-5.38,5.33,5.33,0,0,0-1.59-3.84A5.43,5.43,0,0,0,414.28,400.2Z" transform="translate(-356.24 -346.82)"/><path class="cls-2" d="M382.84,375.37a1.94,1.94,0,0,1-1.38-.57l-14.09-14.09a1.94,1.94,0,0,1-.56-1.59L368,348.55a1.94,1.94,0,0,1,3.31-1.16l14.09,14.09a1.94,1.94,0,0,1,.56,1.59l-1.17,10.57a1.94,1.94,0,0,1-1.93,1.73Zm-12.05-16.75,10.56,10.57.62-5.62L371.41,353Z" transform="translate(-356.24 -346.82)"/><path class="cls-2" d="M372.27,376.54a1.94,1.94,0,0,1-1.38-.57l-14.09-14.09a1.94,1.94,0,0,1,1.16-3.31l10.57-1.17a1.94,1.94,0,0,1,1.59.56L384.21,372a1.94,1.94,0,0,1-1.16,3.31l-10.57,1.17ZM362.42,362,373,372.56l5.62-.62L368,361.37Z" transform="translate(-356.24 -346.82)"/><path class="cls-2" d="M413.65,406.18a1.94,1.94,0,0,1-1.38-.57l-44.9-44.9a1.94,1.94,0,0,1,2.75-2.75L415,402.86a1.95,1.95,0,0,1-1.38,3.32Z" transform="translate(-356.24 -346.82)"/><path class="cls-2" d="M414.28,445.8a40.14,40.14,0,1,1,28.38-68.52h0a40.14,40.14,0,0,1-28.38,68.52Zm0-76.39A36.25,36.25,0,1,0,439.91,380,36,36,0,0,0,414.28,369.41Z" transform="translate(-356.24 -346.82)"/><path class="cls-2" d="M414.28,431.19a25.53,25.53,0,0,1-9.2-49.33,1.95,1.95,0,0,1,1.4,3.63,21.63,21.63,0,1,0,12.47-.94,1.95,1.95,0,0,1,.83-3.8,25.52,25.52,0,0,1-5.51,50.44Z" transform="translate(-356.24 -346.82)"/></svg>