<svg xmlns="http://www.w3.org/2000/svg" viewBox="0 0 88.26 100.01"><defs><style>.cls-1{fill:#5daff9;}.cls-2{fill:#364149;}</style></defs><title>on-off-seo</title><g id="Layer_2" data-name="Layer 2"><g id="Isolation_Mode" data-name="Isolation Mode"><rect class="cls-1" x="16.6" y="42.2" width="53.66" height="53.66" rx="5.29" ry="5.29" transform="translate(9.81 -5.27) rotate(7.83)"/><path class="cls-2" d="M81.3,88.2a2,2,0,0,1,0-3.93,3.09,3.09,0,0,0,3.05-3.11L83.7,25a3.09,3.09,0,0,0-3.11-3.05l-56.1.88a3.08,3.08,0,0,0-3.06,3.11,2,2,0,0,1-1.95,2h0a2,2,0,0,1-2-1.95,7,7,0,0,1,6.95-7.08L80.54,18h.07a7,7,0,0,1,7,6.94l.63,56.18a7,7,0,0,1-6.95,7.09Z"/><path class="cls-2" d="M62.73,100a7.13,7.13,0,0,1-.88-.06L6.15,93.27a7,7,0,0,1-6.1-7.84L7,29.69a7,7,0,0,1,7.84-6.08l55.7,6.68a7,7,0,0,1,6.1,7.83L69.69,93.87h0A7,7,0,0,1,62.73,100ZM13.95,27.48a3.08,3.08,0,0,0-3,2.69L4,85.92a3.09,3.09,0,0,0,2.67,3.44L62.33,96a3.07,3.07,0,0,0,3.45-2.66l6.94-55.75a3.08,3.08,0,0,0-2.67-3.44l-55.7-6.68ZM67.74,93.63h0Z"/><path class="cls-2" d="M46.5,76.88h-.24L18.8,73.52a2,2,0,1,1,.48-3.91L46.74,73a2,2,0,0,1-.24,3.92Z"/><path class="cls-2" d="M58,66.55h-.24L20.21,62a2,2,0,1,1,.48-3.91l37.58,4.58A2,2,0,0,1,58,66.55Z"/><path class="cls-2" d="M34.05,51.9h-.24L21.62,50.39a2,2,0,1,1,.48-3.91L34.29,48a2,2,0,0,1-.24,3.92Z"/><path class="cls-2" d="M40.88,28.91a2,2,0,0,1-2-2V13.42C38.92,5.77,44.43,0,51.75,0h.85C60,0,64.26,4.89,64.26,13.42v5.19a2,2,0,0,1-3.93,0V13.42c0-6.38-2.52-9.49-7.72-9.49h-.85c-5.16,0-8.9,4-8.9,9.49V26.94A2,2,0,0,1,40.88,28.91Z"/><path class="cls-2" d="M47.84,49.12h-.5a8.29,8.29,0,0,1-8.42-8.53V22.18a2,2,0,1,1,3.93,0V40.59a4.36,4.36,0,0,0,4.49,4.6h.5c3.43,0,4.16-2.5,4.16-4.6V15a2,2,0,0,1,3.93,0V40.59C55.93,45.77,52.76,49.12,47.84,49.12Z"/></g></g></svg>