<svg xmlns="http://www.w3.org/2000/svg" viewBox="0 0 95.74 70.88"><defs><style>.cls-1{fill:#fff;}</style></defs><title>on-site-optimization-white</title><g id="Layer_2" data-name="Layer 2"><g id="Isolation_Mode" data-name="Isolation Mode"><rect class="cls-1" x="40.93" y="18.37" width="14.5" height="14.5"/><path class="cls-1" d="M74.33,70.88H20.91A1.94,1.94,0,0,1,19,68.93v-67A1.94,1.94,0,0,1,20.91,0H93.79a2,2,0,0,1,1.95,1.95V49.47A21.43,21.43,0,0,1,74.33,70.88ZM22.86,67H74.33A17.53,17.53,0,0,0,91.85,49.47V3.89h-69Z"/><path class="cls-1" d="M20.91,70.88c-7.64,0-13.35-2-17-6.08A16.32,16.32,0,0,1,0,53,1.94,1.94,0,0,1,2,51.24H13.13a1.95,1.95,0,1,1,0,3.89H3.94a12.16,12.16,0,0,0,2.95,7.11c2.84,3.15,7.56,4.75,14,4.75a1.95,1.95,0,0,1,0,3.89Z"/><path class="cls-1" d="M55.67,35.71H35A1.94,1.94,0,0,1,33,33.76V13.06A2,2,0,0,1,35,11.12h20.7a2,2,0,0,1,1.95,1.95v20.7A2,2,0,0,1,55.67,35.71ZM36.92,31.82H53.72V15H36.92Z"/><path class="cls-1" d="M79.73,15H67.52a1.95,1.95,0,0,1,0-3.89H79.73a1.95,1.95,0,0,1,0,3.89Z"/><path class="cls-1" d="M79.73,25.44H67.52a1.95,1.95,0,0,1,0-3.89H79.73a1.95,1.95,0,0,1,0,3.89Z"/><path class="cls-1" d="M79.73,35.87H67.52a1.95,1.95,0,0,1,0-3.89H79.73a1.95,1.95,0,0,1,0,3.89Z"/><path class="cls-1" d="M79.73,56.73H35a1.95,1.95,0,0,1,0-3.89H79.73a1.95,1.95,0,0,1,0,3.89Z"/><path class="cls-1" d="M79.73,46.3H35a1.95,1.95,0,0,1,0-3.89H79.73a1.95,1.95,0,0,1,0,3.89Z"/></g></g></svg>