<svg id="Icons" xmlns="http://www.w3.org/2000/svg" viewBox="0 0 100.54 84.82"><defs><style>.cls-1{fill:#5daef8;}.cls-2{fill:#364147;}</style></defs><title>quality-assurance</title><path class="cls-1" d="M238.05,426.7V365.77H190.4v62h31.8a5,5,0,0,0-.37,1.87c0,3.58,3.84,6.49,8.58,6.49s8.58-2.91,8.58-6.49A5.23,5.23,0,0,0,238.05,426.7Z" transform="translate(-165.69 -353.9)"/><path class="cls-2" d="M253.79,416.24a6.34,6.34,0,0,1-1.12-.09,7.21,7.21,0,0,1-6.08-7.1V405.3a1.95,1.95,0,0,1,3.89,0v3.75a3.31,3.31,0,0,0,2.81,3.26,2.75,2.75,0,0,0,.5,0,3.3,3.3,0,0,0,3.3-3.3V405.3a1.95,1.95,0,0,1,3.89,0v3.75A7.2,7.2,0,0,1,253.79,416.24Z" transform="translate(-165.69 -353.9)"/><path class="cls-2" d="M248.54,366.78a2,2,0,0,1-1.95-1.95v-3.75a3.31,3.31,0,0,0-2.81-3.26,2.74,2.74,0,0,0-.49,0,3.3,3.3,0,0,0-3.3,3.3v3.75a1.95,1.95,0,1,1-3.89,0v-3.75a7.2,7.2,0,0,1,7.19-7.19,6.34,6.34,0,0,1,1.12.09,7.21,7.21,0,0,1,6.07,7.1v3.75A2,2,0,0,1,248.54,366.78Z" transform="translate(-165.69 -353.9)"/><path class="cls-2" d="M230.56,438.72h-48.8a1.95,1.95,0,0,1,0-3.89h48.8a5.56,5.56,0,0,0,5.55-5.55V361.09a7.14,7.14,0,0,1,.8-3.3H185.59a5.44,5.44,0,0,0-.9.09,2,2,0,0,1-.69,0l-.26-.06-.39,0a3.3,3.3,0,0,0-3.3,3.3l0,59.5a1.94,1.94,0,0,1-1.94,1.95h0a2,2,0,0,1-1.95-1.94l0-59.5a7.2,7.2,0,0,1,7.19-7.19,6.35,6.35,0,0,1,1.09.09,8.42,8.42,0,0,1,1.15-.09h57.7a1.95,1.95,0,0,1,0,3.89,3.3,3.3,0,0,0-3.3,3.3v68.19A9.45,9.45,0,0,1,230.56,438.72Z" transform="translate(-165.69 -353.9)"/><path class="cls-2" d="M259,389.26a1.94,1.94,0,0,1-1.95-1.95v-3.75a7.2,7.2,0,0,1,7.19-7.19,1.95,1.95,0,1,1,0,3.89,3.3,3.3,0,0,0-3.3,3.3v3.75A1.94,1.94,0,0,1,259,389.26Z" transform="translate(-165.69 -353.9)"/><path class="cls-2" d="M221,374.5H189.52a1.95,1.95,0,0,1,0-3.89H221a1.95,1.95,0,0,1,0,3.89Z" transform="translate(-165.69 -353.9)"/><path class="cls-2" d="M221,389.26H189.52a1.95,1.95,0,1,1,0-3.89H221a1.95,1.95,0,1,1,0,3.89Z" transform="translate(-165.69 -353.9)"/><path class="cls-2" d="M221,404H189.52a1.95,1.95,0,0,1,0-3.89H221a1.95,1.95,0,0,1,0,3.89Z" transform="translate(-165.69 -353.9)"/><path class="cls-2" d="M248.54,407.25a2,2,0,0,1-1.95-1.95V364.84a1.95,1.95,0,1,1,3.89,0V405.3A2,2,0,0,1,248.54,407.25Z" transform="translate(-165.69 -353.9)"/><path class="cls-2" d="M259,407.25a1.94,1.94,0,0,1-1.95-1.95V386.58a1.95,1.95,0,1,1,3.89,0V405.3A1.94,1.94,0,0,1,259,407.25Z" transform="translate(-165.69 -353.9)"/><path class="cls-2" d="M230.56,438.72H175.13a9.45,9.45,0,0,1-9.44-9.44v-1.5a1.94,1.94,0,0,1,1.95-1.95h55.43a2,2,0,0,1,1.95,1.95v1.5a5.55,5.55,0,0,0,5.55,5.55,1.95,1.95,0,0,1,0,3.89Zm-61-9a5.56,5.56,0,0,0,5.53,5.1h47.8a9.39,9.39,0,0,1-1.8-5.1Z" transform="translate(-165.69 -353.9)"/></svg>