<svg id="Isolation_Mode" data-name="Isolation Mode" xmlns="http://www.w3.org/2000/svg" viewBox="0 0 78.57 78.56"><defs><style>.cls-1{fill:#555;}</style></defs><title>search-list-icon-2</title><path class="cls-1" d="M602.36,211.8c1.14,0,.4.43,14.34-13.51a2,2,0,0,0-2.83-2.83l-12.93,12.93A2,2,0,0,0,602.36,211.8Z" transform="translate(-563.08 -170.52)"/><path class="cls-1" d="M629,180.94a39.13,39.13,0,0,0-26.61-10.41,2,2,0,0,0,0,4,35.24,35.24,0,1,1-9.29,1.24A2,2,0,0,0,592,171.9a39.05,39.05,0,0,0-16,8.78l-2.82,2.83c-22.68,25.22-4.76,65.56,29.17,65.56S654,208.94,631.77,183.8" transform="translate(-563.08 -170.52)"/><path class="cls-1" d="M599.46,182.34c-.7.07-1.42.18-2.11.3a2,2,0,0,0,.36,4s1.72-.25,2.17-.29A2,2,0,0,0,599.46,182.34Z" transform="translate(-563.08 -170.52)"/><path class="cls-1" d="M602,233.41a2,2,0,0,0-.07,4c.72,0,1.27,0,2.14,0a2,2,0,0,0-.24-4C603.08,233.41,602.6,233.41,602,233.41Z" transform="translate(-563.08 -170.52)"/><path class="cls-1" d="M614.13,187a2,2,0,0,0-1.07-2.62c-.66-.28-1.33-.53-2-.75a2,2,0,0,0-1.26,3.8C611,187.78,613.23,189.11,614.13,187Z" transform="translate(-563.08 -170.52)"/><path class="cls-1" d="M615,229.76c-.52.33-1,.64-1.58.92a2,2,0,0,0,.94,3.77,6.47,6.47,0,0,0,2.78-1.31A2,2,0,0,0,615,229.76Z" transform="translate(-563.08 -170.52)"/><path class="cls-1" d="M629.17,201.13a2,2,0,0,0-3.88,1c.15.59.27,1.19.37,1.79a2,2,0,0,0,3.94-.66C629.48,202.52,629.34,201.82,629.17,201.13Z" transform="translate(-563.08 -170.52)"/><path class="cls-1" d="M588.65,233.77c.61.35,1.25.69,1.9,1a2,2,0,0,0,1.71-3.61c-.55-.26-1.1-.55-1.62-.85a2,2,0,1,0-2,3.47Z" transform="translate(-563.08 -170.52)"/><path class="cls-1" d="M581.6,226.79a2,2,0,0,0,1.62-3.17c-.36-.49-.7-1-1-1.52a2,2,0,0,0-3.41,2.09C579.85,225.92,580.37,226.79,581.6,226.79Z" transform="translate(-563.08 -170.52)"/><path class="cls-1" d="M622.05,222.19c-.29.53-.61,1.06-.95,1.57a2,2,0,0,0,1.67,3.1c1.31,0,1.82-1,2.78-2.73a2,2,0,1,0-3.5-1.93Z" transform="translate(-563.08 -170.52)"/><path class="cls-1" d="M622.62,191a2,2,0,0,0-2.93,2.72c.41.44.81.91,1.19,1.39a2,2,0,0,0,3.13-2.49C623.57,192.1,623.1,191.56,622.62,191Z" transform="translate(-563.08 -170.52)"/><path class="cls-1" d="M626,212.8c0,.61,0,1.23-.07,1.83a2,2,0,0,0,2,2.15c2.13,0,2.07-2.2,2.07-4A2,2,0,0,0,626,212.8Z" transform="translate(-563.08 -170.52)"/><path class="cls-1" d="M586.57,187.15c-.58.41-1.15.84-1.7,1.29a2,2,0,0,0,1.27,3.55c1,0,1.19-.49,2.73-1.56A2,2,0,0,0,586.57,187.15Z" transform="translate(-563.08 -170.52)"/><path class="cls-1" d="M574.78,211c0,.71.09,1.43.18,2.13a2,2,0,0,0,4-.48c-.07-.6-.12-1.21-.15-1.82a2,2,0,0,0-2.09-1.91A2,2,0,0,0,574.78,211Z" transform="translate(-563.08 -170.52)"/><path class="cls-1" d="M578.58,202.27c1.66,0,1.87-1.44,2.6-2.92a2,2,0,0,0-3.58-1.77c-.32.64-.61,1.3-.87,2A2,2,0,0,0,578.58,202.27Z" transform="translate(-563.08 -170.52)"/></svg>