<svg id="Isolation_Mode" data-name="Isolation Mode" xmlns="http://www.w3.org/2000/svg" viewBox="0 0 91.72 88.81"><defs><style>.cls-1{fill:#555;}</style></defs><title>search-list-icon-4</title><path class="cls-1" d="M636.66,234.61H566.78a2,2,0,0,1-2-2V222l-8.17-33.69a2,2,0,0,1,3.06-2.06l26.38,18.92L599.87,167a2,2,0,0,1,1.85-1.3h0a2,2,0,0,1,1.85,1.3l13.79,38.21,26.4-18.93a2,2,0,0,1,3.06,2.06l-8.19,33.76v10.56A2,2,0,0,1,636.66,234.61Zm-67.92-3.93h66v-8.9a1.94,1.94,0,0,1,.14-.72l6.91-28.51-24.2,17.36a2,2,0,0,1-3-.93l-12.82-35.53L588.9,209a2,2,0,0,1-3,.93l-24.19-17.34,7,28.76a2,2,0,0,1,.06.46Z" transform="translate(-555.87 -155.74)"/><path class="cls-1" d="M636.66,244.55H566.78a2,2,0,1,1,0-3.93h69.89a2,2,0,0,1,0,3.93Z" transform="translate(-555.87 -155.74)"/><path class="cls-1" d="M603,159.68H600.5a2,2,0,1,1,0-3.93H603a2,2,0,0,1,0,3.93Z" transform="translate(-555.87 -155.74)"/><path class="cls-1" d="M560.3,181.73h-2.47a2,2,0,1,1,0-3.93h2.47a2,2,0,0,1,0,3.93Z" transform="translate(-555.87 -155.74)"/><path class="cls-1" d="M645.62,181.73h-2.47a2,2,0,0,1,0-3.93h2.47a2,2,0,0,1,0,3.93Z" transform="translate(-555.87 -155.74)"/></svg>