<svg id="Icons" xmlns="http://www.w3.org/2000/svg" viewBox="0 0 73.18 95.82"><defs><style>.cls-1{fill:#555;}</style></defs><title>search-list-icon-3</title><path class="cls-1" d="M809.07,647.13a2,2,0,0,1-1.79-1.15l-9.4-20.7a2,2,0,1,1,3.58-1.63L808.89,640l3.36-9a2,2,0,0,1,2.53-1.15l9,3.36L817,618.41a2,2,0,1,1,3.58-1.63L829.31,636a2,2,0,0,1-2.48,2.66l-11.58-4.34-4.34,11.58a2,2,0,0,1-1.78,1.28Z" transform="translate(-756.3 -551.31)"/><path class="cls-1" d="M776.7,647.13h-.07a2,2,0,0,1-1.78-1.28l-4.34-11.58L759,638.61a2,2,0,0,1-2.48-2.65l8.71-19.19a2,2,0,0,1,3.58,1.63L762,633.26l9-3.36a2,2,0,0,1,2.53,1.15l3.36,9,7.44-16.37a2,2,0,1,1,3.58,1.63l-9.4,20.7A2,2,0,0,1,776.7,647.13Z" transform="translate(-756.3 -551.31)"/><path class="cls-1" d="M792.88,602h-.06a17.16,17.16,0,1,1,15.29-25,17.08,17.08,0,0,1-1.2,17.78h0A17,17,0,0,1,792.88,602Zm0-30.38a13.22,13.22,0,0,0-.06,26.44h0a13.14,13.14,0,0,0,10.81-5.6,13.24,13.24,0,0,0-10.8-20.85Zm12.41,22h0Z" transform="translate(-756.3 -551.31)"/><path class="cls-1" d="M792.89,618.43a8.69,8.69,0,0,1-6.84-3.18c-1.2-1.21-2-2-4-2a5.09,5.09,0,0,0-1.36.19,8.9,8.9,0,0,1-11.17-8.19,5,5,0,0,0-3.2-4.42,8.88,8.88,0,0,1-5.75-8.36,8.68,8.68,0,0,1,1.39-4.78,4.89,4.89,0,0,0,.87-2.82,4.82,4.82,0,0,0-.87-2.82,8.64,8.64,0,0,1-1.39-4.78,8.89,8.89,0,0,1,5.74-8.37,5,5,0,0,0,3.21-4.4,8.94,8.94,0,0,1,8.92-8.49,9.75,9.75,0,0,1,1.64.2c2.29.4,4.18.53,5.88-1.57a8.93,8.93,0,0,1,13.92,0c1.7,2.09,3.58,2,5.86,1.57a10.18,10.18,0,0,1,1.65-.19,8.92,8.92,0,0,1,8.92,8.49,5,5,0,0,0,3.21,4.4,9,9,0,0,1,4.31,13.23,5,5,0,0,0,0,5.45,8.93,8.93,0,0,1-4.3,13.24,5,5,0,0,0-2.25,1.74,5.38,5.38,0,0,0-1,2.93,8.45,8.45,0,0,1-2.29,5.32c-3.07,3.34-6.34,3-8.74,2.67s-3.7-.44-5.38,1.63A9,9,0,0,1,792.89,618.43ZM782,609.31a8.67,8.67,0,0,1,6.82,3.17c1.2,1.21,2,2,4,2a5,5,0,0,0,3.9-1.86c3-3.76,6.43-3.36,8.91-3.06,2.21.27,3.67.44,5.37-1.41a4.65,4.65,0,0,0,1.29-3.14,9.19,9.19,0,0,1,1.71-4.76,8.93,8.93,0,0,1,4-3.1,5,5,0,0,0,2.41-7.41,8.94,8.94,0,0,1,0-9.75,5,5,0,0,0-2.42-7.41,9,9,0,0,1-5.74-7.86,5,5,0,0,0-5-4.77,8.76,8.76,0,0,0-1,.14c-2.2.38-6.3,1.08-9.59-3a5,5,0,0,0-7.79,0c-3.29,4.08-7.57,3.34-9.62,3a8.66,8.66,0,0,0-1-.14,5,5,0,0,0-5,4.75,8.89,8.89,0,0,1-5.74,7.88,5,5,0,0,0-3.2,4.69,4.81,4.81,0,0,0,.87,2.82,8.89,8.89,0,0,1,0,9.55,4.89,4.89,0,0,0-.87,2.82,5,5,0,0,0,3.21,4.68,8.9,8.9,0,0,1,5.73,7.9,5,5,0,0,0,6.33,4.56A8.93,8.93,0,0,1,782,609.31Z" transform="translate(-756.3 -551.31)"/></svg>