<svg id="Icons" xmlns="http://www.w3.org/2000/svg" viewBox="0 0 71.78 95.49"><defs><style>.cls-1{fill:#555;}</style></defs><title>search-list-icon-1</title><path class="cls-1" d="M608.47,632.73q-1,0-1.9-.07c-10.46-.79-17-7.93-18.71-10.09a1.94,1.94,0,1,1,3-2.44c1.5,1.86,7.07,8,16,8.65a21.66,21.66,0,0,0,8.2-1,5.89,5.89,0,0,0,3.88-4.32c.21-.91.42-1.77.62-2.59a63.27,63.27,0,0,0,2.08-13,111.4,111.4,0,0,0-2.3-29.94,1.94,1.94,0,1,1,3.8-.82,115.3,115.3,0,0,1,2.38,31,67.31,67.31,0,0,1-2.19,13.67c-.2.81-.4,1.65-.61,2.56a9.79,9.79,0,0,1-6.5,7.15A25.71,25.71,0,0,1,608.47,632.73Z" transform="translate(-558.79 -544.8)"/><path class="cls-1" d="M579.53,606.7h0a16.59,16.59,0,0,1-10.63-3.75c-4.41-3.76-7.55-10.8-4.69-16.42.38-.73,2.44-4.42,6.51-5.24s8.42,1.47,11.39,5.62l.2-.89A9.91,9.91,0,0,1,594,578.54a37.34,37.34,0,0,0,7.56.83A38.42,38.42,0,0,0,621.19,574a1.95,1.95,0,1,1,2,3.35,41.85,41.85,0,0,1-21.62,5.89,41.28,41.28,0,0,1-8.35-.92,6,6,0,0,0-7.1,4.52L584.71,593a1.95,1.95,0,0,1-3.74.2c-2-5.86-6.4-8.71-9.49-8.09-2.36.48-3.67,2.92-3.81,3.2-1.89,3.71.42,8.86,3.75,11.7a12.69,12.69,0,0,0,8.12,2.82,1.95,1.95,0,0,1,0,3.89Z" transform="translate(-558.79 -544.8)"/><path class="cls-1" d="M563.13,590.29a2,2,0,0,1-1.8-1.21c-1.51-3.69-4.59-13.4-.48-23.94a31.37,31.37,0,0,1,8.5-12c13-11.32,34.13-10,48.28-2.78A47.59,47.59,0,0,1,630,559.46a2,2,0,0,1,.55,1.57,27.43,27.43,0,0,1-7.15,15.8,1.95,1.95,0,1,1-2.86-2.64,23.5,23.5,0,0,0,6-12.66,43.58,43.58,0,0,0-10.72-7.71c-13-6.59-32.26-7.94-44,2.25a27.8,27.8,0,0,0-7.43,10.49c-3.59,9.23-.88,17.8.46,21.05a1.95,1.95,0,0,1-1.8,2.68Z" transform="translate(-558.79 -544.8)"/><path class="cls-1" d="M569.69,628a2,2,0,0,1-1.95-1.95V601.94a1.95,1.95,0,1,1,3.89,0v24.13A2,2,0,0,1,569.69,628Z" transform="translate(-558.79 -544.8)"/><path class="cls-1" d="M604.28,640.29a2,2,0,0,1-1.95-1.95v-7.58a1.95,1.95,0,1,1,3.89,0v7.58A2,2,0,0,1,604.28,640.29Z" transform="translate(-558.79 -544.8)"/></svg>