<svg xmlns="http://www.w3.org/2000/svg" viewBox="0 0 76.32 94.43"><defs><style>.cls-1{fill:#5daff9;}.cls-2{fill:#364149;}</style></defs><title>seo-audit</title><g id="Layer_2" data-name="Layer 2"><g id="Icons"><rect class="cls-1" x="12.07" y="40.86" width="45.03" height="38.67"/><path class="cls-2" d="M70.1,94.43H6.22A6.23,6.23,0,0,1,0,88.21v-82A6.23,6.23,0,0,1,6.22,0H51.69a5.68,5.68,0,0,1,4,1.67L74.65,20.59a5.68,5.68,0,0,1,1.67,4V88.21A6.23,6.23,0,0,1,70.1,94.43ZM6.22,3.89A2.33,2.33,0,0,0,3.89,6.22v82a2.33,2.33,0,0,0,2.33,2.33H70.1a2.33,2.33,0,0,0,2.33-2.33V24.63a1.81,1.81,0,0,0-.53-1.29L53,4.42a1.81,1.81,0,0,0-1.29-.53Z"/><path class="cls-2" d="M72.81,25h-12c-4.88,0-9.49-4.44-9.49-9.15v-12A2.57,2.57,0,0,1,53,1.48a2.85,2.85,0,0,1,3.1.53L74.25,20.19A3.27,3.27,0,0,1,75,23.57,2.29,2.29,0,0,1,72.81,25Zm-1.32-2.08h0ZM55.2,6.64v9.23c0,2.6,2.83,5.26,5.6,5.26h8.89Z"/><path class="cls-2" d="M48.73,49.34H14a1.95,1.95,0,0,1,0-3.89H48.73a1.95,1.95,0,0,1,0,3.89Z"/><path class="cls-2" d="M62.31,64.43H14a1.95,1.95,0,0,1,0-3.89H62.31a1.95,1.95,0,0,1,0,3.89Z"/><path class="cls-2" d="M62.31,79.52H14a1.95,1.95,0,0,1,0-3.89H62.31a1.95,1.95,0,0,1,0,3.89Z"/><path class="cls-2" d="M32.13,35.51H14a2,2,0,0,1-1.95-1.95V15.46A2,2,0,0,1,14,13.51H32.13a2,2,0,0,1,1.95,1.95V33.56A2,2,0,0,1,32.13,35.51ZM16,31.62H30.18V17.4H16Z"/></g></g></svg>