<svg id="Icons" xmlns="http://www.w3.org/2000/svg" viewBox="0 0 91 94.14"><defs><style>.cls-1{fill:#5daef8;}.cls-2{fill:#364148;}</style></defs><title>service-icon-1</title><path class="cls-1" d="M583.9,412.62A28.66,28.66,0,1,1,612.56,384,28.69,28.69,0,0,1,583.9,412.62Zm0-51.09A22.43,22.43,0,1,0,606.33,384,22.46,22.46,0,0,0,583.9,361.53Z" transform="translate(-549.18 -349.24)"/><path class="cls-2" d="M632,443.38a8.12,8.12,0,0,1-5.79-2.39L597.3,412.07a1.94,1.94,0,0,1,.36-3,24.56,24.56,0,0,0,8.17-8.17,2,2,0,0,1,1.43-.92,2,2,0,0,1,1.61.56l28.92,28.92a8.18,8.18,0,0,1-5.79,14ZM601.72,411,629,438.24a4.41,4.41,0,0,0,6.07,0,4.31,4.31,0,0,0,0-6.07l-27.25-27.25A28.49,28.49,0,0,1,601.72,411Z" transform="translate(-549.18 -349.24)"/><path class="cls-2" d="M582.61,416.1h0A33.44,33.44,0,1,1,600,411.2,33.47,33.47,0,0,1,582.61,416.1Zm0-63a29.53,29.53,0,1,0,29.54,29.54A29.57,29.57,0,0,0,582.61,353.13Z" transform="translate(-549.18 -349.24)"/><path class="cls-2" d="M582.4,404.61a22.43,22.43,0,0,1-5.27-44.24,1.94,1.94,0,1,1,.9,3.78,18.54,18.54,0,1,0,17.48,4.91,1.94,1.94,0,0,1,2.75-2.75,22.44,22.44,0,0,1-15.86,38.3Z" transform="translate(-549.18 -349.24)"/></svg>