<svg xmlns="http://www.w3.org/2000/svg" viewBox="0 0 98.16 98.98"><defs><style>.cls-1{fill:#5daef8;}.cls-2{fill:#364147;}</style></defs><title>strategy</title><g id="Layer_2" data-name="Layer 2"><g id="Isolation_Mode" data-name="Isolation Mode"><path class="cls-1" d="M58.5,26.1A32.39,32.39,0,1,0,90.89,58.49,32.39,32.39,0,0,0,58.5,26.1ZM58.5,82A23.53,23.53,0,1,1,82,58.49,23.53,23.53,0,0,1,58.5,82Z"/><path class="cls-2" d="M58.05,68.12a9.38,9.38,0,0,1-6.61-2.67,9.31,9.31,0,0,1,0-13.21A9.4,9.4,0,0,1,58,49.49a9.28,9.28,0,0,1,6.6,2.75,9.31,9.31,0,0,1,0,13.22,9.3,9.3,0,0,1-6.55,2.66Zm0-14.73A5.49,5.49,0,0,0,54.19,55a5.39,5.39,0,0,0,3.86,9.24h0a5.36,5.36,0,0,0,5.43-5.38A5.33,5.33,0,0,0,61.91,55,5.43,5.43,0,0,0,58,53.38Z"/><path class="cls-2" d="M26.6,28.54A1.94,1.94,0,0,1,25.22,28L11.14,13.89a1.94,1.94,0,0,1-.56-1.59L11.75,1.73A1.94,1.94,0,0,1,15.06.57L29.15,14.66a1.94,1.94,0,0,1,.56,1.59L28.53,26.81a1.94,1.94,0,0,1-1.93,1.73ZM14.55,11.8,25.11,22.36l.62-5.62L15.17,6.18Z"/><path class="cls-2" d="M16,29.72a1.94,1.94,0,0,1-1.38-.57L.57,15.06a1.94,1.94,0,0,1,1.16-3.31L12.3,10.58a1.94,1.94,0,0,1,1.59.56L28,25.22a1.94,1.94,0,0,1-1.16,3.31L16.25,29.71ZM6.18,15.17,16.75,25.74l5.62-.62L11.8,14.55Z"/><path class="cls-2" d="M57.42,59.36A1.94,1.94,0,0,1,56,58.79l-44.9-44.9a1.94,1.94,0,0,1,2.75-2.75L58.79,56a1.95,1.95,0,0,1-1.38,3.32Z"/><path class="cls-2" d="M58,99A40.14,40.14,0,1,1,86.42,30.46h0A40.14,40.14,0,0,1,58,99Zm0-76.39A36.25,36.25,0,1,0,83.67,33.21,36,36,0,0,0,58,22.59Z"/><path class="cls-2" d="M58,84.37A25.53,25.53,0,0,1,48.85,35a1.95,1.95,0,0,1,1.4,3.63,21.63,21.63,0,1,0,12.47-.94,1.95,1.95,0,0,1,.83-3.8A25.52,25.52,0,0,1,58,84.37Z"/></g></g></svg>