<svg id="Layer_1" data-name="Layer 1" xmlns="http://www.w3.org/2000/svg" viewBox="0 0 472.8 384"><defs><style>.cls-1{fill:#fff;}</style></defs><title>twitter-w</title><path class="cls-1" d="M443.8,159.7c.3,4.2.3,8.4.3,12.6,0,128.1-97.5,275.7-275.7,275.7A273.82,273.82,0,0,1,19.6,404.5,200.34,200.34,0,0,0,43,405.7a194.06,194.06,0,0,0,120.3-41.4,97.07,97.07,0,0,1-90.6-67.2A122.12,122.12,0,0,0,91,298.6a102.44,102.44,0,0,0,25.5-3.3,96.91,96.91,0,0,1-77.7-95.1V199a97.6,97.6,0,0,0,43.8,12.3,97,97,0,0,1-30-129.6A275.43,275.43,0,0,0,252.4,183.1a109.37,109.37,0,0,1-2.4-22.2A97,97,0,0,1,417.7,94.6a190.76,190.76,0,0,0,61.5-23.4,96.64,96.64,0,0,1-42.6,53.4,194.27,194.27,0,0,0,55.8-15,208.32,208.32,0,0,1-48.6,50.1Z" transform="translate(-19.6 -64)"/></svg>