<svg xmlns="http://www.w3.org/2000/svg" viewBox="0 0 95.35 88.26"><defs><style>.cls-1{fill:#5daff9;}.cls-2{fill:#364149;}</style></defs><title>website</title><g id="Layer_2" data-name="Layer 2"><g id="Icons"><rect class="cls-1" x="12.34" y="59.46" width="81.07" height="10.39"/><path class="cls-2" d="M33.82,88.26c-1,0-1.94-.7-2.15-2.29a11.73,11.73,0,0,0,2.51-7.27V69.36c1.72-2,3.89-.76,3.89.94V78.7a15.6,15.6,0,0,1-2.63,8.69A2,2,0,0,1,33.82,88.26Z"/><path class="cls-2" d="M61.42,88.26a1.94,1.94,0,0,1-1.62-.87,15.6,15.6,0,0,1-2.63-8.69V69.36c1.72-2,3.89-.76,3.89.94V80.9A6.1,6.1,0,0,0,62.84,85a1.95,1.95,0,0,1-1.42,3.27Z"/><path class="cls-2" d="M95.35,71.79H0V5.74A5.74,5.74,0,0,1,5.74,0H89.61a5.74,5.74,0,0,1,5.74,5.74ZM3.89,67.9H91.46V5.74a1.85,1.85,0,0,0-1.85-1.85H5.74A1.85,1.85,0,0,0,3.89,5.74Z"/><path class="cls-2" d="M76.9,20.59H15.5c-2-1.72-.76-3.89.94-3.89h61.4C79.78,18.41,78.59,20.59,76.9,20.59Z"/><path class="cls-2" d="M62.13,30.94H50.36c-2-1.72-.76-3.89.94-3.89H63.06C65,28.77,63.82,30.94,62.13,30.94Z"/><path class="cls-2" d="M35.72,30.94H15.5c-2-1.72-.76-3.89.94-3.89H36.65C38.6,28.77,37.41,30.94,35.72,30.94Z"/><path class="cls-2" d="M80.64,61.41H1c-2-1.72-.76-3.89.94-3.89H81.57C83.53,59.23,82.34,61.41,80.64,61.41Z"/><path class="cls-2" d="M70.84,88.26H23.58c-2-1.72-.76-3.89.94-3.89H71.77C73.72,86.08,72.53,88.26,70.84,88.26Z"/></g></g></svg>