<svg id="Isolation_Mode" data-name="Isolation Mode" xmlns="http://www.w3.org/2000/svg" viewBox="0 0 72.45 63.43"><defs><style>.cls-1{fill:#777;}</style></defs><title>category</title><path class="cls-1" d="M58.82,25.67H3.39a2,2,0,0,1-2-2V2a2,2,0,0,1,2-2H58.82a2,2,0,0,1,1.33.52l11.7,10.94a2,2,0,0,1,.09,2.76l-.09.09L60.15,25.15A1.94,1.94,0,0,1,58.82,25.67ZM5.33,21.78H58l9.61-8.94L58,3.9H5.34Z" transform="translate(0 0.05)"/><path class="cls-1" d="M69.09,63.38H13.66a1.94,1.94,0,0,1-1.33-.52L.62,52a2,2,0,0,1-.09-2.8l.09-.09L12.33,38.23a1.94,1.94,0,0,1,1.33-.52H69.09a1.94,1.94,0,0,1,2,1.88v.05h0v21.8A2,2,0,0,1,69.09,63.38ZM14.42,59.49H67.14V41.62H14.42L4.81,50.56Z" transform="translate(0 0.05)"/></svg>