<svg id="Isolation_Mode" data-name="Isolation Mode" xmlns="http://www.w3.org/2000/svg" viewBox="0 0 72.47 63.38"><defs><style>.cls-1{fill:#fff;}</style></defs><title>category-white</title><path class="cls-1" d="M58.81,25.66H3.38a2,2,0,0,1-2-2V1.94a2,2,0,0,1,2-2H58.81a2,2,0,0,1,1.33.52L71.84,11.4a2,2,0,0,1,.09,2.76l-.09.09L60.14,25.14A1.94,1.94,0,0,1,58.81,25.66ZM5.32,21.77H58l9.61-8.94L58,3.89H5.33Z" transform="translate(0.01 0.01)"/><path class="cls-1" d="M69.08,63.37H13.65a1.94,1.94,0,0,1-1.33-.52L.61,52A2,2,0,0,1,.52,49.2l.09-.09L12.32,38.22a1.94,1.94,0,0,1,1.33-.52H69.08a1.94,1.94,0,0,1,2,1.93s0,0,0,0V61.43A2,2,0,0,1,69.08,63.37ZM14.41,59.48H67.13V41.61H14.41L4.8,50.55Z" transform="translate(0.01 0.01)"/></svg>