<svg id="Isolation_Mode" data-name="Isolation Mode" xmlns="http://www.w3.org/2000/svg" viewBox="0 0 48.61 46.65"><defs><style>.cls-1{fill:#777;}</style></defs><title>comment</title><path class="cls-1" d="M15,46.65a2,2,0,0,1-2-2V36.72A19.48,19.48,0,0,1,0,18.81,19,19,0,0,1,19.19,0H29.46a19.15,19.15,0,0,1,0,38.3H25.27l-9,7.86A2,2,0,0,1,15,46.65ZM19.2,3.93A15.09,15.09,0,0,0,4,18.84C4,26.41,9.88,32,15.46,33.37a2,2,0,0,1,1.49,1.91v5.07l6.29-5.5a2,2,0,0,1,1.29-.49h4.92a15.22,15.22,0,0,0,0-30.43Z" transform="translate(0 0)"/></svg>