<svg id="Isolation_Mode" data-name="Isolation Mode" xmlns="http://www.w3.org/2000/svg" viewBox="0 0 48.38 46.65"><defs><style>.cls-1{fill:#cde8ff;}</style></defs><title>comment-white</title><path class="cls-1" d="M234.8,597.42a2,2,0,0,1-2-2v-7.93a19.48,19.48,0,0,1-13-17.91A19,19,0,0,1,239,550.77h10.26a19.15,19.15,0,0,1,0,38.3h-4.19l-9,7.86A2,2,0,0,1,234.8,597.42ZM239,554.7a15.09,15.09,0,0,0-15.24,14.91c0,7.57,5.92,13.14,11.5,14.53a2,2,0,0,1,1.49,1.91v5.07l6.29-5.5a2,2,0,0,1,1.29-.49h4.92a15.22,15.22,0,0,0,0-30.43Z" transform="translate(-219.85 -550.77)"/></svg>