<svg id="Layer_1" data-name="Layer 1" xmlns="http://www.w3.org/2000/svg" viewBox="0 0 17 18"><defs><style>.cls-1{fill:#fff;}</style></defs><title>date</title><path id="Forma_1" data-name="Forma 1" class="cls-1" d="M16.7,1.2H14.58V.3a.3.3,0,0,0-.3-.3H12.15a.3.3,0,0,0-.3.3v.9H5.17V.3a.3.3,0,0,0-.3-.3H2.75a.3.3,0,0,0-.3.3v.9H.3a.3.3,0,0,0-.3.3V17.7a.3.3,0,0,0,.3.3H16.7a.3.3,0,0,0,.3-.3V1.5A.3.3,0,0,0,16.7,1.2ZM12.45.6H14V2.4H12.45ZM3,.6H4.56V2.4H3ZM.61,1.8H2.43v.9a.3.3,0,0,0,.3.3H4.86a.3.3,0,0,0,.3-.3V1.8h6.68v.9a.3.3,0,0,0,.3.3h2.13a.3.3,0,0,0,.3-.3V1.8h1.82V4.5H.61V1.8Zm0,15.6V5.1H16.4V17.4H.61ZM10.93,6.9H2.73v8.7H14.27V6.9H10.93Zm-2.12.6h2.12V9.6H8.8V7.5Zm2.12,4.8H8.8V10.2h2.12v2.1ZM6.08,10.2H8.2v2.1H6.08Zm0-2.7H8.2V9.6H6.08Zm-2.73,0H5.47V9.6H3.34Zm0,2.7H5.47v2.1H3.34ZM5.47,15H3.34V12.9H5.47ZM8.2,15H6.08V12.9H8.2Zm2.73,0H8.8V12.9h2.12V15Zm2.73,0H11.54V12.9h2.13Zm0-2.7H11.54V10.2h2.13Zm0-4.8V9.6H11.54V7.5Z" transform="translate(0 0)"/></svg>