<svg id="Isolation_Mode" data-name="Isolation Mode" xmlns="http://www.w3.org/2000/svg" viewBox="0 0 48.6 46.65"><defs><style>.cls-1{fill:#fff;}</style></defs><title>date-white</title><path class="cls-1" d="M14.95,46.65a2,2,0,0,1-2-2V36.72a19.48,19.48,0,0,1-13-17.91A19,19,0,0,1,19.14,0H29.41a19.15,19.15,0,0,1,0,38.3H25.22l-9,7.86A2,2,0,0,1,14.95,46.65Zm4.2-42.72A15.09,15.09,0,0,0,3.91,18.84c0,7.57,5.92,13.14,11.5,14.53a2,2,0,0,1,1.49,1.91v5.07l6.29-5.5a2,2,0,0,1,1.29-.49H29.4a15.22,15.22,0,0,0,0-30.43Z" transform="translate(0.05 0)"/></svg>