<svg id="Icons" xmlns="http://www.w3.org/2000/svg" viewBox="0 0 76.62 97.92"><defs><style>.cls-1{fill:#777;}</style></defs><title>editor</title><path class="cls-1" d="M20.24,35a2,2,0,0,1-1.87-1.42l-.25-.18a6.8,6.8,0,0,1-3-4.52c-1.08-4.47.21-6.44,1.47-7.3a3.83,3.83,0,0,1,4.38.13,2,2,0,0,1-2.23,3.19A5.74,5.74,0,0,0,18.9,28a3,3,0,0,0,1.43,2.24,3.78,3.78,0,0,1,1.79,2.46A2,2,0,0,1,20.59,35,1.93,1.93,0,0,1,20.24,35Z" transform="translate(0 -0.03)"/><path class="cls-1" d="M56.77,35a2,2,0,0,1-.37,0,1.94,1.94,0,0,1-1.54-2.27h0a3.77,3.77,0,0,1,1.79-2.46,3,3,0,0,0,1.43-2.24A5.81,5.81,0,0,0,58.25,25a2,2,0,0,1-2.66-.52A1.9,1.9,0,0,1,56,21.82l0,0a3.83,3.83,0,0,1,4.38-.13c1.26.86,2.55,2.83,1.47,7.3a6.81,6.81,0,0,1-3,4.52l-.25.17A2,2,0,0,1,56.77,35Z" transform="translate(0 -0.03)"/><path class="cls-1" d="M21.39,27.88a2,2,0,0,1-1.64-.9,15.92,15.92,0,0,1-1.64-13.57C21.19,4.41,27.86,0,38.5,0,49.4,0,56.14,4.63,59.11,14.1a16.44,16.44,0,0,1-1.38,12.75,1.87,1.87,0,0,1-1.74,1,2,2,0,0,1-1.74-1.12c-.31-.67-.63-1.24-1-1.82l-.36-.65a34.3,34.3,0,0,1-16.75-.42,48.5,48.5,0,0,1-4.58-1.66c-3-1.21-4.81-1.87-6.07-1.14s-1.91,2.41-2.22,5.08a2,2,0,0,1-1.93,1.72Zm32-7.58a3.13,3.13,0,0,1,2.31,1,12.07,12.07,0,0,0-.26-6.06C53,7.5,47.64,3.89,38.54,3.89c-8.89,0-14.2,3.42-16.71,10.75a11.79,11.79,0,0,0-.52,5.31,6.81,6.81,0,0,1,2.3-2.27c3-1.7,6.12-.44,9.45.9,1.34.54,2.73,1.09,4.24,1.54a30.7,30.7,0,0,0,15.39.23,3.11,3.11,0,0,1,.67-.07Z" transform="translate(0 -0.03)"/><path class="cls-1" d="M38.5,55c-9.81,0-18.3-9.09-20.18-21.61a2,2,0,0,1,3.85-.58c1.6,10.6,8.47,18.3,16.34,18.3s14.74-7.69,16.34-18.3a1.95,1.95,0,0,1,3.85.58C56.8,45.88,48.32,55,38.5,55Z" transform="translate(0 -0.03)"/><path class="cls-1" d="M38.5,98A49.27,49.27,0,0,1,.39,80.5,1.94,1.94,0,0,1,0,79.21,29.21,29.21,0,0,1,24.61,52.4l.39-.07a2,2,0,1,1,1,3.78l-.3.05-.4.07A25.37,25.37,0,0,0,3.94,78.69,46.44,46.44,0,0,0,38.5,94.05,45.08,45.08,0,0,0,72.61,78.71,25.36,25.36,0,0,0,51.28,56.23H51a1.95,1.95,0,0,1,.33-3.88l.51.07H52A29.21,29.21,0,0,1,76.61,79.2a1.94,1.94,0,0,1-.37,1.27A48.06,48.06,0,0,1,38.5,98Z" transform="translate(0 -0.03)"/><path class="cls-1" d="M16.39,91.25a2,2,0,0,1-2-1.95V76.17a1.95,1.95,0,1,1,3.89,0V89.3A2,2,0,0,1,16.39,91.25Z" transform="translate(0 -0.03)"/><path class="cls-1" d="M61.29,89.77a2,2,0,0,1-2-1.95V76.17a1.95,1.95,0,0,1,3.89,0V87.82A2,2,0,0,1,61.29,89.77Z" transform="translate(0 -0.03)"/><path class="cls-1" d="M38.5,98a2,2,0,0,1-2-1.95V63.18a1.95,1.95,0,1,1,3.89,0V96A2,2,0,0,1,38.5,98Z" transform="translate(0 -0.03)"/></svg>