<svg xmlns="http://www.w3.org/2000/svg" viewBox="0 0 87 81"><defs><style>.cls-1{fill:#5dadf8;}.cls-2{fill:#364146;}</style></defs><title>1</title><g id="Layer_2" data-name="Layer 2"><g id="Color"><rect class="cls-1" x="7.64" y="7.76" width="77.36" height="14.25"/></g><g id="Line"><path class="cls-2" d="M85,81H2a2,2,0,0,1-2-2V2A2,2,0,0,1,2,0H85a2,2,0,0,1,2,2V79A2,2,0,0,1,85,81ZM4,77H83V24H4ZM4,20H83V4H4ZM35.71,64.2l11-29.87a2,2,0,0,1,3.75,1.38l-11,29.87A2,2,0,0,1,35.71,64.2Zm20.7-5.44,9.25-9.25-8.36-8.36a2,2,0,0,1,2.83-2.83C70.74,48.94,70.48,48.37,70.48,49.51s.37.45-11.25,12.08A2,2,0,0,1,56.4,58.76ZM26.88,61.59,17.1,51.81a2,2,0,0,1,0-2.83L27.77,38.32a2,2,0,0,1,2.83,2.83L21.35,50.4l8.36,8.36a2,2,0,1,1-2.83,2.83ZM30,13H27a2,2,0,0,1,0-4h3a2,2,0,1,1,0,4ZM16,13H12a2,2,0,0,1,0-4h4a2,2,0,1,1,0,4Z"/></g></g></svg>