<svg xmlns="http://www.w3.org/2000/svg" viewBox="0 0 97.88 69.37"><defs><style>.cls-1{fill:#5dadf8;}.cls-2{fill:#364146;}</style></defs><title>2</title><g id="Layer_2" data-name="Layer 2"><g id="Isolation_Mode" data-name="Isolation Mode"><polygon class="cls-1" points="4.76 67.43 21.53 46.57 78.98 46.57 95.56 62.24 95.93 67.43 4.76 67.43"/><path class="cls-2" d="M95.93,69.37h-94A2,2,0,0,1,0,67.43V1.95A2,2,0,0,1,1.95,0h94a2,2,0,0,1,1.95,1.95V14.29a1.95,1.95,0,1,1-3.89,0V3.89H3.89V65.48H94V24.59a1.95,1.95,0,1,1,3.89,0V67.43A2,2,0,0,1,95.93,69.37Z"/><path class="cls-2" d="M65,69.37a1.94,1.94,0,0,1-1.48-.69L27.9,26.61,3.38,53.37A1.95,1.95,0,1,1,.51,50.74l26-28.39A2,2,0,0,1,28,21.72h0a1.94,1.94,0,0,1,1.45.69L66.53,66.17A1.95,1.95,0,0,1,65,69.37Z"/><path class="cls-2" d="M95.93,65.29a1.94,1.94,0,0,1-1.37-.56L65.06,35.48l-6.67,6.75a1.95,1.95,0,1,1-2.77-2.74l8-8.13A2,2,0,0,1,65,30.78h0a1.94,1.94,0,0,1,1.37.56L97.3,62a1.95,1.95,0,0,1-1.37,3.33Z"/><path class="cls-2" d="M27,41.43H13.89a1.95,1.95,0,0,1,0-3.89H27a1.95,1.95,0,0,1,0,3.89Z"/></g></g></svg>