<svg xmlns="http://www.w3.org/2000/svg" viewBox="0 0 77.18 95.5"><defs><style>.cls-1{fill:#5daef8;}.cls-2{fill:#364147;}</style></defs><title>4</title><g id="Layer_2" data-name="Layer 2"><g id="Icons"><polygon class="cls-1" points="63.77 23.33 63.77 81.23 3.78 81.23 3.78 93.53 63.77 93.53 67.6 93.53 74.05 93.53 74.05 23.33 63.77 23.33"/><path class="cls-2" d="M63.77,83.2H13.41a2,2,0,0,1-2-2V50.11a2,2,0,0,1,2-2H27.26a2,2,0,0,1,0,3.93H15.38V79.26H61.81V52.08H39.47a2,2,0,0,1,0-3.93H63.77a2,2,0,0,1,2,2V81.23A2,2,0,0,1,63.77,83.2Z"/><path class="cls-2" d="M41.53,83.2a2,2,0,0,1-2-2V64.59a2,2,0,0,1,3.93,0V81.23A2,2,0,0,1,41.53,83.2Z"/><path class="cls-2" d="M27.47,83.2a2,2,0,0,1-2-2V64.59a2,2,0,0,1,3.93,0V81.23A2,2,0,0,1,27.47,83.2Z"/><path class="cls-2" d="M70.89,95.5H6.29A6.3,6.3,0,0,1,0,89.21V6.29A6.3,6.3,0,0,1,6.29,0h46a5.81,5.81,0,0,1,4.08,1.69L75.49,20.83a5.74,5.74,0,0,1,1.69,4.08v64.3A6.3,6.3,0,0,1,70.89,95.5ZM6.29,3.93A2.36,2.36,0,0,0,3.93,6.29V89.21a2.36,2.36,0,0,0,2.36,2.36h64.6a2.36,2.36,0,0,0,2.36-2.36V24.91a1.83,1.83,0,0,0-.54-1.3L53.58,4.47a1.85,1.85,0,0,0-1.3-.54Z"/><path class="cls-2" d="M73.63,25.3H61.48c-4.93,0-9.6-4.49-9.6-9.25V3.9a2.6,2.6,0,0,1,1.69-2.4A2.89,2.89,0,0,1,56.7,2L75.08,20.42a3.31,3.31,0,0,1,.72,3.42A2.32,2.32,0,0,1,73.63,25.3ZM72.3,23.2h0ZM55.82,6.72v9.33c0,2.63,2.86,5.31,5.66,5.31h9Z"/><path class="cls-2" d="M35.8,20.43H13.41a2,2,0,0,1,0-3.93H35.8a2,2,0,1,1,0,3.93Z"/><path class="cls-2" d="M49.52,36.25H13.41a2,2,0,0,1,0-3.93H49.52a2,2,0,1,1,0,3.93Z"/></g></g></svg>