<svg xmlns="http://www.w3.org/2000/svg" viewBox="0 0 92.46 84.55"><defs><style>.cls-1{fill:#5daef8;}.cls-2{fill:#364147;}</style></defs><title>2</title><g id="Layer_2" data-name="Layer 2"><g id="Isolation_Mode" data-name="Isolation Mode"><rect class="cls-1" x="21.87" y="29.65" width="21.99" height="31.61"/><path class="cls-2" d="M90.51,84.55H1.95A1.94,1.94,0,0,1,0,82.61V11.43A2,2,0,0,1,1.95,9.49H90.51a2,2,0,0,1,1.95,1.95V82.61A1.94,1.94,0,0,1,90.51,84.55ZM3.89,80.66H88.57V13.38H3.89Z"/><path class="cls-2" d="M77.31,39.48H55.77a1.95,1.95,0,1,1,0-3.89H77.31a1.95,1.95,0,1,1,0,3.89Z"/><path class="cls-2" d="M70.08,51.34H55.77a1.95,1.95,0,0,1,0-3.89H70.08a1.95,1.95,0,0,1,0,3.89Z"/><path class="cls-2" d="M74.38,27.61H55.77a1.95,1.95,0,1,1,0-3.89H74.38a1.95,1.95,0,1,1,0,3.89Z"/><path class="cls-2" d="M73.12,75.06H14.6a1.95,1.95,0,0,1,0-3.89H73.12a1.95,1.95,0,0,1,0,3.89Z"/><path class="cls-2" d="M65.79,63.2h-10a1.95,1.95,0,1,1,0-3.89h10a1.95,1.95,0,0,1,0,3.89Z"/><path class="cls-2" d="M75.81,63.2H73.66a1.95,1.95,0,1,1,0-3.89h2.15a1.95,1.95,0,1,1,0,3.89Z"/><path class="cls-2" d="M90.51,13.38H1.95A2,2,0,0,1,0,11.43V5.73A5.73,5.73,0,0,1,5.73,0h81a5.73,5.73,0,0,1,5.73,5.73v5.71A2,2,0,0,1,90.51,13.38ZM3.89,9.49H88.57V5.73a1.84,1.84,0,0,0-1.84-1.84h-81A1.84,1.84,0,0,0,3.89,5.73Z"/><path class="cls-2" d="M42.39,63.2H16.07a3.42,3.42,0,0,1-3.42-3.42V24a3.42,3.42,0,0,1,3.42-3.42H42.39A3.42,3.42,0,0,1,45.8,24v35.8A3.42,3.42,0,0,1,42.39,63.2ZM16.54,59.31H41.91V24.45H16.54ZM42.39,24.45h0Z"/></g></g></svg>