<svg xmlns="http://www.w3.org/2000/svg" width="48" height="54" viewBox="0 0 48 54">
  <metadata><?xpacket begin="﻿" id="W5M0MpCehiHzreSzNTczkc9d"?>
<x:xmpmeta xmlns:x="adobe:ns:meta/" x:xmptk="Adobe XMP Core 5.6-c138 79.159824, 2016/09/14-01:09:01        ">
   <rdf:RDF xmlns:rdf="http://www.w3.org/1999/02/22-rdf-syntax-ns#">
      <rdf:Description rdf:about=""/>
   </rdf:RDF>
</x:xmpmeta>
                                                                                                    
                                                                                                    
                                                                                                    
                                                                                                    
                                                                                                    
                                                                                                    
                                                                                                    
                                                                                                    
                                                                                                    
                                                                                                    
                                                                                                    
                                                                                                    
                                                                                                    
                                                                                                    
                                                                                                    
                                                                                                    
                                                                                                    
                                                                                                    
                                                                                                    
                                                                                                    
                           
<?xpacket end="w"?></metadata>
<defs>
    <style>
      .cls-1 {
        fill: #5c81fa;
        fill-rule: evenodd;
      }
    </style>
  </defs>
  <path id="Forma_1" data-name="Forma 1" class="cls-1" d="M538.415,904.181H523.887l-5.06-16.123,18.853-5.571a0.918,0.918,0,0,0,.613-0.587,0.892,0.892,0,0,0-.139-0.829,23.14,23.14,0,0,0-23.034-8.491c-0.212.056-.792,0.178-0.983,0.226l-0.244-.794a0.931,0.931,0,0,0-1.156-.608,0.906,0.906,0,0,0-.619,1.133l0.244,0.793c-0.186.063-.633,0.215-0.946,0.344a22.659,22.659,0,0,0-9.637,7.09A22.121,22.121,0,0,0,497,893.232a0.9,0.9,0,0,0,.351.766,0.939,0.939,0,0,0,.842.157l18.858-5.573,4.9,15.6H509.492a0.91,0.91,0,1,0,0,1.819h28.923A0.91,0.91,0,1,0,538.415,904.181Zm-24.636-29.39h0q0.72-.213,1.45-0.374a13.718,13.718,0,0,1,9.34,5.4,19.026,19.026,0,0,1,2.408,3.937l-19.152,5.66a18.735,18.735,0,0,1-.212-4.586,13.3,13.3,0,0,1,4.741-9.555q0.7-.262,1.424-0.478h0Zm22.052,6.343-7.063,2.087a20.69,20.69,0,0,0-2.7-4.477,16.6,16.6,0,0,0-6-4.833A21.31,21.31,0,0,1,535.831,881.134Zm-27.807-3.64a16.113,16.113,0,0,0-2.263,7.252,20.375,20.375,0,0,0,.275,5.193l-7.063,2.087A20.654,20.654,0,0,1,508.024,877.494Zm16.389-14.037h4.448a0.909,0.909,0,1,0,0-1.818h-4.448A0.909,0.909,0,1,0,524.413,863.457Zm19.66-1.818h-4.447a0.909,0.909,0,1,0,0,1.818h4.447A0.909,0.909,0,1,0,544.073,861.639Zm-5.31,4.056a0.94,0.94,0,0,0-1.311,0,0.9,0.9,0,0,0,0,1.285l1.518,1.489a0.941,0.941,0,0,0,1.311,0,0.9,0.9,0,0,0,0-1.286Zm-5.447,2.352v4.14a0.927,0.927,0,0,0,1.854,0v-4.14A0.927,0.927,0,0,0,533.316,868.047Zm-3.593-2.352-1.517,1.488a0.9,0.9,0,0,0,0,1.286,0.941,0.941,0,0,0,1.311,0l1.517-1.489a0.9,0.9,0,0,0,0-1.285A0.94,0.94,0,0,0,529.723,865.7Zm4.521,0.1a3.252,3.252,0,1,0-3.316-3.251A3.287,3.287,0,0,0,534.244,865.8Zm0-4.684a1.433,1.433,0,1,1-1.462,1.433A1.449,1.449,0,0,1,534.244,861.115Zm-4.521-1.714a0.941,0.941,0,0,0,1.311,0,0.9,0.9,0,0,0,0-1.286l-1.517-1.487a0.94,0.94,0,0,0-1.311,0,0.9,0.9,0,0,0,0,1.285Zm4.52-1.443a0.918,0.918,0,0,0,.927-0.909v-4.14a0.927,0.927,0,0,0-1.854,0v4.14A0.918,0.918,0,0,0,534.243,857.958Zm3.865,1.709a0.935,0.935,0,0,0,.655-0.266l1.517-1.488a0.9,0.9,0,0,0,0-1.285,0.94,0.94,0,0,0-1.311,0l-1.518,1.487a0.9,0.9,0,0,0,0,1.286A0.937,0.937,0,0,0,538.108,859.667Z" transform="translate(-497 -852)"/>
</svg>
