<svg xmlns="http://www.w3.org/2000/svg" width="38" height="47" viewBox="0 0 38 47">
  <metadata><?xpacket begin="﻿" id="W5M0MpCehiHzreSzNTczkc9d"?>
<x:xmpmeta xmlns:x="adobe:ns:meta/" x:xmptk="Adobe XMP Core 5.6-c138 79.159824, 2016/09/14-01:09:01        ">
   <rdf:RDF xmlns:rdf="http://www.w3.org/1999/02/22-rdf-syntax-ns#">
      <rdf:Description rdf:about=""/>
   </rdf:RDF>
</x:xmpmeta>
                                                                                                    
                                                                                                    
                                                                                                    
                                                                                                    
                                                                                                    
                                                                                                    
                                                                                                    
                                                                                                    
                                                                                                    
                                                                                                    
                                                                                                    
                                                                                                    
                                                                                                    
                                                                                                    
                                                                                                    
                                                                                                    
                                                                                                    
                                                                                                    
                                                                                                    
                                                                                                    
                           
<?xpacket end="w"?></metadata>
<defs>
    <style>
      .cls-1 {
        fill: #5c81fa;
        fill-rule: evenodd;
      }
    </style>
  </defs>
  <path id="Forma_1" data-name="Forma 1" class="cls-1" d="M812.486,892.012l-1.045-8.661a1.059,1.059,0,1,0-2.1.256l0.9,7.486h-8.263l1.422-11.784a1.059,1.059,0,1,0-2.1-.256l-1.564,12.959c0,0.026-.006.053-0.008,0.08a1.066,1.066,0,0,0,.262.767h0a1.059,1.059,0,0,0,.382.277h0a1.019,1.019,0,0,0,.344.081,0.767,0.767,0,0,0,.083,0h0.9l2.935,10.652h-2.289a1.064,1.064,0,0,0,0,2.127h7.521a1.064,1.064,0,0,0,0-2.127h-2.292l2.937-10.652h0.9a0.73,0.73,0,0,0,.081,0,1.036,1.036,0,0,0,.348-0.081,1.068,1.068,0,0,0,.382-0.277h0a1.077,1.077,0,0,0,.222-0.405,1.064,1.064,0,0,0,.039-0.362A0.7,0.7,0,0,0,812.486,892.012Zm-6.377,9.22L803.9,893.22h4.417Zm18.2-11.936a4.329,4.329,0,1,0-4.31-4.328A4.324,4.324,0,0,0,824.308,889.3Zm0-6.53a2.2,2.2,0,1,1-2.192,2.2A2.2,2.2,0,0,1,824.308,882.766ZM831.94,898.7l-2.38-6.745a1.059,1.059,0,0,0-1-.708h-9.178l-5.01-15.358c-0.713-2.152-1.805-4.788-3.933-6.094a1.032,1.032,0,0,0-.131-0.071,1.044,1.044,0,0,0-.354-0.093,1.063,1.063,0,0,0-.456.065,1.048,1.048,0,0,0-.389.255,1.059,1.059,0,0,0-.206.3,0.965,0.965,0,0,0-.05.136L805.1,882.225a1.059,1.059,0,1,0,2.018.646l3.272-10.315a12.77,12.77,0,0,1,1.972,4l5.247,16.086a1.06,1.06,0,0,0,1.007.732h1.88l2.472,10.5h-1.287a1.064,1.064,0,0,0,0,2.127h5.251a1.064,1.064,0,0,0,0-2.127h-1.287l2.35-9.979,1.948,5.518A1.059,1.059,0,1,0,831.94,898.7Zm-7.632,1.614-1.635-6.94h3.269Zm-18.2-31.847a4.734,4.734,0,1,0-4.713-4.734A4.729,4.729,0,0,0,806.11,868.468Zm0-7.341a2.607,2.607,0,1,1-2.6,2.607A2.6,2.6,0,0,1,806.11,861.127Zm-6.255,15.435-3.792,11.444a1.059,1.059,0,1,1-2.009-.673l3.792-11.443c0.716-2.16,1.812-4.806,3.955-6.108a1.057,1.057,0,0,1,1.448.35l2.214,3.5a1.061,1.061,0,1,1-1.788,1.141l-1.587-2.509A11.8,11.8,0,0,0,799.855,876.562Z" transform="translate(-794 -859)"/>
</svg>
