<svg xmlns="http://www.w3.org/2000/svg" width="41" height="45" viewBox="0 0 41 45">
  <metadata><?xpacket begin="﻿" id="W5M0MpCehiHzreSzNTczkc9d"?>
<x:xmpmeta xmlns:x="adobe:ns:meta/" x:xmptk="Adobe XMP Core 5.6-c138 79.159824, 2016/09/14-01:09:01        ">
   <rdf:RDF xmlns:rdf="http://www.w3.org/1999/02/22-rdf-syntax-ns#">
      <rdf:Description rdf:about=""/>
   </rdf:RDF>
</x:xmpmeta>
                                                                                                    
                                                                                                    
                                                                                                    
                                                                                                    
                                                                                                    
                                                                                                    
                                                                                                    
                                                                                                    
                                                                                                    
                                                                                                    
                                                                                                    
                                                                                                    
                                                                                                    
                                                                                                    
                                                                                                    
                                                                                                    
                                                                                                    
                                                                                                    
                                                                                                    
                                                                                                    
                           
<?xpacket end="w"?></metadata>
<defs>
    <style>
      .cls-1 {
        fill: #5c81fa;
        fill-rule: evenodd;
      }
    </style>
  </defs>
  <path id="Forma_1" data-name="Forma 1" class="cls-1" d="M1125.93,881.98c-0.17-9.6-7.76-16.394-18.76-17.034v-2.8a1.211,1.211,0,0,0-2.42,0v2.76c-11.66.285-19.74,7.351-19.74,17.4a1.187,1.187,0,0,0,1.22,1.159h18.52v15a7.883,7.883,0,0,0,15.75,0,1.211,1.211,0,0,0-2.42,0,5.461,5.461,0,0,1-10.91,0v-15h17.55a0.408,0.408,0,0,0,.05,0,1.193,1.193,0,0,0,1.22-1.159A1.687,1.687,0,0,0,1125.93,881.98Zm-38.46-.827c0.62-8.274,7.84-13.955,18-13.955s17.37,5.676,18,13.955h-36Zm23.05-6.784a1.186,1.186,0,0,1-1.21,1.159h-2.63v2.508a1.216,1.216,0,0,1-2.43,0v-2.508h-2.62a1.16,1.16,0,1,1,0-2.317h2.62V870.7a1.216,1.216,0,0,1,2.43,0v2.513h2.63A1.184,1.184,0,0,1,1110.52,874.369Z" transform="translate(-1085 -861)"/>
</svg>
