<svg xmlns="http://www.w3.org/2000/svg" width="42" height="39.031" viewBox="0 0 42 39.031">
  <metadata><?xpacket begin="﻿" id="W5M0MpCehiHzreSzNTczkc9d"?>
<x:xmpmeta xmlns:x="adobe:ns:meta/" x:xmptk="Adobe XMP Core 5.6-c138 79.159824, 2016/09/14-01:09:01        ">
   <rdf:RDF xmlns:rdf="http://www.w3.org/1999/02/22-rdf-syntax-ns#">
      <rdf:Description rdf:about=""/>
   </rdf:RDF>
</x:xmpmeta>
                                                                                                    
                                                                                                    
                                                                                                    
                                                                                                    
                                                                                                    
                                                                                                    
                                                                                                    
                                                                                                    
                                                                                                    
                                                                                                    
                                                                                                    
                                                                                                    
                                                                                                    
                                                                                                    
                                                                                                    
                                                                                                    
                                                                                                    
                                                                                                    
                                                                                                    
                                                                                                    
                           
<?xpacket end="w"?></metadata>
<defs>
    <style>
      .cls-1 {
        fill: #5c81fa;
        fill-rule: evenodd;
      }
    </style>
  </defs>
  <path class="cls-1" d="M1415.12,878.38l-3.7-2.633a0.934,0.934,0,0,0-1.28.2,0.87,0.87,0,0,0,.2,1.243l3.71,2.633a2.7,2.7,0,0,1,1.12,2.2v19.521a2.626,2.626,0,0,1-2.58,2.673h-33.18a2.626,2.626,0,0,1-2.58-2.673V882.024a2.708,2.708,0,0,1,1.12-2.206l3.75-2.659a0.889,0.889,0,0,0,.2-1.244,0.933,0.933,0,0,0-1.28-.2l-3.74,2.659a4.465,4.465,0,0,0-1.88,3.646v19.521a4.439,4.439,0,0,0,4.41,4.455h33.18a4.439,4.439,0,0,0,4.41-4.455V882.024A4.453,4.453,0,0,0,1415.12,878.38Zm-11.09-7.875-2.51-1.782a9.542,9.542,0,0,0-11.04,0l-2.54,1.8a0.883,0.883,0,0,0-.21,1.245,0.933,0.933,0,0,0,1.28.2l2.54-1.8a7.7,7.7,0,0,1,8.9,0l2.51,1.782a0.937,0.937,0,0,0,1.28-.2A0.882,0.882,0,0,0,1404.03,870.505Zm9.16,12.727a0.918,0.918,0,0,0-1.26-.248l-11.82,7.686a7.539,7.539,0,0,1-8.22,0l-11.82-7.686a0.932,0.932,0,0,0-1.27.248,0.878,0.878,0,0,0,.26,1.235l11.81,7.685a9.4,9.4,0,0,0,10.25,0l11.82-7.685A0.876,0.876,0,0,0,1413.19,883.232Zm-2.58-12.871h-29.22a0.9,0.9,0,0,0-.91.891v13.364a0.91,0.91,0,0,0,1.82,0V872.143h27.4v12.473a0.91,0.91,0,0,0,1.82,0V871.252A0.9,0.9,0,0,0,1410.61,870.361Zm-14.48,8.917c-0.01,0-.19-0.023-0.2-0.023-2.64-.316-2.67-0.87-2.67-0.875,0-.223.97-0.892,2.74-0.892,1.71,0,2.71.631,2.74,0.89a0.925,0.925,0,0,0,1.03.773,0.9,0.9,0,0,0,.79-1c-0.19-1.418-2.1-2.448-4.56-2.448-2.6,0-4.57,1.149-4.57,2.673,0,2.132,3.11,2.5,4.45,2.662l0.19,0.025c2.64,0.317,2.67.871,2.67,0.877,0,0.176-.88.89-2.74,0.89-1.71,0-2.71-.63-2.74-0.889a0.93,0.93,0,0,0-1.03-.773,0.9,0.9,0,0,0-.79,1c0.19,1.419,2.1,2.448,4.56,2.448,2.6,0,4.57-1.149,4.57-2.672C1400.57,879.81,1397.46,879.44,1396.13,879.278Zm-0.13-5.353a0.9,0.9,0,0,0-.91.891v10.691a0.91,0.91,0,0,0,1.82,0V874.816A0.9,0.9,0,0,0,1396,873.925Zm7.3,14.255h-15.52a0.891,0.891,0,1,0,0,1.782h15.52A0.891,0.891,0,1,0,1403.3,888.18Zm3.66-14.255h-3.66a0.891,0.891,0,1,0,0,1.782h3.66A0.891,0.891,0,1,0,1406.96,873.925Zm-18.26,10.691h-3.66a0.891,0.891,0,1,0,0,1.782h3.66A0.891,0.891,0,1,0,1388.7,884.616Z" transform="translate(-1375 -866.969)"/>
</svg>
