<svg xmlns="http://www.w3.org/2000/svg" width="42" height="42" viewBox="0 0 42 42">
  <metadata><?xpacket begin="﻿" id="W5M0MpCehiHzreSzNTczkc9d"?>
<x:xmpmeta xmlns:x="adobe:ns:meta/" x:xmptk="Adobe XMP Core 5.6-c138 79.159824, 2016/09/14-01:09:01        ">
   <rdf:RDF xmlns:rdf="http://www.w3.org/1999/02/22-rdf-syntax-ns#">
      <rdf:Description rdf:about=""/>
   </rdf:RDF>
</x:xmpmeta>
                                                                                                    
                                                                                                    
                                                                                                    
                                                                                                    
                                                                                                    
                                                                                                    
                                                                                                    
                                                                                                    
                                                                                                    
                                                                                                    
                                                                                                    
                                                                                                    
                                                                                                    
                                                                                                    
                                                                                                    
                                                                                                    
                                                                                                    
                                                                                                    
                                                                                                    
                                                                                                    
                           
<?xpacket end="w"?></metadata>
<defs>
    <style>
      .cls-1 {
        fill: #5c81fa;
        fill-rule: evenodd;
      }
    </style>
  </defs>
  <path id="Forma_1" data-name="Forma 1" class="cls-1" d="M511.074,1072a4.989,4.989,0,0,0-4.922,5,4.922,4.922,0,1,0,9.844,0A4.984,4.984,0,0,0,511.074,1072Zm0,7.46a2.461,2.461,0,0,1-2.461-2.46,2.462,2.462,0,1,1,4.922,0A2.461,2.461,0,0,1,511.074,1079.46Zm27.235-7.46H520.918a3.7,3.7,0,0,0-3.692,3.69v8.4l-1.081-1.08a3.654,3.654,0,0,0-2.61-1.08h-7.383a6.159,6.159,0,0,0-6.152,6.15v7.38a3.691,3.691,0,0,0,3.691,3.69,3.589,3.589,0,0,0,1.231-.21v11.37a6.627,6.627,0,0,0,12.3,0v-16.29a3.7,3.7,0,0,0,2.882-.18l4.143-2.07h14.058a3.7,3.7,0,0,0,3.691-3.69v-12.39A3.7,3.7,0,0,0,538.309,1072Zm-14.38,17.18-4.92,2.46a1.225,1.225,0,0,1-1.422-.23l-0.721-.72a1.229,1.229,0,0,0-2.1.86,0.016,0.016,0,0,1,0,.01v18.75a1.231,1.231,0,0,1-2.461,0v-12.39a1.23,1.23,0,1,0-2.46,0v12.39a1.231,1.231,0,0,1-2.461,0v-22.23a1.231,1.231,0,0,0-2.461,0v7.38a1.231,1.231,0,0,1-2.461,0v-7.38a3.691,3.691,0,0,1,3.691-3.69h7.383a1.19,1.19,0,0,1,.87.36l3.667,3.66a1.236,1.236,0,0,0,1.421.24l3.336-1.67A1.23,1.23,0,1,1,523.929,1089.18Zm15.61-1.1a1.23,1.23,0,0,1-1.23,1.23h-11.45l0.022-.06a3.714,3.714,0,0,0,.163-1.63l6.729-3.36a1.23,1.23,0,1,0-1.1-2.2l-6.728,3.36a3.692,3.692,0,0,0-4.216-.64l-2.041,1.02v-10.11a1.231,1.231,0,0,1,1.231-1.23h17.391a1.23,1.23,0,0,1,1.23,1.23v12.39Z" transform="translate(-500 -1072)"/>
</svg>
