<svg xmlns="http://www.w3.org/2000/svg" width="26" height="48" viewBox="0 0 26 48">
  <metadata><?xpacket begin="﻿" id="W5M0MpCehiHzreSzNTczkc9d"?>
<x:xmpmeta xmlns:x="adobe:ns:meta/" x:xmptk="Adobe XMP Core 5.6-c138 79.159824, 2016/09/14-01:09:01        ">
   <rdf:RDF xmlns:rdf="http://www.w3.org/1999/02/22-rdf-syntax-ns#">
      <rdf:Description rdf:about=""/>
   </rdf:RDF>
</x:xmpmeta>
                                                                                                    
                                                                                                    
                                                                                                    
                                                                                                    
                                                                                                    
                                                                                                    
                                                                                                    
                                                                                                    
                                                                                                    
                                                                                                    
                                                                                                    
                                                                                                    
                                                                                                    
                                                                                                    
                                                                                                    
                                                                                                    
                                                                                                    
                                                                                                    
                                                                                                    
                                                                                                    
                           
<?xpacket end="w"?></metadata>
<defs>
    <style>
      .cls-1 {
        fill: #5c81fa;
        fill-rule: evenodd;
      }
    </style>
  </defs>
  <path id="Forma_1" data-name="Forma 1" class="cls-1" d="M825.165,1082.88l-1.987-.88-0.706-2.78a1.39,1.39,0,0,0-1.355-1.05H804.88a1.391,1.391,0,0,0-1.355,1.05l-0.7,2.78-1.985.88a1.371,1.371,0,0,0-.83,1.26v4.59a1.379,1.379,0,0,0,1.345,1.37l3.308,22.72a1.388,1.388,0,0,0,1.384,1.18h13.917a1.389,1.389,0,0,0,1.384-1.18l3.306-22.72a1.379,1.379,0,0,0,1.346-1.37v-4.59A1.373,1.373,0,0,0,825.165,1082.88Zm-20.586,1.38a1.408,1.408,0,0,0,.788-0.93l0.605-2.4h14.054l0.606,2.4a1.409,1.409,0,0,0,.787.93l1.781,0.78v2.3H802.8v-2.3Zm14.168,26.98h-11.5l-3.077-21.13h17.649Zm-10.322-33.98a1.145,1.145,0,0,1-.635-0.2,1.1,1.1,0,0,1-.283-1.54,2.423,2.423,0,0,0,.1-3.14,4.61,4.61,0,0,1-.1-5.9,1.117,1.117,0,0,1,1.556-.28,1.1,1.1,0,0,1,.282,1.54,2.39,2.39,0,0,0-.107,3.13,4.612,4.612,0,0,1,.108,5.91A1.128,1.128,0,0,1,808.425,1077.26Zm4.574,0a1.149,1.149,0,0,1-.636-0.2,1.1,1.1,0,0,1-.283-1.54,2.423,2.423,0,0,0,.1-3.14,4.612,4.612,0,0,1-.1-5.9,1.117,1.117,0,0,1,1.556-.28,1.087,1.087,0,0,1,.283,1.53c-1.3,1.86-.157,3.09-0.107,3.14a4.611,4.611,0,0,1,.107,5.91A1.124,1.124,0,0,1,813,1077.26Zm4.573,0a1.148,1.148,0,0,1-.635-0.2,1.1,1.1,0,0,1-.283-1.54,2.421,2.421,0,0,0,.1-3.14,4.614,4.614,0,0,1-.1-5.9,1.117,1.117,0,0,1,1.556-.28,1.087,1.087,0,0,1,.283,1.53,2.4,2.4,0,0,0-.108,3.14,4.611,4.611,0,0,1,.108,5.91A1.126,1.126,0,0,1,817.572,1077.26Z" transform="translate(-800 -1066)"/>
</svg>
