<svg xmlns="http://www.w3.org/2000/svg" width="42.03" height="39" viewBox="0 0 42.03 39">
  <metadata><?xpacket begin="﻿" id="W5M0MpCehiHzreSzNTczkc9d"?>
<x:xmpmeta xmlns:x="adobe:ns:meta/" x:xmptk="Adobe XMP Core 5.6-c138 79.159824, 2016/09/14-01:09:01        ">
   <rdf:RDF xmlns:rdf="http://www.w3.org/1999/02/22-rdf-syntax-ns#">
      <rdf:Description rdf:about=""/>
   </rdf:RDF>
</x:xmpmeta>
                                                                                                    
                                                                                                    
                                                                                                    
                                                                                                    
                                                                                                    
                                                                                                    
                                                                                                    
                                                                                                    
                                                                                                    
                                                                                                    
                                                                                                    
                                                                                                    
                                                                                                    
                                                                                                    
                                                                                                    
                                                                                                    
                                                                                                    
                                                                                                    
                                                                                                    
                                                                                                    
                           
<?xpacket end="w"?></metadata>
<defs>
    <style>
      .cls-1 {
        fill: #5c81fa;
        fill-rule: evenodd;
      }
    </style>
  </defs>
  <path id="Forma_1" data-name="Forma 1" class="cls-1" d="M1091.03,1103.38a15.388,15.388,0,0,1-1.96-7.73,16.415,16.415,0,0,1,16.27-16.52,15.943,15.943,0,0,1,5.27.91l-1.98-2.44a17.9,17.9,0,0,0-3.29-.32,18.246,18.246,0,0,0-18.09,18.36,17.358,17.358,0,0,0,2.21,8.68Zm30.07-11.8a16.51,16.51,0,0,1-15.76,20.58,16.026,16.026,0,0,1-10.08-3.58l-1.61,1.04a17.793,17.793,0,0,0,11.69,4.39,18.253,18.253,0,0,0,18.09-18.36,18.465,18.465,0,0,0-.12-1.98Zm4.89-.96c-0.23-1.09-4.68-7.46-4.68-7.46s3.78-3.71,4.03-4.15,1.21-1.42-.01-2.44a1.715,1.715,0,0,0-2.53.03c-0.43.4-3.68,3.35-3.68,3.35s-6.59-4.87-7.68-4.96a2.25,2.25,0,0,0-1.81.9l6.7,6.86-3.29,3.94-2.93-.87-1.62,1.01s3.22,1.43,3.86,2.25a17.7,17.7,0,0,1,1.47,3.55l1.55-.83-0.72-3.59,3.73-3.01,6.39,7.12C1124.77,1092.31,1126.21,1091.71,1125.99,1090.62Zm-15.06-.46a5.538,5.538,0,0,0-1.57-.94c-8.01,7.9-18.01,16.6-20.18,16.88a1.4,1.4,0,0,1-1.55-.58,1,1,0,0,1,.08-1.45l-1.69-3.82c-1.62,1.64-2.61,4.81-1.7,6.81a4.8,4.8,0,0,0,4.61,2.75c0.17,0,.34-0.01.52-0.02,4.3-.33,18.27-13.8,22.45-17.92A4.829,4.829,0,0,0,1110.93,1090.16Z" transform="translate(-1083.97 -1075)"/>
</svg>
