<svg xmlns="http://www.w3.org/2000/svg" width="42" height="42" viewBox="0 0 42 42">
  <metadata><?xpacket begin="﻿" id="W5M0MpCehiHzreSzNTczkc9d"?>
<x:xmpmeta xmlns:x="adobe:ns:meta/" x:xmptk="Adobe XMP Core 5.6-c138 79.159824, 2016/09/14-01:09:01        ">
   <rdf:RDF xmlns:rdf="http://www.w3.org/1999/02/22-rdf-syntax-ns#">
      <rdf:Description rdf:about=""/>
   </rdf:RDF>
</x:xmpmeta>
                                                                                                    
                                                                                                    
                                                                                                    
                                                                                                    
                                                                                                    
                                                                                                    
                                                                                                    
                                                                                                    
                                                                                                    
                                                                                                    
                                                                                                    
                                                                                                    
                                                                                                    
                                                                                                    
                                                                                                    
                                                                                                    
                                                                                                    
                                                                                                    
                                                                                                    
                                                                                                    
                           
<?xpacket end="w"?></metadata>
<defs>
    <style>
      .cls-1 {
        fill: #5c81fa;
        fill-rule: evenodd;
      }
    </style>
  </defs>
  <path class="cls-1" d="M1415.5,1096.96V1079a3.5,3.5,0,0,0-3.5-3.5h-5.25v-2.63a0.875,0.875,0,0,0-1.75,0v2.63h-15.75v-2.63a0.875,0.875,0,0,0-1.75,0v2.63h-7a3.5,3.5,0,0,0-3.5,3.5v28a3.5,3.5,0,0,0,3.5,3.5h21.46A9.618,9.618,0,1,0,1415.5,1096.96ZM1378.75,1079a1.752,1.752,0,0,1,1.75-1.75h7V1079a1.75,1.75,0,1,0,1.75,1.75v-3.5H1405V1079a1.75,1.75,0,1,0,1.75,1.75v-3.5H1412a1.752,1.752,0,0,1,1.75,1.75v5.25h-35V1079Zm1.75,29.75a1.752,1.752,0,0,1-1.75-1.75v-21h35v9.81a9.612,9.612,0,0,0-12.94,12.94H1380.5Zm28.87,3.5a7.875,7.875,0,1,1,7.88-7.88A7.88,7.88,0,0,1,1409.37,1112.25Zm0.88-8.24v-4.89a0.875,0.875,0,0,0-1.75,0v5.25a0.838,0.838,0,0,0,.26.62l2.62,2.63a0.877,0.877,0,0,0,1.24-1.24Z" transform="translate(-1377 -1072)"/>
</svg>
