<svg xmlns="http://www.w3.org/2000/svg" xmlns:xlink="http://www.w3.org/1999/xlink" viewBox="0 0 145.26 32"><defs><style>.cls-1{fill:#616262;}.cls-2{fill:url(#linear-gradient);}.cls-3{fill:url(#linear-gradient-2);}.cls-4{fill:url(#linear-gradient-3);}.cls-5{fill:url(#linear-gradient-4);}</style><linearGradient id="linear-gradient" x1="5.89" y1="38.6" x2="41.39" y2="8.6" gradientUnits="userSpaceOnUse"><stop offset="0" stop-color="#5b81f9"/><stop offset="1" stop-color="#39a8fe"/></linearGradient><linearGradient id="linear-gradient-2" x1="-2.92" y1="28.18" x2="32.58" y2="-1.82" xlink:href="#linear-gradient"/><linearGradient id="linear-gradient-3" x1="-4.85" y1="25.89" x2="30.65" y2="-4.11" xlink:href="#linear-gradient"/><linearGradient id="linear-gradient-4" x1="-3.38" y1="27.63" x2="32.12" y2="-2.37" xlink:href="#linear-gradient"/></defs><title>tropica_logo</title><g id="Layer_2" data-name="Layer 2"><g id="Layer_1-2" data-name="Layer 1"><path class="cls-1" d="M51.36,6.38V26.82H47.77V6.38H42.29V3H56.82V6.38Z"/><path class="cls-1" d="M58.29,11.79h3.47v1.34a6.63,6.63,0,0,1,1.7-1.37,3.9,3.9,0,0,1,1.79-.39,5.61,5.61,0,0,1,2.87.89l-1.59,3.18a3.32,3.32,0,0,0-1.93-.71q-2.84,0-2.84,4.29v7.79H58.29Z"/><path class="cls-1" d="M69.12,19.2a7.47,7.47,0,0,1,2.33-5.54,8.22,8.22,0,0,1,11.39,0,7.65,7.65,0,0,1,2.31,5.65A7.61,7.61,0,0,1,82.82,25a8,8,0,0,1-5.76,2.27,7.64,7.64,0,0,1-5.66-2.31A7.78,7.78,0,0,1,69.12,19.2Zm3.55.06a5.07,5.07,0,0,0,1.2,3.56,4.68,4.68,0,0,0,6.51,0,4.94,4.94,0,0,0,1.22-3.5,4.94,4.94,0,0,0-1.22-3.5,4.62,4.62,0,0,0-6.48,0A4.83,4.83,0,0,0,72.67,19.26Z"/><path class="cls-1" d="M92.29,32H88.82V11.79h3.47v1.64A6.43,6.43,0,0,1,97,11.38a6.5,6.5,0,0,1,5.11,2.28,8.25,8.25,0,0,1,2,5.72,8.12,8.12,0,0,1-2,5.63,6.59,6.59,0,0,1-9.78.12Zm8.25-12.6a5.19,5.19,0,0,0-1.17-3.52,3.79,3.79,0,0,0-3-1.37,4,4,0,0,0-3.1,1.33,5,5,0,0,0-1.19,3.49,5.14,5.14,0,0,0,1.19,3.49,3.9,3.9,0,0,0,3.09,1.34,3.76,3.76,0,0,0,3-1.36A4.93,4.93,0,0,0,100.55,19.4Z"/><path class="cls-1" d="M107.25,5.55a2.27,2.27,0,0,1,2.25-2.24,2.19,2.19,0,0,1,1.6.66,2.14,2.14,0,0,1,.66,1.59,2.18,2.18,0,0,1-.66,1.6,2.13,2.13,0,0,1-1.59.66,2.27,2.27,0,0,1-2.27-2.28Zm4,6.25v15h-3.47v-15Z"/><path class="cls-1" d="M127.33,12.44v4.61a8.49,8.49,0,0,0-2.13-2,4.15,4.15,0,0,0-2.18-.56,4.29,4.29,0,0,0-3.26,1.37,4.82,4.82,0,0,0-1.3,3.44,4.92,4.92,0,0,0,1.25,3.47A4.21,4.21,0,0,0,123,24.15a4.4,4.4,0,0,0,2.21-.54,8.72,8.72,0,0,0,2.18-2v4.58a9.12,9.12,0,0,1-4.23,1.1A8.09,8.09,0,0,1,117.27,25a7.52,7.52,0,0,1-2.35-5.63,7.62,7.62,0,0,1,2.38-5.68,8,8,0,0,1,5.83-2.31A8.72,8.72,0,0,1,127.33,12.44Z"/><path class="cls-1" d="M141.78,11.79h3.49v15h-3.49V25.25A6.67,6.67,0,0,1,132,25a8.38,8.38,0,0,1-2-5.74,8.12,8.12,0,0,1,2-5.63,6.52,6.52,0,0,1,5.06-2.25,6.39,6.39,0,0,1,4.71,2.16Zm-8.24,7.47a5.23,5.23,0,0,0,1.16,3.52,3.79,3.79,0,0,0,3,1.37,4,4,0,0,0,3.12-1.33A5.14,5.14,0,0,0,142,19.34a5.14,5.14,0,0,0-1.19-3.49,3.93,3.93,0,0,0-3.09-1.34,3.84,3.84,0,0,0-3,1.36A5,5,0,0,0,133.54,19.26Z"/><path class="cls-2" d="M34.74,12.81,18.77,15l3.62,3.62C19.16,24.79,12.65,28.81,0,31.31c11.61,2,19.84-.41,28.89-6.21l3.68,3.68Z"/><path class="cls-3" d="M26.59,10.92V1a1,1,0,0,0-1-1H21.71a1,1,0,0,0-1,1V11.72Z"/><path class="cls-4" d="M5.88,12a1,1,0,0,0-1-1H1a1,1,0,0,0-1,1V28.48c2.13-.42,4.08-.89,5.88-1.4Z"/><path class="cls-5" d="M16.23,21.54V6a1,1,0,0,0-1-1H11.36a1,1,0,0,0-1,1V24.92A28.55,28.55,0,0,0,16.23,21.54Z"/></g></g></svg>