<svg id="Layer_1" data-name="Layer 1" xmlns="http://www.w3.org/2000/svg" viewBox="0 0 32 18.29"><defs><style>.cls-1{fill:#5c81fa;}</style></defs><title>map-1</title><path id="icon" class="cls-1" d="M47.48,8.59v0c-.25-.25-2-.1-2-.1l0,.1a.74.74,0,0,1-.48.4c-.41.11-6.31.22-6.47-.22a.41.41,0,0,0-.13-.18,1.38,1.38,0,0,0-.85-.15l-.12.15a1.93,1.93,0,0,1-.71.61c-.28.09-.34-.29-.31-.61a1.51,1.51,0,0,1,.05-.26c.07-.23-.62-1-1.2-1.42a.84.84,0,0,0-.61-.22c-.47.16-2.9-.82-2.9-.82H16.65s0,.35-.09.65l0,.08a1.19,1.19,0,0,1-.09.3.07.07,0,0,1-.07.06l-.09-.06c-.23-.15-.7-.56-.79-.33a.52.52,0,0,0,.05.33A4.94,4.94,0,0,1,16,8.09v5.4a.68.68,0,0,0,.29.51c.3.26.7.49.64,1a.12.12,0,0,1,0,0c-.05.61.66,1.24,1.15,1.68l.36.33c.15.16.36.44.59.72s.63.74.81.71.88-.27,1.24.16a5.37,5.37,0,0,0,2.37.81h.4a5.15,5.15,0,0,1,2,0,.61.61,0,0,1,.44.39,2.37,2.37,0,0,0,.3.65,4.48,4.48,0,0,0,.69.83s.26-.44.41-.76l0-.07a.35.35,0,0,1,.42,0A2,2,0,0,1,29,21.73a2.13,2.13,0,0,0,.16.41,3,3,0,0,0,.91,1,3.79,3.79,0,0,0,.79.46s0-.19,0-.46,0-.7,0-1c0-.11,0-.21,0-.3.05-.6,1.76-1.15,2.07-1.2s2.38.93,2.38.6.33-.51.71-.77l.22-.15a.47.47,0,0,1,.56.15c.36.3.7.82.73.61s1-.16,1.14.22a8,8,0,0,1,.18.85,2.19,2.19,0,0,1,0,.57.89.89,0,0,0,.16.47c.28.48.81,1.07.93,1a2.66,2.66,0,0,0,.18-1,4.55,4.55,0,0,0,0-1,.88.88,0,0,0-.2-.47,2.34,2.34,0,0,1-.39-1.21,4.44,4.44,0,0,1,0-1,.83.83,0,0,1,.2-.53c.16-.13.74-.6,1.35-1.14.38-.35.78-.71,1.09-1s.72-.85.51-.93a.59.59,0,0,1-.34-.75c0-.26.09-.59.14-1a.37.37,0,0,1,0,0c.12-.91.72.19,1-1.05a1.13,1.13,0,0,1,.38-.62c.7-.62,2-.62,1.8-.79a.48.48,0,0,1-.16-.24,1.07,1.07,0,0,1,.32-1.07l.81-.61C47.1,9.21,47.61,8.75,47.48,8.59Z" transform="translate(-15.5 -5.86)"/></svg>