<?xml version="1.0" encoding="UTF-8"?>
<svg width="35px" height="45px" viewBox="0 0 35 45" version="1.1" xmlns="http://www.w3.org/2000/svg" xmlns:xlink="http://www.w3.org/1999/xlink">
    <!-- Generator: Sketch 48.1 (47250) - http://www.bohemiancoding.com/sketch -->
    <title>map-2</title>
    <desc>Created with Sketch.</desc>
    <defs></defs>
    <g id="Page-1" stroke="none" stroke-width="1" fill="none" fill-rule="evenodd">
        <g id="map-2" fill="#5C81FA">
            <path d="M34.041,41.62 C33.516,36.63 33.627,31.79 32.064,27.16 C31.539,25.6 32.364,23.01 30.278,22.72 C27.96,22.39 28.2,25.21 27.322,26.66 C27.3043143,26.7623226 27.2986092,26.8663571 27.305,26.97 C26.947,28.26 26.712,28.41 25.588,27.29 C22.252,24 22.642,20.73 26.982,19.19 C28.7914886,18.6237073 30.2135273,17.2143453 30.796,15.41 C31.002,14.85 30.875,14.04 31.631,13.85 C34.64,13.11 32.103,12.38 31.556,11.93 C30.6190596,11.2605995 29.4647,10.9679048 28.322,11.11 C24.995,11.24 21.657,11.21 18.322,11.13 C14.149,11.02 13.452,10.29 13.312,6.11 C13.3702052,5.27138099 13.192868,4.43318534 12.8,3.69 C12.434,3.11 12.037,2.57 11.428,3.32 C9.844,5.28 9.012,4.19 8.217,2.62 C7.817,1.82 7.652,0.18 6.393,2.14 C6.015,2.73 5.334,2.3 4.931,1.65 C4.49837791,0.825185574 3.73067064,0.227350859 2.825,0.01 C1.814,0.63 3.201,1.73 2.12,2.49 C-0.414,4.25 0.312,5.84 2.491,7.52 C3.29701122,8.12695684 4.19969108,8.59351047 5.161,8.9 C5.56182763,9.21209661 5.84805227,9.64811448 5.975,10.14 C6.08166859,10.3271458 6.06420654,10.5602808 5.93084972,10.7294484 C5.79749289,10.898616 5.57487805,10.9700267 5.368,10.91 C3.51,10.34 3.132,11.81 2.129,12.83 C-0.722,15.69 -0.912,16.06 2.882,17.4 C5.355,18.28 5.306,19.46 4.422,21.31 C3.86178301,22.09564 3.82942902,23.1412262 4.34,23.96 C6.64,27.32 6.546,31.4 7.46,35.16 C8.311,38.67 9.46,39.3 12.385,37.05 C13.506,36.18 14.345,34.53 15.393,37.14 C15.713,37.93 16.436,37.31 16.832,36.79 C17.263,36.22 17.204,35.18 18.488,35.56 C20.619,36.19 20.833,34.64 21.069,33.09 C21.152,32.54 20.444,31.82 21.722,31.4 C25.301,30.23 28.789,32.41 28.256,36.17 C27.723,39.91 30.104,42.18 31.09,44.99 C32.784,44.21 28.01,39.52 34.041,41.62 Z" id="icon"></path>
        </g>
    </g>
</svg>