<?xml version="1.0" encoding="UTF-8"?>
<svg width="43px" height="43px" viewBox="0 0 43 43" version="1.1" xmlns="http://www.w3.org/2000/svg" xmlns:xlink="http://www.w3.org/1999/xlink">
    <!-- Generator: Sketch 48.1 (47250) - http://www.bohemiancoding.com/sketch -->
    <title>map-3</title>
    <desc>Created with Sketch.</desc>
    <defs></defs>
    <g id="Page-1" stroke="none" stroke-width="1" fill="none" fill-rule="evenodd">
        <g id="map-3" transform="translate(-1.000000, 0.000000)" fill="#5C81FA">
            <path d="M41.31,9.51 C39.2951709,9.84089493 37.4308788,10.7835145 35.97,12.21 C33.88,13.98 33.2,14.29 31.55,12.3 C30.77,11.37 30.18,11.61 30.21,12.54 C30.28,14.83 29.1,14.3 27.83,13.89 C25.71,13.2 23.55,12.59 21.47,11.79 C20.46,11.4 18.58,10.59 18.99,9.9 C20.43,7.47 18.45,7.14 17.32,6.22 C16.59,5.63 16.98,5.11 17.12,4.35 C17.71,0.94 15.95,-0.68 13.01,0.29 C12.5291837,0.500170203 12.0013575,0.579516628 11.48,0.52 C8.68,-0.25 9.04,1.52 9.54,3.12 C10.47,6.04 7.95,11.4 5.09,11.79 C2.25,12.18 2.39,13.39 3.77,15.19 C5.05,16.87 5.14,17.77 2.65,17.63 C1.87,17.59 0.84,17.81 1,18.9 C1.45,22.01 4.31,23.73 7.57,22.91 C6.92,30.01 11.16,35.57 13.22,41.81 C13.65,43.14 14.47,43.54 15.96,42.11 C18.43,39.74 18.79,36.87 18.75,33.88 C18.5941119,32.5474138 19.2627761,31.2536079 20.44,30.61 C24.66,28.34 26.93,23.49 31.65,21.87 C32.29,21.65 31.94,20.69 31.81,20.11 C31.4807737,19.2390545 31.2101697,18.3470637 31,17.44 C30.89,16.5 31.93,15.04 32.21,15.45 C33.3,17.08 35.03,15.97 36.44,17.09 C31.09,19.93 37.89,19.61 37.08,21.33 C39.7,18.83 39.8,15.05 42.62,13.19 C43.36,12.69 44.38,12.05 43.83,11.65 C42.98,11.02 43.31,9.27 41.31,9.51 Z" id="icon"></path>
        </g>
    </g>
</svg>