<svg id="Icons" xmlns="http://www.w3.org/2000/svg" viewBox="0 0 95.35 88.26"><defs><style>.cls-1{fill:#5daff9;}.cls-2{fill:#364149;}</style></defs><title>1</title><rect class="cls-1" x="12.34" y="59.46" width="81.07" height="10.39"/><path class="cls-2" d="M401.91-634.77c-1,0-1.94-.7-2.15-2.29a11.73,11.73,0,0,0,2.51-7.27v-9.35c1.72-2,3.89-.76,3.89.94v8.41a15.6,15.6,0,0,1-2.63,8.69A2,2,0,0,1,401.91-634.77Z" transform="translate(-368.1 723.03)"/><path class="cls-2" d="M429.52-634.77a1.94,1.94,0,0,1-1.62-.87,15.6,15.6,0,0,1-2.63-8.69v-9.35c1.72-2,3.89-.76,3.89.94v10.6a6.1,6.1,0,0,0,1.78,4.09,2,2,0,0,1-.34,2.95A1.94,1.94,0,0,1,429.52-634.77Z" transform="translate(-368.1 723.03)"/><path class="cls-2" d="M463.45-651.24H368.1v-66.05a5.74,5.74,0,0,1,5.74-5.74h83.87a5.74,5.74,0,0,1,5.74,5.74ZM372-655.13h87.57v-62.16a1.85,1.85,0,0,0-1.85-1.85H373.84a1.85,1.85,0,0,0-1.85,1.85Z" transform="translate(-368.1 723.03)"/><path class="cls-2" d="M445-702.44H383.6c-2-1.72-.76-3.89.94-3.89h61.4C447.88-704.62,446.69-702.44,445-702.44Z" transform="translate(-368.1 723.03)"/><path class="cls-2" d="M430.22-692.09H418.45c-2-1.72-.76-3.89.94-3.89h11.77C433.11-694.26,431.92-692.09,430.22-692.09Z" transform="translate(-368.1 723.03)"/><path class="cls-2" d="M403.81-692.09H383.6c-2-1.72-.76-3.89.94-3.89h20.22C406.7-694.26,405.51-692.09,403.81-692.09Z" transform="translate(-368.1 723.03)"/><path class="cls-2" d="M448.74-661.63H369.11c-2-1.72-.76-3.89.94-3.89h79.63C451.62-663.8,450.43-661.63,448.74-661.63Z" transform="translate(-368.1 723.03)"/><path class="cls-2" d="M438.93-634.77H391.68c-2-1.72-.76-3.89.94-3.89h47.26C441.82-636.95,440.63-634.77,438.93-634.77Z" transform="translate(-368.1 723.03)"/></svg>