<svg id="Icons" xmlns="http://www.w3.org/2000/svg" viewBox="0 0 90.27 98.69"><defs><style>.cls-1{fill:#5daef8;}.cls-2{fill:#364148;}</style></defs><title>2</title><path class="cls-1" d="M186.12,397s4.17,6.7,10.07,6.7,8.11-1.5,8.11-1.5S200.73,386.38,186.12,397Z" transform="translate(-173.26 -351.44)"/><path class="cls-1" d="M235,397s4.17,6.7,10.07,6.7,8.11-1.5,8.11-1.5S249.57,386.38,235,397Z" transform="translate(-173.26 -351.44)"/><path class="cls-1" d="M209.28,357.1s4.17,6.7,10.07,6.7,8.11-1.5,8.11-1.5S223.9,346.51,209.28,357.1Z" transform="translate(-173.26 -351.44)"/><path class="cls-2" d="M175.23,450.13a2,2,0,0,1-2-2V435.53a20.93,20.93,0,0,1,7.55-16.06,2,2,0,1,1,2.53,3,17,17,0,0,0-6.14,13v12.63A2,2,0,0,1,175.23,450.13Z" transform="translate(-173.26 -351.44)"/><path class="cls-2" d="M213.13,450.13a2,2,0,0,1-2-2V435.53a17,17,0,0,0-6.14-13,2,2,0,1,1,2.53-3,20.93,20.93,0,0,1,7.55,16.06v12.63A2,2,0,0,1,213.13,450.13Z" transform="translate(-173.26 -351.44)"/><path class="cls-2" d="M223.66,450.13a2,2,0,0,1-2-2V435.53a20.93,20.93,0,0,1,7.55-16.06,2,2,0,1,1,2.53,3,17,17,0,0,0-6.14,13v12.63A2,2,0,0,1,223.66,450.13Z" transform="translate(-173.26 -351.44)"/><path class="cls-2" d="M261.56,450.13a2,2,0,0,1-2-2V435.53a17,17,0,0,0-6.14-13,2,2,0,1,1,2.53-3,20.93,20.93,0,0,1,7.55,16.06v12.63A2,2,0,0,1,261.56,450.13Z" transform="translate(-173.26 -351.44)"/><path class="cls-2" d="M194.18,422.76c-6.89,0-12.5-7-12.5-15.65,0-10.39,4.2-15.65,12.5-15.65s12.5,5.27,12.5,15.65C206.67,415.73,201.07,422.76,194.18,422.76Zm0-27.37c-4,0-8.56,1.33-8.56,11.72,0,6.46,3.84,11.72,8.56,11.72s8.56-5.26,8.56-11.72C202.74,396.71,198.16,395.38,194.18,395.38Z" transform="translate(-173.26 -351.44)"/><path class="cls-2" d="M198,405.78a14.51,14.51,0,0,1-2.14-.16,14.9,14.9,0,0,1-7.8-3.75,2,2,0,0,1,2.67-2.89,10.72,10.72,0,0,0,12.57,1.48,2,2,0,1,1,1.92,3.43A15,15,0,0,1,198,405.78Z" transform="translate(-173.26 -351.44)"/><path class="cls-2" d="M183.65,450.13a2,2,0,0,1-2-2V435.53a2,2,0,0,1,3.93,0v12.63A2,2,0,0,1,183.65,450.13Z" transform="translate(-173.26 -351.44)"/><path class="cls-2" d="M204.71,450.13a2,2,0,0,1-2-2V435.53a2,2,0,1,1,3.93,0v12.63A2,2,0,0,1,204.71,450.13Z" transform="translate(-173.26 -351.44)"/><path class="cls-2" d="M242.61,422.76c-6.89,0-12.5-7-12.5-15.65,0-10.39,4.2-15.65,12.5-15.65s12.5,5.27,12.5,15.65C255.11,415.73,249.5,422.76,242.61,422.76Zm0-27.37c-4,0-8.56,1.33-8.56,11.72,0,6.46,3.84,11.72,8.56,11.72s8.56-5.26,8.56-11.72C251.17,396.71,246.6,395.38,242.61,395.38Z" transform="translate(-173.26 -351.44)"/><path class="cls-2" d="M246.48,405.78a14.47,14.47,0,0,1-2.14-.16,14.9,14.9,0,0,1-7.8-3.75,2,2,0,0,1,2.67-2.89,10.72,10.72,0,0,0,12.57,1.48,2,2,0,0,1,1.92,3.43A15,15,0,0,1,246.48,405.78Z" transform="translate(-173.26 -351.44)"/><path class="cls-2" d="M232.08,450.13a2,2,0,0,1-2-2V435.53a2,2,0,0,1,3.93,0v12.63A2,2,0,0,1,232.08,450.13Z" transform="translate(-173.26 -351.44)"/><path class="cls-2" d="M253.14,450.13a2,2,0,0,1-2-2V435.53a2,2,0,0,1,3.93,0v12.63A2,2,0,0,1,253.14,450.13Z" transform="translate(-173.26 -351.44)"/><path class="cls-2" d="M217.34,382.75c-6.89,0-12.5-7-12.5-15.65,0-10.39,4.2-15.65,12.5-15.65s12.5,5.27,12.5,15.65C229.84,375.72,224.23,382.75,217.34,382.75Zm0-27.37c-4,0-8.56,1.33-8.56,11.72,0,6.46,3.84,11.72,8.56,11.72s8.56-5.26,8.56-11.72C225.9,356.7,221.33,355.37,217.34,355.37Z" transform="translate(-173.26 -351.44)"/><path class="cls-2" d="M234.08,388.66a2,2,0,0,1-1.74-1,17.27,17.27,0,0,0-4.16-5.14,2,2,0,0,1,2.54-3,21.23,21.23,0,0,1,5.1,6.31,2,2,0,0,1-1.74,2.89Z" transform="translate(-173.26 -351.44)"/><path class="cls-2" d="M200.6,388.66a2,2,0,0,1-1.74-2.89,21.21,21.21,0,0,1,5.1-6.31,2,2,0,0,1,2.54,3,17.32,17.32,0,0,0-4.16,5.14A2,2,0,0,1,200.6,388.66Z" transform="translate(-173.26 -351.44)"/><path class="cls-2" d="M221.21,365.78a14.54,14.54,0,0,1-2.14-.16,14.89,14.89,0,0,1-7.8-3.75,2,2,0,0,1,2.67-2.89,10.72,10.72,0,0,0,12.57,1.48,2,2,0,1,1,1.92,3.43A14.94,14.94,0,0,1,221.21,365.78Z" transform="translate(-173.26 -351.44)"/></svg>