<svg id="Isolation_Mode" data-name="Isolation Mode" xmlns="http://www.w3.org/2000/svg" viewBox="0 0 85.7 75.86"><defs><style>.cls-1{fill:#5daef8;}.cls-2{fill:#364148;}</style></defs><title>3</title><path class="cls-1" d="M196.72,364.51v28.37l1.53,1.12.89.57q3.15,1.92,6.38,3.68c3.92,1.75,8,2.95,11.68,5.06l.24-.13c9.34-3.92,18-9.22,27.26-13.31V364.51Z" transform="translate(-174.42 -356.01)"/><path class="cls-2" d="M258.15,431.87H176.39a2,2,0,0,1-2-2V381.6a2,2,0,0,1,3.93,0v46.34h77.83V381.6a2,2,0,0,1,3.93,0v48.31A2,2,0,0,1,258.15,431.87Z" transform="translate(-174.42 -356.01)"/><path class="cls-2" d="M217.27,405.06a2,2,0,0,1-.92-.23l-40.88-21.49a2,2,0,0,1,1.83-3.48l40,21,40-21a2,2,0,0,1,1.83,3.48l-40.88,21.49A2,2,0,0,1,217.27,405.06Z" transform="translate(-174.42 -356.01)"/><path class="cls-2" d="M176.39,431.87a2,2,0,0,1-1.22-3.51l35.47-28.17a2,2,0,0,1,2.45,3.08l-35.47,28.17A2,2,0,0,1,176.39,431.87Z" transform="translate(-174.42 -356.01)"/><path class="cls-2" d="M258.15,431.87a2,2,0,0,1-1.22-.43L227.6,408.16a2,2,0,0,1,2.45-3.08l29.33,23.29a2,2,0,0,1-1.22,3.51Z" transform="translate(-174.42 -356.01)"/><path class="cls-2" d="M176.39,382.73a2,2,0,0,1-1.43-3.32l13.46-14.25a2,2,0,0,1,2.86,2.7l-13.46,14.25A2,2,0,0,1,176.39,382.73Z" transform="translate(-174.42 -356.01)"/><path class="cls-2" d="M258.15,382.73a2,2,0,0,1-1.43-.62l-13.46-14.25a2,2,0,0,1,2.86-2.7l13.46,14.25a2,2,0,0,1-1.43,3.32Z" transform="translate(-174.42 -356.01)"/><path class="cls-2" d="M244.69,389a2,2,0,0,1-2-2V359.94H191.81V387a2,2,0,1,1-3.93,0V358a2,2,0,0,1,2-2h54.85a2,2,0,0,1,2,2v29A2,2,0,0,1,244.69,389Z" transform="translate(-174.42 -356.01)"/><path class="cls-2" d="M233.29,372.65h-32a2,2,0,0,1,0-3.93h32a2,2,0,0,1,0,3.93Z" transform="translate(-174.42 -356.01)"/><path class="cls-2" d="M233.29,383.7h-32a2,2,0,0,1,0-3.93h32a2,2,0,0,1,0,3.93Z" transform="translate(-174.42 -356.01)"/></svg>