<svg xmlns="http://www.w3.org/2000/svg" viewBox="0 0 93.31 84.36"><defs><style>.cls-1{fill:#5daef8;}.cls-2{fill:#364147;}</style></defs><title>decrease-bounce-rate</title><g id="Layer_2" data-name="Layer 2"><g id="Isolation_Mode" data-name="Isolation Mode"><polygon class="cls-1" points="76.06 11.57 76.06 58.02 8.93 58.02 8.93 67.01 84.39 67.01 84.39 60.7 84.39 54.39 84.39 11.57 76.06 11.57"/><path class="cls-2" d="M62.39,84.36H30.92a2,2,0,1,1,0-3.93H62.39a2,2,0,0,1,0,3.93Z"/><path class="cls-2" d="M84.39,68.62H8.92a2,2,0,0,1-2-2V11.57a2,2,0,0,1,2-2H84.39a2,2,0,0,1,2,2V66.65A2,2,0,0,1,84.39,68.62Zm-73.5-3.93H82.42V13.54H10.89Z"/><path class="cls-2" d="M46.66,82.6a2,2,0,0,1-2-2V75.44a2,2,0,1,1,3.93,0v5.19A2,2,0,0,1,46.66,82.6Z"/><path class="cls-2" d="M46.66,13.54a2,2,0,0,1-2-2V2a2,2,0,1,1,3.93,0v9.61A2,2,0,0,1,46.66,13.54Z"/><path class="cls-2" d="M8.92,13.54H2A2,2,0,0,1,2,9.61h7a2,2,0,1,1,0,3.93Z"/><path class="cls-2" d="M91.35,13.54h-7a2,2,0,0,1,0-3.93h7a2,2,0,1,1,0,3.93Z"/><path class="cls-2" d="M19,31.72a2,2,0,0,1,2.2-3.12l45.9,17.8-1.55-4.65a2,2,0,1,1,3.73-1.24l2.87,8.62a2,2,0,0,1-2.58,2.46L19.74,32.27A2,2,0,0,1,19,31.72Z"/><path class="cls-2" d="M61.06,55.93A2,2,0,0,1,61.49,53l7.7-4.9a2,2,0,1,1,2.11,3.32l-7.7,4.9A2,2,0,0,1,61.06,55.93Z"/></g></g></svg>