<svg xmlns="http://www.w3.org/2000/svg" viewBox="0 0 95.56 56.17"><defs><style>.cls-1{fill:#5daef8;}.cls-2{fill:#364147;}</style></defs><title>increase-page-view</title><g id="Layer_2" data-name="Layer 2"><g id="Icons"><circle class="cls-1" cx="47.88" cy="27.55" r="11.53"/><path class="cls-2" d="M47.48,56.17h-.74c-15.92-.27-32.13-9.44-45.66-25.85a2.45,2.45,0,0,1-1-1.37A2.23,2.23,0,0,1,0,28.22a2.19,2.19,0,0,1,.07-.72A2.42,2.42,0,0,1,1,26.18C3.29,23.07,20,1.39,44.67.06c17-.92,33.76,7.88,49.81,26.14a2.58,2.58,0,0,1,1.06,1.69,4.36,4.36,0,0,1,0,.65,2.59,2.59,0,0,1-1.06,1.69C79.36,47.45,63.54,56.16,47.48,56.17Zm-43.05-28c12.74,15.28,27.75,23.8,42.38,24,14.87.23,29.81-7.83,44.21-24C76,11.31,60.47,3.16,44.88,4,22.65,5.19,7.23,24.43,4.43,28.18ZM92.07,29.5h0Zm0,0h0ZM92,29.34l.11.15Zm-88.35,0h0ZM92.07,27,92,27.1Zm-88.46.11h0ZM92.07,27h0Zm0,0h0Z"/><path class="cls-2" d="M47.08,55.84A27.8,27.8,0,1,1,74.88,28,27.84,27.84,0,0,1,47.08,55.84Zm0-51.68A23.87,23.87,0,1,0,70.95,28,23.9,23.9,0,0,0,47.08,4.16Z"/><path class="cls-2" d="M47.91,41A13.79,13.79,0,0,1,34.39,27.34c0-7.53,5.47-13.24,12.73-13.29h0a2,2,0,0,1,0,3.93c-5,0-8.83,4.06-8.83,9.36a9.93,9.93,0,0,0,9.59,9.76,9.76,9.76,0,0,0,9.43-7.46,11.33,11.33,0,0,0-.26-4.38A11.06,11.06,0,0,0,55.3,22a2.83,2.83,0,0,1-.77-1.79,1.92,1.92,0,0,1,2-1.95,2,2,0,0,1,1.8,1.21l.12.16A14.88,14.88,0,0,1,60.8,24a15.21,15.21,0,0,1,.4,6.45A13.63,13.63,0,0,1,47.91,41Z"/></g></g></svg>