<svg xmlns="http://www.w3.org/2000/svg" viewBox="0 0 71.54 56.85"><defs><style>.cls-1{fill:#5daef8;}.cls-2{fill:#364147;}</style></defs><title>increase sessions</title><g id="Layer_2" data-name="Layer 2"><g id="Icons"><rect class="cls-1" x="33.92" y="24.97" width="8.52" height="29.93"/><rect class="cls-1" x="62.54" y="8.71" width="9" height="46.19"/><path class="cls-2" d="M16.74,56.85H1.95A2,2,0,0,1,0,54.9V34.33a2,2,0,0,1,1.95-1.95h14.8a2,2,0,0,1,1.95,1.95V54.9A2,2,0,0,1,16.74,56.85ZM3.89,53H14.8V36.28H3.89Z"/><path class="cls-2" d="M43.14,56.85H28.35A2,2,0,0,1,26.4,54.9V20.16a2,2,0,0,1,1.95-1.95h14.8a2,2,0,0,1,1.95,1.95V54.9A2,2,0,0,1,43.14,56.85ZM30.29,53H41.2V22.1H30.29Z"/><path class="cls-2" d="M69.54,56.85H54.75A2,2,0,0,1,52.8,54.9v-53A2,2,0,0,1,54.75,0h14.8a2,2,0,0,1,1.95,1.95v53A2,2,0,0,1,69.54,56.85ZM56.69,53H67.6V3.89H56.69Z"/></g></g></svg>