<svg xmlns="http://www.w3.org/2000/svg" viewBox="0 0 97.02 99.22"><defs><style>.cls-1{fill:#5daef8;}.cls-2{fill:#364147;}</style></defs><title>increase-number-of-user</title><g id="Layer_2" data-name="Layer 2"><g id="Isolation_Mode" data-name="Isolation Mode"><path class="cls-1" d="M21.6,22.59s4.1-7.67,14.59-7.67c2.89,0,5.94,10.09,5.94,10.09S31.49,31.09,21.6,22.59Z"/><path class="cls-1" d="M54.33,23.68S57.83,6.37,73.6,6.37,83.78,26.23,83.78,26.23L72.3,17.83l-3-3.73L63.54,20S61.27,23.68,54.33,23.68Z"/><path class="cls-2" d="M68.87,43.95c-8.24,0-14.28-8.49-16-16.87a2,2,0,1,1,3.85-.79C58.33,34.12,63.55,40,68.87,40,74.46,40,79.43,35,81,27.7a2,2,0,1,1,3.85.82C82.89,37.6,76.34,43.95,68.87,43.95Z"/><path class="cls-2" d="M95.05,90.49a2,2,0,0,1-2-2V62.34A24.13,24.13,0,0,0,85.76,45a23,23,0,0,1-16.89,7.63c-6.95,0-13.43-3.26-18.25-9.19A2,2,0,0,1,53.68,41c4.06,5,9.46,7.74,15.2,7.74S80,46,84.07,41a2,2,0,0,1,2.79-.27A28.1,28.1,0,0,1,97,62.34V88.52A2,2,0,0,1,95.05,90.49Z"/><path class="cls-2" d="M86.33,90.49a2,2,0,0,1-2-2V62.34a2,2,0,1,1,3.93,0V88.52A2,2,0,0,1,86.33,90.49Z"/><path class="cls-2" d="M28.15,52.68c-9.1,0-16.51-9.36-16.51-20.88,0-13.85,5.56-20.87,16.51-20.87s16.51,7,16.51,20.87C44.66,43.31,37.25,52.68,28.15,52.68Zm0-37.82c-8.7,0-12.58,5.22-12.58,16.94,0,9.34,5.64,16.94,12.58,16.94s12.58-7.6,12.58-16.94C40.72,20.08,36.85,14.86,28.15,14.86Z"/><path class="cls-2" d="M54.33,99.22a2,2,0,0,1-2-2V71.07A24.12,24.12,0,0,0,45,53.77,23,23,0,0,1,28.15,61.4a23,23,0,0,1-16.89-7.63,24.13,24.13,0,0,0-7.32,17.3V97.25a2,2,0,1,1-3.93,0V71.07A28.1,28.1,0,0,1,10.16,49.46a2,2,0,0,1,2.79.27c4.06,5,9.46,7.74,15.2,7.74s11.14-2.75,15.2-7.74a2,2,0,0,1,2.79-.27A28.09,28.09,0,0,1,56.3,71.07V97.25A2,2,0,0,1,54.33,99.22Z"/><path class="cls-2" d="M14,33.53a2,2,0,0,1-1.79-2.77,22.9,22.9,0,0,1,8.35-9.81,2,2,0,0,1,2.41.2,15.56,15.56,0,0,0,18.24,2.14,2,2,0,1,1,1.92,3.43,19.47,19.47,0,0,1-21.6-1.64,19,19,0,0,0-5.74,7.29A2,2,0,0,1,14,33.53Z"/><path class="cls-2" d="M13.6,99.22a2,2,0,0,1-2-2V71.07a2,2,0,1,1,3.93,0V97.25A2,2,0,0,1,13.6,99.22Z"/><path class="cls-2" d="M42.69,99.22a2,2,0,0,1-2-2V71.07a2,2,0,1,1,3.93,0V97.25A2,2,0,0,1,42.69,99.22Z"/><path class="cls-2" d="M83.78,28.19a2,2,0,0,1-.86-.2,41,41,0,0,1-10.31-7.13,40.84,40.84,0,0,1-3.47-3.73,32.14,32.14,0,0,1-4.33,4.42,32.2,32.2,0,0,1-9.55,5.55,2,2,0,0,1-2.47-1C49.45,19,50.46,10.63,55.31,5.38A17.19,17.19,0,0,1,67.63,0a19.33,19.33,0,0,1,14,5.29c5.52,5.35,7.12,14.06,4,21.68a2,2,0,0,1-1.82,1.22ZM69.11,11.9a2,2,0,0,1,1.6.82A36.86,36.86,0,0,0,75.32,18a36.94,36.94,0,0,0,7.35,5.41A15.58,15.58,0,0,0,78.9,8.12,15.56,15.56,0,0,0,67.74,3.94,13.29,13.29,0,0,0,58.2,8c-3.39,3.68-4.34,9.38-2.55,14.64a28.3,28.3,0,0,0,6.62-4.15,28.33,28.33,0,0,0,5.21-5.78,2,2,0,0,1,1.6-.86Z"/></g></g></svg>